<svg width="512" height="260" viewBox="0 0 512 260" fill="none" xmlns="http://www.w3.org/2000/svg">
<rect width="512" height="260" rx="8" fill="#1D2939"/>
<g filter="url(#filter0_b_77_3645)">
<rect x="18" y="20" width="470" height="219" rx="6.5" fill="url(#paint0_radial_77_3645)" fill-opacity="0.6"/>
<rect x="18.5434" y="20.5434" width="468.913" height="217.913" rx="5.95662" stroke="url(#paint1_linear_77_3645)" stroke-width="1.08677"/>
</g>
<path d="M48.2812 66.1406C48.4583 65.7656 48.6823 65.4896 48.9531 65.3125C49.2292 65.1302 49.5599 65.0391 49.9453 65.0391C50.6484 65.0391 51.1432 65.3125 51.4297 65.8594C51.7214 66.401 51.8672 67.4245 51.8672 68.9297V74H50.5547V68.9922C50.5547 67.7578 50.4844 66.9922 50.3438 66.6953C50.2083 66.3932 49.9583 66.2422 49.5938 66.2422C49.1771 66.2422 48.8906 66.4036 48.7344 66.7266C48.5833 67.0443 48.5078 67.7995 48.5078 68.9922V74H47.1953V68.9922C47.1953 67.7422 47.1198 66.9714 46.9688 66.6797C46.8229 66.388 46.5573 66.2422 46.1719 66.2422C45.7917 66.2422 45.526 66.4036 45.375 66.7266C45.2292 67.0443 45.1562 67.7995 45.1562 68.9922V74H43.8516V65.25H45.1562V66C45.3281 65.6875 45.5417 65.4505 45.7969 65.2891C46.0573 65.1224 46.3516 65.0391 46.6797 65.0391C47.0755 65.0391 47.4036 65.1302 47.6641 65.3125C47.9297 65.4948 48.1354 65.7708 48.2812 66.1406ZM59.0238 71.1875C58.7842 71.7969 58.4795 72.599 58.1097 73.5938C57.5941 74.9688 57.2477 75.8073 57.0706 76.1094C56.831 76.5156 56.5316 76.8203 56.1722 77.0234C55.8128 77.2266 55.3935 77.3281 54.9144 77.3281H53.7581V76.125H54.6097C55.0316 76.125 55.3623 76.0026 55.6019 75.7578C55.8415 75.513 56.1461 74.8802 56.5159 73.8594L53.1331 65.25H54.6566L57.2503 72.0938L59.805 65.25H61.3284L59.0238 71.1875ZM69.9303 73.5547C69.5449 73.7786 69.1465 73.9453 68.735 74.0547C68.3288 74.1693 67.9121 74.2266 67.485 74.2266C66.1308 74.2266 65.0709 73.8203 64.3053 73.0078C63.5449 72.1953 63.1647 71.0703 63.1647 69.6328C63.1647 68.1953 63.5449 67.0703 64.3053 66.2578C65.0709 65.4453 66.1308 65.0391 67.485 65.0391C67.9069 65.0391 68.3183 65.0938 68.7194 65.2031C69.1204 65.3125 69.5241 65.4818 69.9303 65.7109V67.2188C69.5501 66.8802 69.1673 66.6354 68.7819 66.4844C68.4017 66.3333 67.9694 66.2578 67.485 66.2578C66.584 66.2578 65.8913 66.5495 65.4069 67.1328C64.9225 67.7161 64.6803 68.5495 64.6803 69.6328C64.6803 70.7109 64.9225 71.5443 65.4069 72.1328C65.8965 72.7161 66.5892 73.0078 67.485 73.0078C67.985 73.0078 68.4329 72.9323 68.8288 72.7812C69.2246 72.625 69.5918 72.3854 69.9303 72.0625V73.5547ZM75.7744 66.2578C75.0452 66.2578 74.4931 66.5417 74.1181 67.1094C73.7431 67.6771 73.5556 68.5182 73.5556 69.6328C73.5556 70.7422 73.7431 71.5833 74.1181 72.1562C74.4931 72.724 75.0452 73.0078 75.7744 73.0078C76.5088 73.0078 77.0634 72.724 77.4384 72.1562C77.8134 71.5833 78.0009 70.7422 78.0009 69.6328C78.0009 68.5182 77.8134 67.6771 77.4384 67.1094C77.0634 66.5417 76.5088 66.2578 75.7744 66.2578ZM75.7744 65.0391C76.9879 65.0391 77.915 65.4323 78.5556 66.2188C79.2015 67.0052 79.5244 68.1432 79.5244 69.6328C79.5244 71.1276 79.2041 72.2682 78.5634 73.0547C77.9228 73.8359 76.9931 74.2266 75.7744 74.2266C74.5608 74.2266 73.6338 73.8359 72.9931 73.0547C72.3525 72.2682 72.0322 71.1276 72.0322 69.6328C72.0322 68.1432 72.3525 67.0052 72.9931 66.2188C73.6338 65.4323 74.5608 65.0391 75.7744 65.0391ZM81.0638 65.25H82.5559L85.095 72.5938L87.6419 65.25H89.1341L86.0247 74H84.1731L81.0638 65.25ZM98.3531 68.9062V69.6094H92.1266V69.6562C92.0849 70.849 92.3115 71.7057 92.8063 72.2266C93.3063 72.7474 94.0094 73.0078 94.9156 73.0078C95.374 73.0078 95.8531 72.9349 96.3531 72.7891C96.8531 72.6432 97.387 72.4219 97.9547 72.125V73.5547C97.4078 73.7786 96.8792 73.9453 96.3688 74.0547C95.8635 74.1693 95.374 74.2266 94.9 74.2266C93.5406 74.2266 92.4781 73.8203 91.7125 73.0078C90.9469 72.1901 90.5641 71.0651 90.5641 69.6328C90.5641 68.237 90.9391 67.1224 91.6891 66.2891C92.4391 65.4557 93.4391 65.0391 94.6891 65.0391C95.8036 65.0391 96.6813 65.4167 97.3219 66.1719C97.9677 66.9271 98.3115 67.8385 98.3531 68.9062ZM96.9156 68.4844C96.8531 67.8802 96.6318 67.3594 96.2516 66.9219C95.8766 66.4792 95.3349 66.2578 94.6266 66.2578C93.9339 66.2578 93.3635 66.487 92.9156 66.9453C92.4677 67.4036 92.2229 67.9193 92.1813 68.4922L96.9156 68.4844ZM107.947 67.0547C107.64 66.8151 107.327 66.6406 107.01 66.5312C106.692 66.4219 106.343 66.3672 105.963 66.3672C105.067 66.3672 104.382 66.6484 103.908 67.2109C103.434 67.7734 103.197 68.5859 103.197 69.6484V74H101.752V65.25H103.197V66.9609C103.437 66.3411 103.804 65.8672 104.299 65.5391C104.799 65.2057 105.39 65.0391 106.072 65.0391C106.426 65.0391 106.757 65.0833 107.064 65.1719C107.372 65.2604 107.666 65.3984 107.947 65.5859V67.0547Z" fill="#B4FDFE"/>
<path d="M111.283 70.8438H114.033V74H111.283V70.8438ZM124.737 69.6328C124.737 68.5182 124.56 67.6771 124.206 67.1094C123.851 66.5417 123.328 66.2578 122.635 66.2578C121.937 66.2578 121.409 66.5443 121.049 67.1172C120.69 67.6849 120.51 68.5234 120.51 69.6328C120.51 70.737 120.69 71.5755 121.049 72.1484C121.409 72.7214 121.937 73.0078 122.635 73.0078C123.328 73.0078 123.851 72.724 124.206 72.1562C124.56 71.5885 124.737 70.7474 124.737 69.6328ZM120.51 66.3672C120.739 65.9401 121.055 65.612 121.456 65.3828C121.862 65.1536 122.331 65.0391 122.862 65.0391C123.914 65.0391 124.742 65.4453 125.346 66.2578C125.95 67.0651 126.253 68.1797 126.253 69.6016C126.253 71.0443 125.948 72.1771 125.338 73C124.734 73.8177 123.904 74.2266 122.846 74.2266C122.325 74.2266 121.864 74.1146 121.463 73.8906C121.068 73.6615 120.75 73.3307 120.51 72.8984V74H119.073V61.8438H120.51V66.3672ZM128.409 70.6875V65.2656H129.847V70.6875C129.847 71.474 129.985 72.0521 130.261 72.4219C130.542 72.7917 130.974 72.9766 131.558 72.9766C132.235 72.9766 132.753 72.7396 133.112 72.2656C133.472 71.7865 133.651 71.1016 133.651 70.2109V65.2656H135.097V74H133.651V72.6875C133.396 73.1927 133.047 73.5755 132.604 73.8359C132.167 74.0964 131.654 74.2266 131.065 74.2266C130.169 74.2266 129.503 73.9349 129.065 73.3516C128.628 72.763 128.409 71.875 128.409 70.6875ZM138.675 65.2812H142.355V72.8828H145.206V74H138.066V72.8828H140.917V66.3984H138.675V65.2812ZM140.917 61.8828H142.355V63.6953H140.917V61.8828ZM151.144 70.8359C151.144 71.4818 151.261 71.9688 151.496 72.2969C151.735 72.625 152.087 72.7891 152.55 72.7891H154.23V74H152.41C151.55 74 150.884 73.7266 150.41 73.1797C149.941 72.6276 149.707 71.8464 149.707 70.8359V62.9219H147.402V61.7969H151.144V70.8359ZM161.551 66.3672V61.8438H162.988V74H161.551V72.8984C161.311 73.3307 160.991 73.6615 160.59 73.8906C160.194 74.1146 159.736 74.2266 159.215 74.2266C158.157 74.2266 157.324 73.8177 156.715 73C156.111 72.1771 155.808 71.0443 155.808 69.6016C155.808 68.1797 156.113 67.0651 156.723 66.2578C157.332 65.4453 158.163 65.0391 159.215 65.0391C159.741 65.0391 160.204 65.1536 160.605 65.3828C161.006 65.6068 161.321 65.9349 161.551 66.3672ZM157.324 69.6328C157.324 70.7474 157.501 71.5885 157.855 72.1562C158.209 72.724 158.733 73.0078 159.426 73.0078C160.118 73.0078 160.644 72.7214 161.004 72.1484C161.368 71.5755 161.551 70.737 161.551 69.6328C161.551 68.5234 161.368 67.6849 161.004 67.1172C160.644 66.5443 160.118 66.2578 159.426 66.2578C158.733 66.2578 158.209 66.5417 157.855 67.1094C157.501 67.6771 157.324 68.5182 157.324 69.6328ZM164.168 62.3359H165.707L166.824 71.8047L168.152 65.5391H169.801L171.145 71.8203L172.262 62.3359H173.801L172.059 74H170.567L168.981 67.0703L167.402 74H165.91L164.168 62.3359ZM175.958 65.2812H179.637V72.8828H182.489V74H175.348V72.8828H178.2V66.3984H175.958V65.2812ZM178.2 61.8828H179.637V63.6953H178.2V61.8828ZM187.606 62.7656V65.25H190.872V66.3672H187.606V71.1172C187.606 71.763 187.729 72.2135 187.973 72.4688C188.218 72.724 188.645 72.8516 189.255 72.8516H190.872V74H189.114C188.036 74 187.276 73.7839 186.833 73.3516C186.39 72.9193 186.169 72.1745 186.169 71.1172V66.3672H183.833V65.25H186.169V62.7656H187.606ZM200.341 68.5781V74H198.896V68.5781C198.896 67.7917 198.758 67.2135 198.482 66.8438C198.206 66.474 197.773 66.2891 197.185 66.2891C196.513 66.2891 195.995 66.5286 195.63 67.0078C195.271 67.4818 195.091 68.1641 195.091 69.0547V74H193.653V61.8438H195.091V66.5625C195.346 66.0625 195.693 65.6849 196.13 65.4297C196.568 65.1693 197.086 65.0391 197.685 65.0391C198.575 65.0391 199.239 65.3333 199.677 65.9219C200.12 66.5052 200.341 67.3906 200.341 68.5781ZM208.521 68.1797C208.521 66.4661 208.344 65.2422 207.99 64.5078C207.641 63.7734 207.065 63.4062 206.263 63.4062C205.466 63.4062 204.891 63.7734 204.537 64.5078C204.188 65.2422 204.013 66.4661 204.013 68.1797C204.013 69.888 204.188 71.1094 204.537 71.8438C204.891 72.5781 205.466 72.9453 206.263 72.9453C207.065 72.9453 207.641 72.5807 207.99 71.8516C208.344 71.1172 208.521 69.8932 208.521 68.1797ZM210.169 68.1797C210.169 70.2109 209.846 71.7266 209.201 72.7266C208.56 73.7266 207.581 74.2266 206.263 74.2266C204.945 74.2266 203.966 73.7292 203.326 72.7344C202.685 71.7396 202.365 70.2214 202.365 68.1797C202.365 66.1432 202.685 64.625 203.326 63.625C203.971 62.625 204.951 62.125 206.263 62.125C207.581 62.125 208.56 62.625 209.201 63.625C209.846 64.625 210.169 66.1432 210.169 68.1797ZM213.701 72.8984V77.3281H212.256V65.25H213.701V66.3672C213.941 65.9349 214.258 65.6068 214.654 65.3828C215.055 65.1536 215.516 65.0391 216.037 65.0391C217.094 65.0391 217.922 65.4479 218.521 66.2656C219.125 67.0833 219.428 68.2161 219.428 69.6641C219.428 71.0859 219.125 72.2031 218.521 73.0156C217.917 73.8229 217.089 74.2266 216.037 74.2266C215.506 74.2266 215.039 74.1146 214.638 73.8906C214.243 73.6615 213.93 73.3307 213.701 72.8984ZM217.92 69.6328C217.92 68.5182 217.743 67.6771 217.388 67.1094C217.039 66.5417 216.519 66.2578 215.826 66.2578C215.128 66.2578 214.599 66.5443 214.24 67.1172C213.881 67.6849 213.701 68.5234 213.701 69.6328C213.701 70.737 213.881 71.5755 214.24 72.1484C214.599 72.7214 215.128 73.0078 215.826 73.0078C216.519 73.0078 217.039 72.724 217.388 72.1562C217.743 71.5885 217.92 70.7474 217.92 69.6328ZM224.889 62.7656V65.25H228.154V66.3672H224.889V71.1172C224.889 71.763 225.011 72.2135 225.256 72.4688C225.501 72.724 225.928 72.8516 226.537 72.8516H228.154V74H226.397C225.318 74 224.558 73.7839 224.115 73.3516C223.673 72.9193 223.451 72.1745 223.451 71.1172V66.3672H221.115V65.25H223.451V62.7656H224.889ZM231.881 65.2812H235.561V72.8828H238.413V74H231.272V72.8828H234.123V66.3984H231.881V65.2812ZM234.123 61.8828H235.561V63.6953H234.123V61.8828ZM243.546 66.2578C242.816 66.2578 242.264 66.5417 241.889 67.1094C241.514 67.6771 241.327 68.5182 241.327 69.6328C241.327 70.7422 241.514 71.5833 241.889 72.1562C242.264 72.724 242.816 73.0078 243.546 73.0078C244.28 73.0078 244.835 72.724 245.21 72.1562C245.585 71.5833 245.772 70.7422 245.772 69.6328C245.772 68.5182 245.585 67.6771 245.21 67.1094C244.835 66.5417 244.28 66.2578 243.546 66.2578ZM243.546 65.0391C244.759 65.0391 245.686 65.4323 246.327 66.2188C246.973 67.0052 247.296 68.1432 247.296 69.6328C247.296 71.1276 246.975 72.2682 246.335 73.0547C245.694 73.8359 244.764 74.2266 243.546 74.2266C242.332 74.2266 241.405 73.8359 240.764 73.0547C240.124 72.2682 239.803 71.1276 239.803 69.6328C239.803 68.1432 240.124 67.0052 240.764 66.2188C241.405 65.4323 242.332 65.0391 243.546 65.0391ZM256.265 68.5781V74H254.819V68.5781C254.819 67.7917 254.681 67.2135 254.405 66.8438C254.129 66.474 253.697 66.2891 253.108 66.2891C252.437 66.2891 251.918 66.5286 251.554 67.0078C251.194 67.4818 251.015 68.1641 251.015 69.0547V74H249.577V65.25H251.015V66.5625C251.27 66.0625 251.616 65.6849 252.054 65.4297C252.491 65.1693 253.009 65.0391 253.608 65.0391C254.499 65.0391 255.163 65.3333 255.601 65.9219C256.043 66.5052 256.265 67.3906 256.265 68.5781ZM264.976 65.5547V66.9609C264.564 66.7214 264.15 66.5417 263.734 66.4219C263.317 66.3021 262.893 66.2422 262.46 66.2422C261.809 66.2422 261.322 66.349 260.999 66.5625C260.682 66.7708 260.523 67.0911 260.523 67.5234C260.523 67.9141 260.643 68.2057 260.882 68.3984C261.122 68.5911 261.718 68.7786 262.671 68.9609L263.249 69.0703C263.963 69.2057 264.502 69.4766 264.867 69.8828C265.236 70.2891 265.421 70.8177 265.421 71.4688C265.421 72.3333 265.114 73.0104 264.499 73.5C263.885 73.9844 263.031 74.2266 261.937 74.2266C261.505 74.2266 261.051 74.1797 260.577 74.0859C260.104 73.9974 259.591 73.862 259.038 73.6797V72.1953C259.575 72.4714 260.088 72.6797 260.577 72.8203C261.067 72.9557 261.531 73.0234 261.968 73.0234C262.604 73.0234 263.096 72.8958 263.445 72.6406C263.794 72.3802 263.968 72.0182 263.968 71.5547C263.968 70.888 263.33 70.4271 262.054 70.1719L261.992 70.1562L261.452 70.0469C260.624 69.8854 260.02 69.6146 259.64 69.2344C259.26 68.849 259.07 68.3255 259.07 67.6641C259.07 66.8255 259.354 66.1797 259.921 65.7266C260.489 65.2682 261.299 65.0391 262.351 65.0391C262.82 65.0391 263.27 65.0833 263.702 65.1719C264.135 65.2552 264.559 65.3828 264.976 65.5547ZM273.375 61.0781C272.682 62.2656 272.164 63.4505 271.82 64.6328C271.481 65.8099 271.312 66.9974 271.312 68.1953C271.312 69.388 271.481 70.5755 271.82 71.7578C272.164 72.9401 272.682 74.1302 273.375 75.3281H272.125C271.338 74.0885 270.752 72.8828 270.367 71.7109C269.981 70.5339 269.789 69.362 269.789 68.1953C269.789 67.0339 269.981 65.8646 270.367 64.6875C270.752 63.5104 271.338 62.3073 272.125 61.0781H273.375ZM284.078 74.3984V75.5234H283.578C282.281 75.5234 281.411 75.3307 280.969 74.9453C280.531 74.5599 280.312 73.7917 280.312 72.6406V71.0781C280.312 70.5104 280.151 70.0208 279.828 69.6094C279.51 69.1979 279.016 68.9922 278.344 68.9922H277.391V67.875H278.344C279.078 67.875 279.589 67.7005 279.875 67.3516C280.167 67.0026 280.312 66.4896 280.312 65.8125V63.7812C280.312 62.6302 280.531 61.8646 280.969 61.4844C281.411 61.099 282.281 60.9062 283.578 60.9062H284.078V62.0234H283.531C282.802 62.0234 282.326 62.138 282.102 62.3672C281.883 62.5911 281.773 63.0729 281.773 63.8125V65.9062C281.773 66.8229 281.594 67.4401 281.234 67.7578C280.875 68.0703 280.174 68.2969 279.133 68.4375C280.143 68.5573 280.836 68.7891 281.211 69.1328C281.586 69.4714 281.773 70.0859 281.773 70.9766V72.6094C281.773 73.3542 281.883 73.8385 282.102 74.0625C282.326 74.2865 282.802 74.3984 283.531 74.3984H284.078ZM88.4934 92.5781V98H87.0481V92.5781C87.0481 91.7917 86.9101 91.2135 86.6341 90.8438C86.358 90.474 85.9257 90.2891 85.3372 90.2891C84.6653 90.2891 84.1471 90.5286 83.7825 91.0078C83.4231 91.4818 83.2434 92.1641 83.2434 93.0547V98H81.8059V89.25H83.2434V90.5625C83.4986 90.0625 83.845 89.6849 84.2825 89.4297C84.72 89.1693 85.2382 89.0391 85.8372 89.0391C86.7278 89.0391 87.3919 89.3333 87.8294 89.9219C88.2721 90.5052 88.4934 91.3906 88.4934 92.5781ZM95.0875 93.6016H94.6109C93.7724 93.6016 93.1396 93.75 92.7125 94.0469C92.2906 94.3385 92.0797 94.776 92.0797 95.3594C92.0797 95.8854 92.2385 96.2943 92.5563 96.5859C92.874 96.8776 93.3141 97.0234 93.8766 97.0234C94.6682 97.0234 95.2906 96.75 95.7438 96.2031C96.1969 95.651 96.426 94.8906 96.4313 93.9219V93.6016H95.0875ZM97.8766 93.0078V98H96.4313V96.7031C96.124 97.224 95.7359 97.6094 95.2672 97.8594C94.8036 98.1042 94.2385 98.2266 93.5719 98.2266C92.6813 98.2266 91.9703 97.9766 91.4391 97.4766C90.9078 96.9714 90.6422 96.2969 90.6422 95.4531C90.6422 94.4792 90.9677 93.7396 91.6188 93.2344C92.275 92.7292 93.2359 92.4766 94.5016 92.4766H96.4313V92.25C96.426 91.5521 96.249 91.0469 95.9 90.7344C95.551 90.4167 94.9938 90.2578 94.2281 90.2578C93.7385 90.2578 93.2438 90.3281 92.7438 90.4688C92.2438 90.6094 91.7568 90.8151 91.2828 91.0859V89.6484C91.8141 89.4453 92.3219 89.2943 92.8063 89.1953C93.2958 89.0911 93.7698 89.0391 94.2281 89.0391C94.9521 89.0391 95.5693 89.1458 96.0797 89.3594C96.5953 89.5729 97.012 89.8932 97.3297 90.3203C97.5276 90.5807 97.6682 90.9036 97.7516 91.2891C97.8349 91.6693 97.8766 92.2422 97.8766 93.0078ZM104.205 90.1406C104.382 89.7656 104.606 89.4896 104.877 89.3125C105.153 89.1302 105.484 89.0391 105.869 89.0391C106.572 89.0391 107.067 89.3125 107.353 89.8594C107.645 90.401 107.791 91.4245 107.791 92.9297V98H106.478V92.9922C106.478 91.7578 106.408 90.9922 106.268 90.6953C106.132 90.3932 105.882 90.2422 105.518 90.2422C105.101 90.2422 104.814 90.4036 104.658 90.7266C104.507 91.0443 104.432 91.7995 104.432 92.9922V98H103.119V92.9922C103.119 91.7422 103.044 90.9714 102.893 90.6797C102.747 90.388 102.481 90.2422 102.096 90.2422C101.715 90.2422 101.45 90.4036 101.299 90.7266C101.153 91.0443 101.08 91.7995 101.08 92.9922V98H99.7753V89.25H101.08V90C101.252 89.6875 101.465 89.4505 101.721 89.2891C101.981 89.1224 102.275 89.0391 102.603 89.0391C102.999 89.0391 103.327 89.1302 103.588 89.3125C103.853 89.4948 104.059 89.7708 104.205 90.1406ZM116.994 92.9062V93.6094H110.768V93.6562C110.726 94.849 110.953 95.7057 111.448 96.2266C111.948 96.7474 112.651 97.0078 113.557 97.0078C114.015 97.0078 114.494 96.9349 114.994 96.7891C115.494 96.6432 116.028 96.4219 116.596 96.125V97.5547C116.049 97.7786 115.52 97.9453 115.01 98.0547C114.505 98.1693 114.015 98.2266 113.541 98.2266C112.182 98.2266 111.119 97.8203 110.354 97.0078C109.588 96.1901 109.205 95.0651 109.205 93.6328C109.205 92.237 109.58 91.1224 110.33 90.2891C111.08 89.4557 112.08 89.0391 113.33 89.0391C114.445 89.0391 115.323 89.4167 115.963 90.1719C116.609 90.9271 116.953 91.8385 116.994 92.9062ZM115.557 92.4844C115.494 91.8802 115.273 91.3594 114.893 90.9219C114.518 90.4792 113.976 90.2578 113.268 90.2578C112.575 90.2578 112.005 90.487 111.557 90.9453C111.109 91.4036 110.864 91.9193 110.823 92.4922L115.557 92.4844ZM120.917 89.2578H123.354V92.0781H120.917V89.2578ZM120.917 95.1562H123.354V98H120.917V95.1562ZM309.774 85.8281V90.6953H308.024V85.8281H309.774ZM316.751 95.1797H319.189V97.25L317.454 100.617L315.892 100.625L316.751 97.25V95.1797ZM89.0325 116.906V117.609H82.8059V117.656C82.7643 118.849 82.9908 119.706 83.4856 120.227C83.9856 120.747 84.6888 121.008 85.595 121.008C86.0533 121.008 86.5325 120.935 87.0325 120.789C87.5325 120.643 88.0664 120.422 88.6341 120.125V121.555C88.0872 121.779 87.5585 121.945 87.0481 122.055C86.5429 122.169 86.0533 122.227 85.5794 122.227C84.22 122.227 83.1575 121.82 82.3919 121.008C81.6263 120.19 81.2434 119.065 81.2434 117.633C81.2434 116.237 81.6184 115.122 82.3684 114.289C83.1184 113.456 84.1184 113.039 85.3684 113.039C86.483 113.039 87.3606 113.417 88.0013 114.172C88.6471 114.927 88.9908 115.839 89.0325 116.906ZM87.595 116.484C87.5325 115.88 87.3111 115.359 86.9309 114.922C86.5559 114.479 86.0143 114.258 85.3059 114.258C84.6132 114.258 84.0429 114.487 83.595 114.945C83.1471 115.404 82.9023 115.919 82.8606 116.492L87.595 116.484ZM97.8141 116.578V122H96.3688V116.578C96.3688 115.792 96.2307 115.214 95.9547 114.844C95.6786 114.474 95.2464 114.289 94.6578 114.289C93.9859 114.289 93.4677 114.529 93.1031 115.008C92.7438 115.482 92.5641 116.164 92.5641 117.055V122H91.1266V113.25H92.5641V114.562C92.8193 114.062 93.1656 113.685 93.6031 113.43C94.0406 113.169 94.5589 113.039 95.1578 113.039C96.0484 113.039 96.7125 113.333 97.15 113.922C97.5927 114.505 97.8141 115.391 97.8141 116.578ZM99.705 113.25H101.197L103.736 120.594L106.283 113.25H107.775L104.666 122H102.814L99.705 113.25ZM111.596 113.258H114.033V116.078H111.596V113.258ZM111.596 119.156H114.033V122H111.596V119.156ZM316.751 119.18H319.189V121.25L317.454 124.617L315.892 124.625L316.751 121.25V119.18ZM82.1263 133.844H83.6106V140.883L87.3841 137.25H89.1341L85.6888 140.547L89.6731 146H87.9153L84.6809 141.484L83.6106 142.492V146H82.1263V133.844ZM98.3531 140.906V141.609H92.1266V141.656C92.0849 142.849 92.3115 143.706 92.8063 144.227C93.3063 144.747 94.0094 145.008 94.9156 145.008C95.374 145.008 95.8531 144.935 96.3531 144.789C96.8531 144.643 97.387 144.422 97.9547 144.125V145.555C97.4078 145.779 96.8792 145.945 96.3688 146.055C95.8635 146.169 95.374 146.227 94.9 146.227C93.5406 146.227 92.4781 145.82 91.7125 145.008C90.9469 144.19 90.5641 143.065 90.5641 141.633C90.5641 140.237 90.9391 139.122 91.6891 138.289C92.4391 137.456 93.4391 137.039 94.6891 137.039C95.8036 137.039 96.6813 137.417 97.3219 138.172C97.9677 138.927 98.3115 139.839 98.3531 140.906ZM96.9156 140.484C96.8531 139.88 96.6318 139.359 96.2516 138.922C95.8766 138.479 95.3349 138.258 94.6266 138.258C93.9339 138.258 93.3635 138.487 92.9156 138.945C92.4677 139.404 92.2229 139.919 92.1813 140.492L96.9156 140.484ZM105.627 143.188C105.387 143.797 105.083 144.599 104.713 145.594C104.197 146.969 103.851 147.807 103.674 148.109C103.434 148.516 103.135 148.82 102.775 149.023C102.416 149.227 101.997 149.328 101.518 149.328H100.361V148.125H101.213C101.635 148.125 101.965 148.003 102.205 147.758C102.445 147.513 102.749 146.88 103.119 145.859L99.7363 137.25H101.26L103.853 144.094L106.408 137.25H107.932L105.627 143.188ZM111.596 137.258H114.033V140.078H111.596V137.258ZM111.596 143.156H114.033V146H111.596V143.156ZM132.683 133.828V138.695H130.933V133.828H132.683ZM142.003 133.828V138.695H140.253V133.828H142.003ZM148.98 143.18H151.418V145.25L149.683 148.617L148.121 148.625L148.98 145.25V143.18ZM85.0794 182.766V185.25H88.345V186.367H85.0794V191.117C85.0794 191.763 85.2018 192.214 85.4466 192.469C85.6914 192.724 86.1184 192.852 86.7278 192.852H88.345V194H86.5872C85.5091 194 84.7486 193.784 84.3059 193.352C83.8632 192.919 83.6419 192.174 83.6419 191.117V186.367H81.3059V185.25H83.6419V182.766H85.0794ZM94.4156 186.258C93.6865 186.258 93.1344 186.542 92.7594 187.109C92.3844 187.677 92.1969 188.518 92.1969 189.633C92.1969 190.742 92.3844 191.583 92.7594 192.156C93.1344 192.724 93.6865 193.008 94.4156 193.008C95.15 193.008 95.7047 192.724 96.0797 192.156C96.4547 191.583 96.6422 190.742 96.6422 189.633C96.6422 188.518 96.4547 187.677 96.0797 187.109C95.7047 186.542 95.15 186.258 94.4156 186.258ZM94.4156 185.039C95.6292 185.039 96.5563 185.432 97.1969 186.219C97.8427 187.005 98.1656 188.143 98.1656 189.633C98.1656 191.128 97.8453 192.268 97.2047 193.055C96.5641 193.836 95.6344 194.227 94.4156 194.227C93.2021 194.227 92.275 193.836 91.6344 193.055C90.9938 192.268 90.6734 191.128 90.6734 189.633C90.6734 188.143 90.9938 187.005 91.6344 186.219C92.275 185.432 93.2021 185.039 94.4156 185.039ZM100.768 181.844H102.252V188.883L106.025 185.25H107.775L104.33 188.547L108.314 194H106.557L103.322 189.484L102.252 190.492V194H100.768V181.844ZM116.994 188.906V189.609H110.768V189.656C110.726 190.849 110.953 191.706 111.448 192.227C111.948 192.747 112.651 193.008 113.557 193.008C114.015 193.008 114.494 192.935 114.994 192.789C115.494 192.643 116.028 192.422 116.596 192.125V193.555C116.049 193.779 115.52 193.945 115.01 194.055C114.505 194.169 114.015 194.227 113.541 194.227C112.182 194.227 111.119 193.82 110.354 193.008C109.588 192.19 109.205 191.065 109.205 189.633C109.205 188.237 109.58 187.122 110.33 186.289C111.08 185.456 112.08 185.039 113.33 185.039C114.445 185.039 115.323 185.417 115.963 186.172C116.609 186.927 116.953 187.839 116.994 188.906ZM115.557 188.484C115.494 187.88 115.273 187.359 114.893 186.922C114.518 186.479 113.976 186.258 113.268 186.258C112.575 186.258 112.005 186.487 111.557 186.945C111.109 187.404 110.864 187.919 110.823 188.492L115.557 188.484ZM125.776 188.578V194H124.331V188.578C124.331 187.792 124.193 187.214 123.917 186.844C123.641 186.474 123.208 186.289 122.62 186.289C121.948 186.289 121.43 186.529 121.065 187.008C120.706 187.482 120.526 188.164 120.526 189.055V194H119.088V185.25H120.526V186.562C120.781 186.062 121.128 185.685 121.565 185.43C122.003 185.169 122.521 185.039 123.12 185.039C124.01 185.039 124.674 185.333 125.112 185.922C125.555 186.505 125.776 187.391 125.776 188.578ZM130.237 185.258H132.675V188.078H130.237V185.258ZM130.237 191.156H132.675V194H130.237V191.156ZM151.324 181.828V186.695H149.574V181.828H151.324ZM160.644 181.828V186.695H158.894V181.828H160.644ZM167.621 191.18H170.059V193.25L168.324 196.617L166.762 196.625L167.621 193.25V191.18Z" fill="#F3D246"/>
<path d="M142.003 85.8281V90.6953H140.253V85.8281H142.003ZM148.644 87.6328V92.0156H150.472C151.201 92.0156 151.769 91.8229 152.175 91.4375C152.587 91.0521 152.793 90.513 152.793 89.8203C152.793 89.1276 152.589 88.5911 152.183 88.2109C151.777 87.8255 151.207 87.6328 150.472 87.6328H148.644ZM147.066 86.3359H150.472C151.774 86.3359 152.761 86.6328 153.433 87.2266C154.105 87.8151 154.441 88.6797 154.441 89.8203C154.441 90.9714 154.105 91.8411 153.433 92.4297C152.766 93.0182 151.779 93.3125 150.472 93.3125H148.644V98H147.066V86.3359ZM163.598 92.9062V93.6094H157.371V93.6562C157.329 94.849 157.556 95.7057 158.051 96.2266C158.551 96.7474 159.254 97.0078 160.16 97.0078C160.618 97.0078 161.098 96.9349 161.598 96.7891C162.098 96.6432 162.631 96.4219 163.199 96.125V97.5547C162.652 97.7786 162.124 97.9453 161.613 98.0547C161.108 98.1693 160.618 98.2266 160.144 98.2266C158.785 98.2266 157.723 97.8203 156.957 97.0078C156.191 96.1901 155.808 95.0651 155.808 93.6328C155.808 92.237 156.183 91.1224 156.933 90.2891C157.683 89.4557 158.683 89.0391 159.933 89.0391C161.048 89.0391 161.926 89.4167 162.566 90.1719C163.212 90.9271 163.556 91.8385 163.598 92.9062ZM162.16 92.4844C162.098 91.8802 161.876 91.3594 161.496 90.9219C161.121 90.4792 160.579 90.2578 159.871 90.2578C159.178 90.2578 158.608 90.487 158.16 90.9453C157.712 91.4036 157.467 91.9193 157.426 92.4922L162.16 92.4844ZM168.965 86.7656V89.25H172.231V90.3672H168.965V95.1172C168.965 95.763 169.087 96.2135 169.332 96.4688C169.577 96.724 170.004 96.8516 170.613 96.8516H172.231V98H170.473C169.395 98 168.634 97.7839 168.192 97.3516C167.749 96.9193 167.527 96.1745 167.527 95.1172V90.3672H165.192V89.25H167.527V86.7656H168.965ZM182.239 92.9062V93.6094H176.012V93.6562C175.971 94.849 176.197 95.7057 176.692 96.2266C177.192 96.7474 177.895 97.0078 178.801 97.0078C179.26 97.0078 179.739 96.9349 180.239 96.7891C180.739 96.6432 181.273 96.4219 181.84 96.125V97.5547C181.293 97.7786 180.765 97.9453 180.254 98.0547C179.749 98.1693 179.26 98.2266 178.786 98.2266C177.426 98.2266 176.364 97.8203 175.598 97.0078C174.833 96.1901 174.45 95.0651 174.45 93.6328C174.45 92.237 174.825 91.1224 175.575 90.2891C176.325 89.4557 177.325 89.0391 178.575 89.0391C179.689 89.0391 180.567 89.4167 181.208 90.1719C181.853 90.9271 182.197 91.8385 182.239 92.9062ZM180.801 92.4844C180.739 91.8802 180.517 91.3594 180.137 90.9219C179.762 90.4792 179.221 90.2578 178.512 90.2578C177.819 90.2578 177.249 90.487 176.801 90.9453C176.353 91.4036 176.109 91.9193 176.067 92.4922L180.801 92.4844ZM191.833 91.0547C191.526 90.8151 191.213 90.6406 190.895 90.5312C190.578 90.4219 190.229 90.3672 189.848 90.3672C188.953 90.3672 188.268 90.6484 187.794 91.2109C187.32 91.7734 187.083 92.5859 187.083 93.6484V98H185.637V89.25H187.083V90.9609C187.322 90.3411 187.69 89.8672 188.184 89.5391C188.684 89.2057 189.276 89.0391 189.958 89.0391C190.312 89.0391 190.643 89.0833 190.95 89.1719C191.257 89.2604 191.552 89.3984 191.833 89.5859V91.0547ZM206.247 86.7656V89.25H209.513V90.3672H206.247V95.1172C206.247 95.763 206.37 96.2135 206.615 96.4688C206.859 96.724 207.287 96.8516 207.896 96.8516H209.513V98H207.755C206.677 98 205.917 97.7839 205.474 97.3516C205.031 96.9193 204.81 96.1745 204.81 95.1172V90.3672H202.474V89.25H204.81V86.7656H206.247ZM218.982 92.5781V98H217.537V92.5781C217.537 91.7917 217.399 91.2135 217.123 90.8438C216.847 90.474 216.414 90.2891 215.826 90.2891C215.154 90.2891 214.636 90.5286 214.271 91.0078C213.912 91.4818 213.732 92.1641 213.732 93.0547V98H212.295V85.8438H213.732V90.5625C213.987 90.0625 214.334 89.6849 214.771 89.4297C215.209 89.1693 215.727 89.0391 216.326 89.0391C217.217 89.0391 217.881 89.3333 218.318 89.9219C218.761 90.5052 218.982 91.3906 218.982 92.5781ZM228.842 92.9062V93.6094H222.615V93.6562C222.574 94.849 222.8 95.7057 223.295 96.2266C223.795 96.7474 224.498 97.0078 225.404 97.0078C225.863 97.0078 226.342 96.9349 226.842 96.7891C227.342 96.6432 227.876 96.4219 228.443 96.125V97.5547C227.897 97.7786 227.368 97.9453 226.857 98.0547C226.352 98.1693 225.863 98.2266 225.389 98.2266C224.029 98.2266 222.967 97.8203 222.201 97.0078C221.436 96.1901 221.053 95.0651 221.053 93.6328C221.053 92.237 221.428 91.1224 222.178 90.2891C222.928 89.4557 223.928 89.0391 225.178 89.0391C226.292 89.0391 227.17 89.4167 227.811 90.1719C228.456 90.9271 228.8 91.8385 228.842 92.9062ZM227.404 92.4844C227.342 91.8802 227.121 91.3594 226.74 90.9219C226.365 90.4792 225.824 90.2578 225.115 90.2578C224.423 90.2578 223.852 90.487 223.404 90.9453C222.956 91.4036 222.712 91.9193 222.67 92.4922L227.404 92.4844ZM245.905 93.6328C245.905 92.5182 245.728 91.6771 245.374 91.1094C245.02 90.5417 244.496 90.2578 243.803 90.2578C243.106 90.2578 242.577 90.5443 242.217 91.1172C241.858 91.6849 241.678 92.5234 241.678 93.6328C241.678 94.737 241.858 95.5755 242.217 96.1484C242.577 96.7214 243.106 97.0078 243.803 97.0078C244.496 97.0078 245.02 96.724 245.374 96.1562C245.728 95.5885 245.905 94.7474 245.905 93.6328ZM241.678 90.3672C241.908 89.9401 242.223 89.612 242.624 89.3828C243.03 89.1536 243.499 89.0391 244.03 89.0391C245.082 89.0391 245.91 89.4453 246.514 90.2578C247.119 91.0651 247.421 92.1797 247.421 93.6016C247.421 95.0443 247.116 96.1771 246.507 97C245.902 97.8177 245.072 98.2266 244.014 98.2266C243.494 98.2266 243.033 98.1146 242.632 97.8906C242.236 97.6615 241.918 97.3307 241.678 96.8984V98H240.241V85.8438H241.678V90.3672ZM249.577 94.6875V89.2656H251.015V94.6875C251.015 95.474 251.153 96.0521 251.429 96.4219C251.71 96.7917 252.142 96.9766 252.726 96.9766C253.403 96.9766 253.921 96.7396 254.28 96.2656C254.64 95.7865 254.819 95.1016 254.819 94.2109V89.2656H256.265V98H254.819V96.6875C254.564 97.1927 254.215 97.5755 253.773 97.8359C253.335 98.0964 252.822 98.2266 252.233 98.2266C251.338 98.2266 250.671 97.9349 250.233 97.3516C249.796 96.763 249.577 95.875 249.577 94.6875ZM259.843 89.2812H263.523V96.8828H266.374V98H259.234V96.8828H262.085V90.3984H259.843V89.2812ZM262.085 85.8828H263.523V87.6953H262.085V85.8828ZM272.312 94.8359C272.312 95.4818 272.429 95.9688 272.664 96.2969C272.903 96.625 273.255 96.7891 273.718 96.7891H275.398V98H273.578C272.718 98 272.052 97.7266 271.578 97.1797C271.109 96.6276 270.875 95.8464 270.875 94.8359V86.9219H268.57V85.7969H272.312V94.8359ZM282.719 90.3672V85.8438H284.156V98H282.719V96.8984C282.479 97.3307 282.159 97.6615 281.758 97.8906C281.362 98.1146 280.904 98.2266 280.383 98.2266C279.326 98.2266 278.492 97.8177 277.883 97C277.279 96.1771 276.977 95.0443 276.977 93.6016C276.977 92.1797 277.281 91.0651 277.891 90.2578C278.5 89.4453 279.331 89.0391 280.383 89.0391C280.909 89.0391 281.372 89.1536 281.773 89.3828C282.174 89.6068 282.49 89.9349 282.719 90.3672ZM278.492 93.6328C278.492 94.7474 278.669 95.5885 279.023 96.1562C279.378 96.724 279.901 97.0078 280.594 97.0078C281.286 97.0078 281.812 96.7214 282.172 96.1484C282.536 95.5755 282.719 94.737 282.719 93.6328C282.719 92.5234 282.536 91.6849 282.172 91.1172C281.812 90.5443 281.286 90.2578 280.594 90.2578C279.901 90.2578 279.378 90.5417 279.023 91.1094C278.669 91.6771 278.492 92.5182 278.492 93.6328ZM294.086 92.9062V93.6094H287.86V93.6562C287.818 94.849 288.045 95.7057 288.539 96.2266C289.039 96.7474 289.742 97.0078 290.649 97.0078C291.107 97.0078 291.586 96.9349 292.086 96.7891C292.586 96.6432 293.12 96.4219 293.688 96.125V97.5547C293.141 97.7786 292.612 97.9453 292.102 98.0547C291.597 98.1693 291.107 98.2266 290.633 98.2266C289.274 98.2266 288.211 97.8203 287.446 97.0078C286.68 96.1901 286.297 95.0651 286.297 93.6328C286.297 92.237 286.672 91.1224 287.422 90.2891C288.172 89.4557 289.172 89.0391 290.422 89.0391C291.537 89.0391 292.414 89.4167 293.055 90.1719C293.701 90.9271 294.045 91.8385 294.086 92.9062ZM292.649 92.4844C292.586 91.8802 292.365 91.3594 291.985 90.9219C291.61 90.4792 291.068 90.2578 290.36 90.2578C289.667 90.2578 289.097 90.487 288.649 90.9453C288.201 91.4036 287.956 91.9193 287.914 92.4922L292.649 92.4844ZM303.68 91.0547C303.373 90.8151 303.061 90.6406 302.743 90.5312C302.425 90.4219 302.076 90.3672 301.696 90.3672C300.8 90.3672 300.115 90.6484 299.641 91.2109C299.167 91.7734 298.93 92.5859 298.93 93.6484V98H297.485V89.25H298.93V90.9609C299.17 90.3411 299.537 89.8672 300.032 89.5391C300.532 89.2057 301.123 89.0391 301.805 89.0391C302.159 89.0391 302.49 89.0833 302.798 89.1719C303.105 89.2604 303.399 89.3984 303.68 89.5859V91.0547Z" fill="#98CD89"/>
<path d="M132.683 109.828V114.695H130.933V109.828H132.683ZM139.136 120.898V125.328H137.691V113.25H139.136V114.367C139.376 113.935 139.693 113.607 140.089 113.383C140.49 113.154 140.951 113.039 141.472 113.039C142.529 113.039 143.357 113.448 143.956 114.266C144.56 115.083 144.863 116.216 144.863 117.664C144.863 119.086 144.56 120.203 143.956 121.016C143.352 121.823 142.524 122.227 141.472 122.227C140.941 122.227 140.474 122.115 140.073 121.891C139.678 121.661 139.365 121.331 139.136 120.898ZM143.355 117.633C143.355 116.518 143.178 115.677 142.823 115.109C142.474 114.542 141.954 114.258 141.261 114.258C140.563 114.258 140.034 114.544 139.675 115.117C139.316 115.685 139.136 116.523 139.136 117.633C139.136 118.737 139.316 119.576 139.675 120.148C140.034 120.721 140.563 121.008 141.261 121.008C141.954 121.008 142.474 120.724 142.823 120.156C143.178 119.589 143.355 118.747 143.355 117.633ZM154.55 115.055C154.243 114.815 153.931 114.641 153.613 114.531C153.295 114.422 152.946 114.367 152.566 114.367C151.67 114.367 150.985 114.648 150.511 115.211C150.037 115.773 149.8 116.586 149.8 117.648V122H148.355V113.25H149.8V114.961C150.04 114.341 150.407 113.867 150.902 113.539C151.402 113.206 151.993 113.039 152.675 113.039C153.029 113.039 153.36 113.083 153.668 113.172C153.975 113.26 154.269 113.398 154.55 113.586V115.055ZM159.66 114.258C158.931 114.258 158.379 114.542 158.004 115.109C157.629 115.677 157.441 116.518 157.441 117.633C157.441 118.742 157.629 119.583 158.004 120.156C158.379 120.724 158.931 121.008 159.66 121.008C160.394 121.008 160.949 120.724 161.324 120.156C161.699 119.583 161.887 118.742 161.887 117.633C161.887 116.518 161.699 115.677 161.324 115.109C160.949 114.542 160.394 114.258 159.66 114.258ZM159.66 113.039C160.874 113.039 161.801 113.432 162.441 114.219C163.087 115.005 163.41 116.143 163.41 117.633C163.41 119.128 163.09 120.268 162.449 121.055C161.808 121.836 160.879 122.227 159.66 122.227C158.446 122.227 157.519 121.836 156.879 121.055C156.238 120.268 155.918 119.128 155.918 117.633C155.918 116.143 156.238 115.005 156.879 114.219C157.519 113.432 158.446 113.039 159.66 113.039ZM170.871 114.367V109.844H172.309V122H170.871V120.898C170.632 121.331 170.311 121.661 169.91 121.891C169.514 122.115 169.056 122.227 168.535 122.227C167.478 122.227 166.645 121.818 166.035 121C165.431 120.177 165.129 119.044 165.129 117.602C165.129 116.18 165.434 115.065 166.043 114.258C166.652 113.445 167.483 113.039 168.535 113.039C169.061 113.039 169.525 113.154 169.926 113.383C170.327 113.607 170.642 113.935 170.871 114.367ZM166.645 117.633C166.645 118.747 166.822 119.589 167.176 120.156C167.53 120.724 168.054 121.008 168.746 121.008C169.439 121.008 169.965 120.721 170.324 120.148C170.689 119.576 170.871 118.737 170.871 117.633C170.871 116.523 170.689 115.685 170.324 115.117C169.965 114.544 169.439 114.258 168.746 114.258C168.054 114.258 167.53 114.542 167.176 115.109C166.822 115.677 166.645 116.518 166.645 117.633ZM175.012 118.688V113.266H176.45V118.688C176.45 119.474 176.588 120.052 176.864 120.422C177.145 120.792 177.577 120.977 178.161 120.977C178.838 120.977 179.356 120.74 179.715 120.266C180.075 119.786 180.254 119.102 180.254 118.211V113.266H181.7V122H180.254V120.688C179.999 121.193 179.65 121.576 179.208 121.836C178.77 122.096 178.257 122.227 177.668 122.227C176.773 122.227 176.106 121.935 175.668 121.352C175.231 120.763 175.012 119.875 175.012 118.688ZM191.098 121.555C190.713 121.779 190.315 121.945 189.903 122.055C189.497 122.169 189.08 122.227 188.653 122.227C187.299 122.227 186.239 121.82 185.473 121.008C184.713 120.195 184.333 119.07 184.333 117.633C184.333 116.195 184.713 115.07 185.473 114.258C186.239 113.445 187.299 113.039 188.653 113.039C189.075 113.039 189.486 113.094 189.887 113.203C190.289 113.312 190.692 113.482 191.098 113.711V115.219C190.718 114.88 190.335 114.635 189.95 114.484C189.57 114.333 189.137 114.258 188.653 114.258C187.752 114.258 187.059 114.549 186.575 115.133C186.091 115.716 185.848 116.549 185.848 117.633C185.848 118.711 186.091 119.544 186.575 120.133C187.065 120.716 187.757 121.008 188.653 121.008C189.153 121.008 189.601 120.932 189.997 120.781C190.393 120.625 190.76 120.385 191.098 120.062V121.555ZM196.927 110.766V113.25H200.193V114.367H196.927V119.117C196.927 119.763 197.049 120.214 197.294 120.469C197.539 120.724 197.966 120.852 198.575 120.852H200.193V122H198.435C197.357 122 196.596 121.784 196.153 121.352C195.711 120.919 195.489 120.174 195.489 119.117V114.367H193.153V113.25H195.489V110.766H196.927ZM203.919 113.281H207.599V120.883H210.451V122H203.31V120.883H206.162V114.398H203.919V113.281ZM206.162 109.883H207.599V111.695H206.162V109.883ZM215.584 114.258C214.855 114.258 214.303 114.542 213.928 115.109C213.553 115.677 213.365 116.518 213.365 117.633C213.365 118.742 213.553 119.583 213.928 120.156C214.303 120.724 214.855 121.008 215.584 121.008C216.318 121.008 216.873 120.724 217.248 120.156C217.623 119.583 217.81 118.742 217.81 117.633C217.81 116.518 217.623 115.677 217.248 115.109C216.873 114.542 216.318 114.258 215.584 114.258ZM215.584 113.039C216.797 113.039 217.724 113.432 218.365 114.219C219.011 115.005 219.334 116.143 219.334 117.633C219.334 119.128 219.013 120.268 218.373 121.055C217.732 121.836 216.803 122.227 215.584 122.227C214.37 122.227 213.443 121.836 212.803 121.055C212.162 120.268 211.842 119.128 211.842 117.633C211.842 116.143 212.162 115.005 212.803 114.219C213.443 113.432 214.37 113.039 215.584 113.039ZM228.303 116.578V122H226.857V116.578C226.857 115.792 226.719 115.214 226.443 114.844C226.167 114.474 225.735 114.289 225.147 114.289C224.475 114.289 223.956 114.529 223.592 115.008C223.232 115.482 223.053 116.164 223.053 117.055V122H221.615V113.25H223.053V114.562C223.308 114.062 223.654 113.685 224.092 113.43C224.529 113.169 225.048 113.039 225.647 113.039C226.537 113.039 227.201 113.333 227.639 113.922C228.081 114.505 228.303 115.391 228.303 116.578ZM230.209 116.344H238.491V117.664H230.209V116.344ZM246.335 113.555V114.961C245.923 114.721 245.509 114.542 245.092 114.422C244.676 114.302 244.251 114.242 243.819 114.242C243.168 114.242 242.681 114.349 242.358 114.562C242.04 114.771 241.882 115.091 241.882 115.523C241.882 115.914 242.001 116.206 242.241 116.398C242.481 116.591 243.077 116.779 244.03 116.961L244.608 117.07C245.322 117.206 245.861 117.477 246.225 117.883C246.595 118.289 246.78 118.818 246.78 119.469C246.78 120.333 246.473 121.01 245.858 121.5C245.244 121.984 244.389 122.227 243.296 122.227C242.863 122.227 242.41 122.18 241.936 122.086C241.462 121.997 240.949 121.862 240.397 121.68V120.195C240.934 120.471 241.447 120.68 241.936 120.82C242.426 120.956 242.889 121.023 243.327 121.023C243.962 121.023 244.454 120.896 244.803 120.641C245.152 120.38 245.327 120.018 245.327 119.555C245.327 118.888 244.689 118.427 243.413 118.172L243.35 118.156L242.811 118.047C241.983 117.885 241.379 117.615 240.999 117.234C240.619 116.849 240.428 116.326 240.428 115.664C240.428 114.826 240.712 114.18 241.28 113.727C241.848 113.268 242.658 113.039 243.71 113.039C244.178 113.039 244.629 113.083 245.061 113.172C245.494 113.255 245.918 113.383 246.335 113.555ZM253.538 117.602H253.062C252.223 117.602 251.59 117.75 251.163 118.047C250.741 118.339 250.53 118.776 250.53 119.359C250.53 119.885 250.689 120.294 251.007 120.586C251.325 120.878 251.765 121.023 252.327 121.023C253.119 121.023 253.741 120.75 254.194 120.203C254.648 119.651 254.877 118.891 254.882 117.922V117.602H253.538ZM256.327 117.008V122H254.882V120.703C254.575 121.224 254.187 121.609 253.718 121.859C253.254 122.104 252.689 122.227 252.023 122.227C251.132 122.227 250.421 121.977 249.89 121.477C249.358 120.971 249.093 120.297 249.093 119.453C249.093 118.479 249.418 117.74 250.069 117.234C250.726 116.729 251.687 116.477 252.952 116.477H254.882V116.25C254.877 115.552 254.7 115.047 254.351 114.734C254.002 114.417 253.444 114.258 252.679 114.258C252.189 114.258 251.694 114.328 251.194 114.469C250.694 114.609 250.207 114.815 249.733 115.086V113.648C250.265 113.445 250.773 113.294 251.257 113.195C251.746 113.091 252.22 113.039 252.679 113.039C253.403 113.039 254.02 113.146 254.53 113.359C255.046 113.573 255.463 113.893 255.78 114.32C255.978 114.581 256.119 114.904 256.202 115.289C256.286 115.669 256.327 116.242 256.327 117.008ZM265.585 116.578V122H264.14V116.578C264.14 115.792 264.002 115.214 263.726 114.844C263.45 114.474 263.018 114.289 262.429 114.289C261.757 114.289 261.239 114.529 260.874 115.008C260.515 115.482 260.335 116.164 260.335 117.055V122H258.898V113.25H260.335V114.562C260.591 114.062 260.937 113.685 261.374 113.43C261.812 113.169 262.33 113.039 262.929 113.039C263.82 113.039 264.484 113.333 264.921 113.922C265.364 114.505 265.585 115.391 265.585 116.578ZM273.398 114.367V109.844H274.836V122H273.398V120.898C273.159 121.331 272.838 121.661 272.437 121.891C272.041 122.115 271.583 122.227 271.062 122.227C270.005 122.227 269.172 121.818 268.562 121C267.958 120.177 267.656 119.044 267.656 117.602C267.656 116.18 267.961 115.065 268.57 114.258C269.179 113.445 270.01 113.039 271.062 113.039C271.588 113.039 272.052 113.154 272.453 113.383C272.854 113.607 273.169 113.935 273.398 114.367ZM269.172 117.633C269.172 118.747 269.349 119.589 269.703 120.156C270.057 120.724 270.58 121.008 271.273 121.008C271.966 121.008 272.492 120.721 272.851 120.148C273.216 119.576 273.398 118.737 273.398 117.633C273.398 116.523 273.216 115.685 272.851 115.117C272.492 114.544 271.966 114.258 271.273 114.258C270.58 114.258 270.057 114.542 269.703 115.109C269.349 115.677 269.172 116.518 269.172 117.633ZM283.188 117.633C283.188 116.518 283.01 115.677 282.656 115.109C282.302 114.542 281.779 114.258 281.086 114.258C280.388 114.258 279.859 114.544 279.5 115.117C279.141 115.685 278.961 116.523 278.961 117.633C278.961 118.737 279.141 119.576 279.5 120.148C279.859 120.721 280.388 121.008 281.086 121.008C281.779 121.008 282.302 120.724 282.656 120.156C283.01 119.589 283.188 118.747 283.188 117.633ZM278.961 114.367C279.19 113.94 279.505 113.612 279.906 113.383C280.312 113.154 280.781 113.039 281.312 113.039C282.365 113.039 283.193 113.445 283.797 114.258C284.401 115.065 284.703 116.18 284.703 117.602C284.703 119.044 284.398 120.177 283.789 121C283.185 121.818 282.354 122.227 281.297 122.227C280.776 122.227 280.315 122.115 279.914 121.891C279.518 121.661 279.201 121.331 278.961 120.898V122H277.523V109.844H278.961V114.367ZM290.149 114.258C289.42 114.258 288.867 114.542 288.492 115.109C288.117 115.677 287.93 116.518 287.93 117.633C287.93 118.742 288.117 119.583 288.492 120.156C288.867 120.724 289.42 121.008 290.149 121.008C290.883 121.008 291.438 120.724 291.813 120.156C292.188 119.583 292.375 118.742 292.375 117.633C292.375 116.518 292.188 115.677 291.813 115.109C291.438 114.542 290.883 114.258 290.149 114.258ZM290.149 113.039C291.362 113.039 292.289 113.432 292.93 114.219C293.576 115.005 293.899 116.143 293.899 117.633C293.899 119.128 293.578 120.268 292.938 121.055C292.297 121.836 291.367 122.227 290.149 122.227C288.935 122.227 288.008 121.836 287.367 121.055C286.727 120.268 286.407 119.128 286.407 117.633C286.407 116.143 286.727 115.005 287.367 114.219C288.008 113.432 288.935 113.039 290.149 113.039ZM303.391 113.25L300.258 117.438L303.696 122H302.032L299.469 118.492L296.915 122H295.251L298.688 117.438L295.555 113.25H297.149L299.469 116.414L301.774 113.25H303.391ZM309.774 109.828V114.695H308.024V109.828H309.774Z" fill="#B4F1A3"/>
<path d="M171.113 134.336H172.598L166.457 147.484H164.965L171.113 134.336ZM180.434 134.336H181.918L175.778 147.484H174.286L180.434 134.336ZM183.098 134.336H184.778L187.622 139.484L190.458 134.336H192.153L188.411 140.766V146H186.825V140.766L183.098 134.336ZM196.943 138.258C196.213 138.258 195.661 138.542 195.286 139.109C194.911 139.677 194.724 140.518 194.724 141.633C194.724 142.742 194.911 143.583 195.286 144.156C195.661 144.724 196.213 145.008 196.943 145.008C197.677 145.008 198.232 144.724 198.607 144.156C198.982 143.583 199.169 142.742 199.169 141.633C199.169 140.518 198.982 139.677 198.607 139.109C198.232 138.542 197.677 138.258 196.943 138.258ZM196.943 137.039C198.156 137.039 199.083 137.432 199.724 138.219C200.37 139.005 200.693 140.143 200.693 141.633C200.693 143.128 200.372 144.268 199.732 145.055C199.091 145.836 198.161 146.227 196.943 146.227C195.729 146.227 194.802 145.836 194.161 145.055C193.521 144.268 193.2 143.128 193.2 141.633C193.2 140.143 193.521 139.005 194.161 138.219C194.802 137.432 195.729 137.039 196.943 137.039ZM202.974 142.688V137.266H204.412V142.688C204.412 143.474 204.55 144.052 204.826 144.422C205.107 144.792 205.539 144.977 206.122 144.977C206.8 144.977 207.318 144.74 207.677 144.266C208.037 143.786 208.216 143.102 208.216 142.211V137.266H209.662V146H208.216V144.688C207.961 145.193 207.612 145.576 207.169 145.836C206.732 146.096 206.219 146.227 205.63 146.227C204.734 146.227 204.068 145.935 203.63 145.352C203.193 144.763 202.974 143.875 202.974 142.688ZM219.795 139.055C219.487 138.815 219.175 138.641 218.857 138.531C218.539 138.422 218.191 138.367 217.81 138.367C216.914 138.367 216.23 138.648 215.756 139.211C215.282 139.773 215.045 140.586 215.045 141.648V146H213.599V137.25H215.045V138.961C215.284 138.341 215.651 137.867 216.146 137.539C216.646 137.206 217.237 137.039 217.92 137.039C218.274 137.039 218.605 137.083 218.912 137.172C219.219 137.26 219.513 137.398 219.795 137.586V139.055ZM231.256 133.844H232.741V140.883L236.514 137.25H238.264L234.819 140.547L238.803 146H237.045L233.811 141.484L232.741 142.492V146H231.256V133.844ZM247.483 140.906V141.609H241.257V141.656C241.215 142.849 241.441 143.706 241.936 144.227C242.436 144.747 243.139 145.008 244.046 145.008C244.504 145.008 244.983 144.935 245.483 144.789C245.983 144.643 246.517 144.422 247.085 144.125V145.555C246.538 145.779 246.009 145.945 245.499 146.055C244.994 146.169 244.504 146.227 244.03 146.227C242.671 146.227 241.608 145.82 240.842 145.008C240.077 144.19 239.694 143.065 239.694 141.633C239.694 140.237 240.069 139.122 240.819 138.289C241.569 137.456 242.569 137.039 243.819 137.039C244.934 137.039 245.811 137.417 246.452 138.172C247.098 138.927 247.441 139.839 247.483 140.906ZM246.046 140.484C245.983 139.88 245.762 139.359 245.382 138.922C245.007 138.479 244.465 138.258 243.757 138.258C243.064 138.258 242.494 138.487 242.046 138.945C241.598 139.404 241.353 139.919 241.311 140.492L246.046 140.484ZM254.757 143.188C254.517 143.797 254.213 144.599 253.843 145.594C253.327 146.969 252.981 147.807 252.804 148.109C252.564 148.516 252.265 148.82 251.905 149.023C251.546 149.227 251.127 149.328 250.648 149.328H249.491V148.125H250.343C250.765 148.125 251.095 148.003 251.335 147.758C251.575 147.513 251.879 146.88 252.249 145.859L248.866 137.25H250.39L252.983 144.094L255.538 137.25H257.062L254.757 143.188ZM275 133.844V135.039H273.367C272.851 135.039 272.492 135.146 272.289 135.359C272.091 135.568 271.992 135.94 271.992 136.477V137.25H275V138.367H271.992V146H270.554V138.367H268.218V137.25H270.554V136.641C270.554 135.682 270.773 134.977 271.211 134.523C271.653 134.07 272.341 133.844 273.273 133.844H275ZM285.039 139.055C284.732 138.815 284.419 138.641 284.102 138.531C283.784 138.422 283.435 138.367 283.055 138.367C282.159 138.367 281.474 138.648 281 139.211C280.526 139.773 280.289 140.586 280.289 141.648V146H278.844V137.25H280.289V138.961C280.529 138.341 280.896 137.867 281.391 137.539C281.891 137.206 282.482 137.039 283.164 137.039C283.518 137.039 283.849 137.083 284.156 137.172C284.464 137.26 284.758 137.398 285.039 137.586V139.055ZM290.149 138.258C289.42 138.258 288.867 138.542 288.492 139.109C288.117 139.677 287.93 140.518 287.93 141.633C287.93 142.742 288.117 143.583 288.492 144.156C288.867 144.724 289.42 145.008 290.149 145.008C290.883 145.008 291.438 144.724 291.813 144.156C292.188 143.583 292.375 142.742 292.375 141.633C292.375 140.518 292.188 139.677 291.813 139.109C291.438 138.542 290.883 138.258 290.149 138.258ZM290.149 137.039C291.362 137.039 292.289 137.432 292.93 138.219C293.576 139.005 293.899 140.143 293.899 141.633C293.899 143.128 293.578 144.268 292.938 145.055C292.297 145.836 291.367 146.227 290.149 146.227C288.935 146.227 288.008 145.836 287.367 145.055C286.727 144.268 286.407 143.128 286.407 141.633C286.407 140.143 286.727 139.005 287.367 138.219C288.008 137.432 288.935 137.039 290.149 137.039ZM299.938 138.141C300.115 137.766 300.339 137.49 300.61 137.312C300.886 137.13 301.217 137.039 301.602 137.039C302.305 137.039 302.8 137.312 303.087 137.859C303.378 138.401 303.524 139.424 303.524 140.93V146H302.212V140.992C302.212 139.758 302.141 138.992 302.001 138.695C301.865 138.393 301.615 138.242 301.251 138.242C300.834 138.242 300.548 138.404 300.391 138.727C300.24 139.044 300.165 139.799 300.165 140.992V146H298.852V140.992C298.852 139.742 298.777 138.971 298.626 138.68C298.48 138.388 298.214 138.242 297.829 138.242C297.449 138.242 297.183 138.404 297.032 138.727C296.886 139.044 296.813 139.799 296.813 140.992V146H295.508V137.25H296.813V138C296.985 137.688 297.199 137.451 297.454 137.289C297.714 137.122 298.008 137.039 298.337 137.039C298.732 137.039 299.061 137.13 299.321 137.312C299.587 137.495 299.792 137.771 299.938 138.141ZM48.2812 162.141C48.4583 161.766 48.6823 161.49 48.9531 161.312C49.2292 161.13 49.5599 161.039 49.9453 161.039C50.6484 161.039 51.1432 161.312 51.4297 161.859C51.7214 162.401 51.8672 163.424 51.8672 164.93V170H50.5547V164.992C50.5547 163.758 50.4844 162.992 50.3438 162.695C50.2083 162.393 49.9583 162.242 49.5938 162.242C49.1771 162.242 48.8906 162.404 48.7344 162.727C48.5833 163.044 48.5078 163.799 48.5078 164.992V170H47.1953V164.992C47.1953 163.742 47.1198 162.971 46.9688 162.68C46.8229 162.388 46.5573 162.242 46.1719 162.242C45.7917 162.242 45.526 162.404 45.375 162.727C45.2292 163.044 45.1562 163.799 45.1562 164.992V170H43.8516V161.25H45.1562V162C45.3281 161.688 45.5417 161.451 45.7969 161.289C46.0573 161.122 46.3516 161.039 46.6797 161.039C47.0755 161.039 47.4036 161.13 47.6641 161.312C47.9297 161.495 48.1354 161.771 48.2812 162.141ZM59.0238 167.188C58.7842 167.797 58.4795 168.599 58.1097 169.594C57.5941 170.969 57.2477 171.807 57.0706 172.109C56.831 172.516 56.5316 172.82 56.1722 173.023C55.8128 173.227 55.3935 173.328 54.9144 173.328H53.7581V172.125H54.6097C55.0316 172.125 55.3623 172.003 55.6019 171.758C55.8415 171.513 56.1461 170.88 56.5159 169.859L53.1331 161.25H54.6566L57.2503 168.094L59.805 161.25H61.3284L59.0238 167.188ZM69.9303 169.555C69.5449 169.779 69.1465 169.945 68.735 170.055C68.3288 170.169 67.9121 170.227 67.485 170.227C66.1308 170.227 65.0709 169.82 64.3053 169.008C63.5449 168.195 63.1647 167.07 63.1647 165.633C63.1647 164.195 63.5449 163.07 64.3053 162.258C65.0709 161.445 66.1308 161.039 67.485 161.039C67.9069 161.039 68.3183 161.094 68.7194 161.203C69.1204 161.312 69.5241 161.482 69.9303 161.711V163.219C69.5501 162.88 69.1673 162.635 68.7819 162.484C68.4017 162.333 67.9694 162.258 67.485 162.258C66.584 162.258 65.8913 162.549 65.4069 163.133C64.9225 163.716 64.6803 164.549 64.6803 165.633C64.6803 166.711 64.9225 167.544 65.4069 168.133C65.8965 168.716 66.5892 169.008 67.485 169.008C67.985 169.008 68.4329 168.932 68.8288 168.781C69.2246 168.625 69.5918 168.385 69.9303 168.062V169.555ZM75.7744 162.258C75.0452 162.258 74.4931 162.542 74.1181 163.109C73.7431 163.677 73.5556 164.518 73.5556 165.633C73.5556 166.742 73.7431 167.583 74.1181 168.156C74.4931 168.724 75.0452 169.008 75.7744 169.008C76.5088 169.008 77.0634 168.724 77.4384 168.156C77.8134 167.583 78.0009 166.742 78.0009 165.633C78.0009 164.518 77.8134 163.677 77.4384 163.109C77.0634 162.542 76.5088 162.258 75.7744 162.258ZM75.7744 161.039C76.9879 161.039 77.915 161.432 78.5556 162.219C79.2015 163.005 79.5244 164.143 79.5244 165.633C79.5244 167.128 79.2041 168.268 78.5634 169.055C77.9228 169.836 76.9931 170.227 75.7744 170.227C74.5608 170.227 73.6338 169.836 72.9931 169.055C72.3525 168.268 72.0322 167.128 72.0322 165.633C72.0322 164.143 72.3525 163.005 72.9931 162.219C73.6338 161.432 74.5608 161.039 75.7744 161.039ZM81.0638 161.25H82.5559L85.095 168.594L87.6419 161.25H89.1341L86.0247 170H84.1731L81.0638 161.25ZM98.3531 164.906V165.609H92.1266V165.656C92.0849 166.849 92.3115 167.706 92.8063 168.227C93.3063 168.747 94.0094 169.008 94.9156 169.008C95.374 169.008 95.8531 168.935 96.3531 168.789C96.8531 168.643 97.387 168.422 97.9547 168.125V169.555C97.4078 169.779 96.8792 169.945 96.3688 170.055C95.8635 170.169 95.374 170.227 94.9 170.227C93.5406 170.227 92.4781 169.82 91.7125 169.008C90.9469 168.19 90.5641 167.065 90.5641 165.633C90.5641 164.237 90.9391 163.122 91.6891 162.289C92.4391 161.456 93.4391 161.039 94.6891 161.039C95.8036 161.039 96.6813 161.417 97.3219 162.172C97.9677 162.927 98.3115 163.839 98.3531 164.906ZM96.9156 164.484C96.8531 163.88 96.6318 163.359 96.2516 162.922C95.8766 162.479 95.3349 162.258 94.6266 162.258C93.9339 162.258 93.3635 162.487 92.9156 162.945C92.4677 163.404 92.2229 163.919 92.1813 164.492L96.9156 164.484ZM107.947 163.055C107.64 162.815 107.327 162.641 107.01 162.531C106.692 162.422 106.343 162.367 105.963 162.367C105.067 162.367 104.382 162.648 103.908 163.211C103.434 163.773 103.197 164.586 103.197 165.648V170H101.752V161.25H103.197V162.961C103.437 162.341 103.804 161.867 104.299 161.539C104.799 161.206 105.39 161.039 106.072 161.039C106.426 161.039 106.757 161.083 107.064 161.172C107.372 161.26 107.666 161.398 107.947 161.586V163.055ZM111.283 166.844H114.033V170H111.283V166.844ZM123.049 165.602H122.573C121.734 165.602 121.101 165.75 120.674 166.047C120.253 166.339 120.042 166.776 120.042 167.359C120.042 167.885 120.2 168.294 120.518 168.586C120.836 168.878 121.276 169.023 121.838 169.023C122.63 169.023 123.253 168.75 123.706 168.203C124.159 167.651 124.388 166.891 124.393 165.922V165.602H123.049ZM125.838 165.008V170H124.393V168.703C124.086 169.224 123.698 169.609 123.229 169.859C122.766 170.104 122.2 170.227 121.534 170.227C120.643 170.227 119.932 169.977 119.401 169.477C118.87 168.971 118.604 168.297 118.604 167.453C118.604 166.479 118.93 165.74 119.581 165.234C120.237 164.729 121.198 164.477 122.463 164.477H124.393V164.25C124.388 163.552 124.211 163.047 123.862 162.734C123.513 162.417 122.956 162.258 122.19 162.258C121.7 162.258 121.206 162.328 120.706 162.469C120.206 162.609 119.719 162.815 119.245 163.086V161.648C119.776 161.445 120.284 161.294 120.768 161.195C121.258 161.091 121.732 161.039 122.19 161.039C122.914 161.039 123.531 161.146 124.042 161.359C124.557 161.573 124.974 161.893 125.292 162.32C125.489 162.581 125.63 162.904 125.713 163.289C125.797 163.669 125.838 164.242 125.838 165.008ZM129.354 161.281H133.034V168.883H135.886V170H128.745V168.883H131.597V162.398H129.354V161.281ZM131.597 157.883H133.034V159.695H131.597V157.883ZM142.909 162.367V157.844H144.347V170H142.909V168.898C142.67 169.331 142.349 169.661 141.948 169.891C141.553 170.115 141.094 170.227 140.573 170.227C139.516 170.227 138.683 169.818 138.073 169C137.469 168.177 137.167 167.044 137.167 165.602C137.167 164.18 137.472 163.065 138.081 162.258C138.691 161.445 139.521 161.039 140.573 161.039C141.099 161.039 141.563 161.154 141.964 161.383C142.365 161.607 142.68 161.935 142.909 162.367ZM138.683 165.633C138.683 166.747 138.86 167.589 139.214 168.156C139.568 168.724 140.092 169.008 140.784 169.008C141.477 169.008 142.003 168.721 142.363 168.148C142.727 167.576 142.909 166.737 142.909 165.633C142.909 164.523 142.727 163.685 142.363 163.117C142.003 162.544 141.477 162.258 140.784 162.258C140.092 162.258 139.568 162.542 139.214 163.109C138.86 163.677 138.683 164.518 138.683 165.633ZM151.011 165.602H150.535C149.696 165.602 149.063 165.75 148.636 166.047C148.214 166.339 148.003 166.776 148.003 167.359C148.003 167.885 148.162 168.294 148.48 168.586C148.798 168.878 149.238 169.023 149.8 169.023C150.592 169.023 151.214 168.75 151.668 168.203C152.121 167.651 152.35 166.891 152.355 165.922V165.602H151.011ZM153.8 165.008V170H152.355V168.703C152.048 169.224 151.66 169.609 151.191 169.859C150.727 170.104 150.162 170.227 149.496 170.227C148.605 170.227 147.894 169.977 147.363 169.477C146.832 168.971 146.566 168.297 146.566 167.453C146.566 166.479 146.891 165.74 147.543 165.234C148.199 164.729 149.16 164.477 150.425 164.477H152.355V164.25C152.35 163.552 152.173 163.047 151.824 162.734C151.475 162.417 150.918 162.258 150.152 162.258C149.662 162.258 149.168 162.328 148.668 162.469C148.168 162.609 147.681 162.815 147.207 163.086V161.648C147.738 161.445 148.246 161.294 148.73 161.195C149.22 161.091 149.694 161.039 150.152 161.039C150.876 161.039 151.493 161.146 152.003 161.359C152.519 161.573 152.936 161.893 153.253 162.32C153.451 162.581 153.592 162.904 153.675 163.289C153.759 163.669 153.8 164.242 153.8 165.008ZM162.449 161.555V162.961C162.038 162.721 161.624 162.542 161.207 162.422C160.79 162.302 160.366 162.242 159.933 162.242C159.282 162.242 158.795 162.349 158.473 162.562C158.155 162.771 157.996 163.091 157.996 163.523C157.996 163.914 158.116 164.206 158.355 164.398C158.595 164.591 159.191 164.779 160.144 164.961L160.723 165.07C161.436 165.206 161.975 165.477 162.34 165.883C162.709 166.289 162.894 166.818 162.894 167.469C162.894 168.333 162.587 169.01 161.973 169.5C161.358 169.984 160.504 170.227 159.41 170.227C158.978 170.227 158.525 170.18 158.051 170.086C157.577 169.997 157.064 169.862 156.512 169.68V168.195C157.048 168.471 157.561 168.68 158.051 168.82C158.54 168.956 159.004 169.023 159.441 169.023C160.077 169.023 160.569 168.896 160.918 168.641C161.267 168.38 161.441 168.018 161.441 167.555C161.441 166.888 160.803 166.427 159.527 166.172L159.465 166.156L158.926 166.047C158.098 165.885 157.493 165.615 157.113 165.234C156.733 164.849 156.543 164.326 156.543 163.664C156.543 162.826 156.827 162.18 157.394 161.727C157.962 161.268 158.772 161.039 159.824 161.039C160.293 161.039 160.743 161.083 161.176 161.172C161.608 161.255 162.032 161.383 162.449 161.555ZM172.379 164.578V170H170.934V164.578C170.934 163.792 170.796 163.214 170.52 162.844C170.244 162.474 169.811 162.289 169.223 162.289C168.551 162.289 168.033 162.529 167.668 163.008C167.309 163.482 167.129 164.164 167.129 165.055V170H165.692V157.844H167.129V162.562C167.384 162.062 167.731 161.685 168.168 161.43C168.606 161.169 169.124 161.039 169.723 161.039C170.613 161.039 171.277 161.333 171.715 161.922C172.158 162.505 172.379 163.391 172.379 164.578ZM180.661 165.633C180.661 164.518 180.484 163.677 180.129 163.109C179.775 162.542 179.252 162.258 178.559 162.258C177.861 162.258 177.333 162.544 176.973 163.117C176.614 163.685 176.434 164.523 176.434 165.633C176.434 166.737 176.614 167.576 176.973 168.148C177.333 168.721 177.861 169.008 178.559 169.008C179.252 169.008 179.775 168.724 180.129 168.156C180.484 167.589 180.661 166.747 180.661 165.633ZM176.434 162.367C176.663 161.94 176.978 161.612 177.379 161.383C177.786 161.154 178.254 161.039 178.786 161.039C179.838 161.039 180.666 161.445 181.27 162.258C181.874 163.065 182.176 164.18 182.176 165.602C182.176 167.044 181.872 168.177 181.262 169C180.658 169.818 179.827 170.227 178.77 170.227C178.249 170.227 177.788 170.115 177.387 169.891C176.991 169.661 176.674 169.331 176.434 168.898V170H174.997V157.844H176.434V162.367ZM187.622 162.258C186.893 162.258 186.341 162.542 185.966 163.109C185.591 163.677 185.403 164.518 185.403 165.633C185.403 166.742 185.591 167.583 185.966 168.156C186.341 168.724 186.893 169.008 187.622 169.008C188.356 169.008 188.911 168.724 189.286 168.156C189.661 167.583 189.848 166.742 189.848 165.633C189.848 164.518 189.661 163.677 189.286 163.109C188.911 162.542 188.356 162.258 187.622 162.258ZM187.622 161.039C188.835 161.039 189.762 161.432 190.403 162.219C191.049 163.005 191.372 164.143 191.372 165.633C191.372 167.128 191.052 168.268 190.411 169.055C189.77 169.836 188.841 170.227 187.622 170.227C186.408 170.227 185.481 169.836 184.841 169.055C184.2 168.268 183.88 167.128 183.88 165.633C183.88 164.143 184.2 163.005 184.841 162.219C185.481 161.432 186.408 161.039 187.622 161.039ZM197.614 165.602H197.138C196.299 165.602 195.666 165.75 195.239 166.047C194.818 166.339 194.607 166.776 194.607 167.359C194.607 167.885 194.765 168.294 195.083 168.586C195.401 168.878 195.841 169.023 196.403 169.023C197.195 169.023 197.818 168.75 198.271 168.203C198.724 167.651 198.953 166.891 198.958 165.922V165.602H197.614ZM200.403 165.008V170H198.958V168.703C198.651 169.224 198.263 169.609 197.794 169.859C197.331 170.104 196.765 170.227 196.099 170.227C195.208 170.227 194.497 169.977 193.966 169.477C193.435 168.971 193.169 168.297 193.169 167.453C193.169 166.479 193.495 165.74 194.146 165.234C194.802 164.729 195.763 164.477 197.028 164.477H198.958V164.25C198.953 163.552 198.776 163.047 198.427 162.734C198.078 162.417 197.521 162.258 196.755 162.258C196.265 162.258 195.771 162.328 195.271 162.469C194.771 162.609 194.284 162.815 193.81 163.086V161.648C194.341 161.445 194.849 161.294 195.333 161.195C195.823 161.091 196.297 161.039 196.755 161.039C197.479 161.039 198.096 161.146 198.607 161.359C199.122 161.573 199.539 161.893 199.857 162.32C200.054 162.581 200.195 162.904 200.278 163.289C200.362 163.669 200.403 164.242 200.403 165.008ZM210.474 163.055C210.167 162.815 209.854 162.641 209.537 162.531C209.219 162.422 208.87 162.367 208.49 162.367C207.594 162.367 206.909 162.648 206.435 163.211C205.961 163.773 205.724 164.586 205.724 165.648V170H204.279V161.25H205.724V162.961C205.964 162.341 206.331 161.867 206.826 161.539C207.326 161.206 207.917 161.039 208.599 161.039C208.953 161.039 209.284 161.083 209.591 161.172C209.899 161.26 210.193 161.398 210.474 161.586V163.055ZM217.474 162.367V157.844H218.912V170H217.474V168.898C217.235 169.331 216.914 169.661 216.513 169.891C216.118 170.115 215.659 170.227 215.138 170.227C214.081 170.227 213.248 169.818 212.638 169C212.034 168.177 211.732 167.044 211.732 165.602C211.732 164.18 212.037 163.065 212.646 162.258C213.256 161.445 214.086 161.039 215.138 161.039C215.664 161.039 216.128 161.154 216.529 161.383C216.93 161.607 217.245 161.935 217.474 162.367ZM213.248 165.633C213.248 166.747 213.425 167.589 213.779 168.156C214.133 168.724 214.657 169.008 215.349 169.008C216.042 169.008 216.568 168.721 216.928 168.148C217.292 167.576 217.474 166.737 217.474 165.633C217.474 164.523 217.292 163.685 216.928 163.117C216.568 162.544 216.042 162.258 215.349 162.258C214.657 162.258 214.133 162.542 213.779 163.109C213.425 163.677 213.248 164.518 213.248 165.633ZM189.755 182.336H191.239L185.098 195.484H183.606L189.755 182.336ZM199.075 182.336H200.56L194.419 195.484H192.927L199.075 182.336ZM201.74 182.336H203.419L206.263 187.484L209.099 182.336H210.794L207.052 188.766V194H205.466V188.766L201.74 182.336ZM215.584 186.258C214.855 186.258 214.303 186.542 213.928 187.109C213.553 187.677 213.365 188.518 213.365 189.633C213.365 190.742 213.553 191.583 213.928 192.156C214.303 192.724 214.855 193.008 215.584 193.008C216.318 193.008 216.873 192.724 217.248 192.156C217.623 191.583 217.81 190.742 217.81 189.633C217.81 188.518 217.623 187.677 217.248 187.109C216.873 186.542 216.318 186.258 215.584 186.258ZM215.584 185.039C216.797 185.039 217.724 185.432 218.365 186.219C219.011 187.005 219.334 188.143 219.334 189.633C219.334 191.128 219.013 192.268 218.373 193.055C217.732 193.836 216.803 194.227 215.584 194.227C214.37 194.227 213.443 193.836 212.803 193.055C212.162 192.268 211.842 191.128 211.842 189.633C211.842 188.143 212.162 187.005 212.803 186.219C213.443 185.432 214.37 185.039 215.584 185.039ZM221.615 190.688V185.266H223.053V190.688C223.053 191.474 223.191 192.052 223.467 192.422C223.748 192.792 224.18 192.977 224.764 192.977C225.441 192.977 225.959 192.74 226.318 192.266C226.678 191.786 226.857 191.102 226.857 190.211V185.266H228.303V194H226.857V192.688C226.602 193.193 226.253 193.576 225.811 193.836C225.373 194.096 224.86 194.227 224.272 194.227C223.376 194.227 222.709 193.935 222.272 193.352C221.834 192.763 221.615 191.875 221.615 190.688ZM238.436 187.055C238.129 186.815 237.816 186.641 237.498 186.531C237.181 186.422 236.832 186.367 236.452 186.367C235.556 186.367 234.871 186.648 234.397 187.211C233.923 187.773 233.686 188.586 233.686 189.648V194H232.241V185.25H233.686V186.961C233.926 186.341 234.293 185.867 234.788 185.539C235.288 185.206 235.879 185.039 236.561 185.039C236.915 185.039 237.246 185.083 237.553 185.172C237.86 185.26 238.155 185.398 238.436 185.586V187.055ZM252.851 182.766V185.25H256.116V186.367H252.851V191.117C252.851 191.763 252.973 192.214 253.218 192.469C253.463 192.724 253.89 192.852 254.499 192.852H256.116V194H254.358C253.28 194 252.52 193.784 252.077 193.352C251.634 192.919 251.413 192.174 251.413 191.117V186.367H249.077V185.25H251.413V182.766H252.851ZM262.187 186.258C261.458 186.258 260.906 186.542 260.531 187.109C260.156 187.677 259.968 188.518 259.968 189.633C259.968 190.742 260.156 191.583 260.531 192.156C260.906 192.724 261.458 193.008 262.187 193.008C262.921 193.008 263.476 192.724 263.851 192.156C264.226 191.583 264.413 190.742 264.413 189.633C264.413 188.518 264.226 187.677 263.851 187.109C263.476 186.542 262.921 186.258 262.187 186.258ZM262.187 185.039C263.4 185.039 264.327 185.432 264.968 186.219C265.614 187.005 265.937 188.143 265.937 189.633C265.937 191.128 265.617 192.268 264.976 193.055C264.335 193.836 263.406 194.227 262.187 194.227C260.973 194.227 260.046 193.836 259.406 193.055C258.765 192.268 258.445 191.128 258.445 189.633C258.445 188.143 258.765 187.005 259.406 186.219C260.046 185.432 260.973 185.039 262.187 185.039ZM268.539 181.844H270.023V188.883L273.797 185.25H275.547L272.101 188.547L276.086 194H274.328L271.093 189.484L270.023 190.492V194H268.539V181.844ZM284.766 188.906V189.609H278.539V189.656C278.497 190.849 278.724 191.706 279.219 192.227C279.719 192.747 280.422 193.008 281.328 193.008C281.786 193.008 282.266 192.935 282.766 192.789C283.266 192.643 283.799 192.422 284.367 192.125V193.555C283.82 193.779 283.292 193.945 282.781 194.055C282.276 194.169 281.786 194.227 281.312 194.227C279.953 194.227 278.891 193.82 278.125 193.008C277.359 192.19 276.977 191.065 276.977 189.633C276.977 188.237 277.352 187.122 278.102 186.289C278.852 185.456 279.852 185.039 281.102 185.039C282.216 185.039 283.094 185.417 283.734 186.172C284.38 186.927 284.724 187.839 284.766 188.906ZM283.328 188.484C283.266 187.88 283.044 187.359 282.664 186.922C282.289 186.479 281.747 186.258 281.039 186.258C280.346 186.258 279.776 186.487 279.328 186.945C278.88 187.404 278.635 187.919 278.594 188.492L283.328 188.484ZM293.547 188.578V194H292.102V188.578C292.102 187.792 291.964 187.214 291.688 186.844C291.412 186.474 290.979 186.289 290.391 186.289C289.719 186.289 289.201 186.529 288.836 187.008C288.477 187.482 288.297 188.164 288.297 189.055V194H286.86V185.25H288.297V186.562C288.552 186.062 288.899 185.685 289.336 185.43C289.774 185.169 290.292 185.039 290.891 185.039C291.782 185.039 292.446 185.333 292.883 185.922C293.326 186.505 293.547 187.391 293.547 188.578ZM312.282 181.844V183.039H310.649C310.134 183.039 309.774 183.146 309.571 183.359C309.373 183.568 309.274 183.94 309.274 184.477V185.25H312.282V186.367H309.274V194H307.837V186.367H305.501V185.25H307.837V184.641C307.837 183.682 308.056 182.977 308.493 182.523C308.936 182.07 309.623 181.844 310.556 181.844H312.282ZM322.322 187.055C322.014 186.815 321.702 186.641 321.384 186.531C321.066 186.422 320.717 186.367 320.337 186.367C319.441 186.367 318.756 186.648 318.283 187.211C317.809 187.773 317.572 188.586 317.572 189.648V194H316.126V185.25H317.572V186.961C317.811 186.341 318.178 185.867 318.673 185.539C319.173 185.206 319.764 185.039 320.447 185.039C320.801 185.039 321.131 185.083 321.439 185.172C321.746 185.26 322.04 185.398 322.322 185.586V187.055ZM327.431 186.258C326.702 186.258 326.15 186.542 325.775 187.109C325.4 187.677 325.212 188.518 325.212 189.633C325.212 190.742 325.4 191.583 325.775 192.156C326.15 192.724 326.702 193.008 327.431 193.008C328.166 193.008 328.72 192.724 329.095 192.156C329.47 191.583 329.658 190.742 329.658 189.633C329.658 188.518 329.47 187.677 329.095 187.109C328.72 186.542 328.166 186.258 327.431 186.258ZM327.431 185.039C328.645 185.039 329.572 185.432 330.212 186.219C330.858 187.005 331.181 188.143 331.181 189.633C331.181 191.128 330.861 192.268 330.22 193.055C329.58 193.836 328.65 194.227 327.431 194.227C326.218 194.227 325.291 193.836 324.65 193.055C324.009 192.268 323.689 191.128 323.689 189.633C323.689 188.143 324.009 187.005 324.65 186.219C325.291 185.432 326.218 185.039 327.431 185.039ZM337.221 186.141C337.398 185.766 337.622 185.49 337.892 185.312C338.169 185.13 338.499 185.039 338.885 185.039C339.588 185.039 340.083 185.312 340.369 185.859C340.661 186.401 340.807 187.424 340.807 188.93V194H339.494V188.992C339.494 187.758 339.424 186.992 339.283 186.695C339.148 186.393 338.898 186.242 338.533 186.242C338.116 186.242 337.83 186.404 337.674 186.727C337.523 187.044 337.447 187.799 337.447 188.992V194H336.135V188.992C336.135 187.742 336.059 186.971 335.908 186.68C335.762 186.388 335.497 186.242 335.111 186.242C334.731 186.242 334.465 186.404 334.314 186.727C334.169 187.044 334.096 187.799 334.096 188.992V194H332.791V185.25H334.096V186C334.267 185.688 334.481 185.451 334.736 185.289C334.997 185.122 335.291 185.039 335.619 185.039C336.015 185.039 336.343 185.13 336.603 185.312C336.869 185.495 337.075 185.771 337.221 186.141ZM355.862 186.141C356.039 185.766 356.263 185.49 356.534 185.312C356.81 185.13 357.141 185.039 357.526 185.039C358.229 185.039 358.724 185.312 359.01 185.859C359.302 186.401 359.448 187.424 359.448 188.93V194H358.135V188.992C358.135 187.758 358.065 186.992 357.924 186.695C357.789 186.393 357.539 186.242 357.174 186.242C356.758 186.242 356.471 186.404 356.315 186.727C356.164 187.044 356.088 187.799 356.088 188.992V194H354.776V188.992C354.776 187.742 354.7 186.971 354.549 186.68C354.404 186.388 354.138 186.242 353.753 186.242C353.372 186.242 353.107 186.404 352.956 186.727C352.81 187.044 352.737 187.799 352.737 188.992V194H351.432V185.25H352.737V186C352.909 185.688 353.122 185.451 353.378 185.289C353.638 185.122 353.932 185.039 354.26 185.039C354.656 185.039 354.984 185.13 355.245 185.312C355.51 185.495 355.716 185.771 355.862 186.141ZM366.604 191.188C366.365 191.797 366.06 192.599 365.69 193.594C365.175 194.969 364.828 195.807 364.651 196.109C364.412 196.516 364.112 196.82 363.753 197.023C363.393 197.227 362.974 197.328 362.495 197.328H361.339V196.125H362.19C362.612 196.125 362.943 196.003 363.182 195.758C363.422 195.513 363.727 194.88 364.097 193.859L360.714 185.25H362.237L364.831 192.094L367.386 185.25H368.909L366.604 191.188ZM377.511 193.555C377.126 193.779 376.727 193.945 376.316 194.055C375.909 194.169 375.493 194.227 375.066 194.227C373.711 194.227 372.652 193.82 371.886 193.008C371.126 192.195 370.745 191.07 370.745 189.633C370.745 188.195 371.126 187.07 371.886 186.258C372.652 185.445 373.711 185.039 375.066 185.039C375.487 185.039 375.899 185.094 376.3 185.203C376.701 185.312 377.105 185.482 377.511 185.711V187.219C377.131 186.88 376.748 186.635 376.362 186.484C375.982 186.333 375.55 186.258 375.066 186.258C374.165 186.258 373.472 186.549 372.987 187.133C372.503 187.716 372.261 188.549 372.261 189.633C372.261 190.711 372.503 191.544 372.987 192.133C373.477 192.716 374.17 193.008 375.066 193.008C375.566 193.008 376.014 192.932 376.409 192.781C376.805 192.625 377.172 192.385 377.511 192.062V193.555ZM383.355 186.258C382.626 186.258 382.074 186.542 381.699 187.109C381.324 187.677 381.136 188.518 381.136 189.633C381.136 190.742 381.324 191.583 381.699 192.156C382.074 192.724 382.626 193.008 383.355 193.008C384.089 193.008 384.644 192.724 385.019 192.156C385.394 191.583 385.582 190.742 385.582 189.633C385.582 188.518 385.394 187.677 385.019 187.109C384.644 186.542 384.089 186.258 383.355 186.258ZM383.355 185.039C384.569 185.039 385.496 185.432 386.136 186.219C386.782 187.005 387.105 188.143 387.105 189.633C387.105 191.128 386.785 192.268 386.144 193.055C385.503 193.836 384.574 194.227 383.355 194.227C382.141 194.227 381.214 193.836 380.574 193.055C379.933 192.268 379.613 191.128 379.613 189.633C379.613 188.143 379.933 187.005 380.574 186.219C381.214 185.432 382.141 185.039 383.355 185.039ZM388.644 185.25H390.137L392.676 192.594L395.223 185.25H396.715L393.605 194H391.754L388.644 185.25ZM405.934 188.906V189.609H399.707V189.656C399.666 190.849 399.892 191.706 400.387 192.227C400.887 192.747 401.59 193.008 402.496 193.008C402.955 193.008 403.434 192.935 403.934 192.789C404.434 192.643 404.968 192.422 405.535 192.125V193.555C404.988 193.779 404.46 193.945 403.949 194.055C403.444 194.169 402.955 194.227 402.481 194.227C401.121 194.227 400.059 193.82 399.293 193.008C398.527 192.19 398.145 191.065 398.145 189.633C398.145 188.237 398.52 187.122 399.27 186.289C400.02 185.456 401.02 185.039 402.27 185.039C403.384 185.039 404.262 185.417 404.902 186.172C405.548 186.927 405.892 187.839 405.934 188.906ZM404.496 188.484C404.434 187.88 404.212 187.359 403.832 186.922C403.457 186.479 402.916 186.258 402.207 186.258C401.514 186.258 400.944 186.487 400.496 186.945C400.048 187.404 399.804 187.919 399.762 188.492L404.496 188.484ZM415.528 187.055C415.221 186.815 414.908 186.641 414.59 186.531C414.273 186.422 413.924 186.367 413.543 186.367C412.648 186.367 411.963 186.648 411.489 187.211C411.015 187.773 410.778 188.586 410.778 189.648V194H409.332V185.25H410.778V186.961C411.017 186.341 411.385 185.867 411.879 185.539C412.379 185.206 412.971 185.039 413.653 185.039C414.007 185.039 414.338 185.083 414.645 185.172C414.952 185.26 415.247 185.398 415.528 185.586V187.055ZM418.864 190.844H421.614V194H418.864V190.844ZM430.63 189.602H430.153C429.315 189.602 428.682 189.75 428.255 190.047C427.833 190.339 427.622 190.776 427.622 191.359C427.622 191.885 427.781 192.294 428.099 192.586C428.416 192.878 428.857 193.023 429.419 193.023C430.211 193.023 430.833 192.75 431.286 192.203C431.739 191.651 431.969 190.891 431.974 189.922V189.602H430.63ZM433.419 189.008V194H431.974V192.703C431.666 193.224 431.278 193.609 430.81 193.859C430.346 194.104 429.781 194.227 429.114 194.227C428.224 194.227 427.513 193.977 426.982 193.477C426.45 192.971 426.185 192.297 426.185 191.453C426.185 190.479 426.51 189.74 427.161 189.234C427.818 188.729 428.778 188.477 430.044 188.477H431.974V188.25C431.969 187.552 431.791 187.047 431.443 186.734C431.094 186.417 430.536 186.258 429.771 186.258C429.281 186.258 428.786 186.328 428.286 186.469C427.786 186.609 427.299 186.815 426.825 187.086V185.648C427.357 185.445 427.864 185.294 428.349 185.195C428.838 185.091 429.312 185.039 429.771 185.039C430.495 185.039 431.112 185.146 431.622 185.359C432.138 185.573 432.554 185.893 432.872 186.32C433.07 186.581 433.211 186.904 433.294 187.289C433.377 187.669 433.419 188.242 433.419 189.008ZM436.935 185.281H440.615V192.883H443.466V194H436.326V192.883H439.177V186.398H436.935V185.281ZM439.177 181.883H440.615V183.695H439.177V181.883ZM49.7031 210.367V205.844H51.1406V218H49.7031V216.898C49.4635 217.331 49.1432 217.661 48.7422 217.891C48.3464 218.115 47.888 218.227 47.3672 218.227C46.3099 218.227 45.4766 217.818 44.8672 217C44.263 216.177 43.9609 215.044 43.9609 213.602C43.9609 212.18 44.2656 211.065 44.875 210.258C45.4844 209.445 46.3151 209.039 47.3672 209.039C47.8932 209.039 48.3568 209.154 48.7578 209.383C49.1589 209.607 49.474 209.935 49.7031 210.367ZM45.4766 213.633C45.4766 214.747 45.6536 215.589 46.0078 216.156C46.362 216.724 46.8854 217.008 47.5781 217.008C48.2708 217.008 48.7969 216.721 49.1562 216.148C49.5208 215.576 49.7031 214.737 49.7031 213.633C49.7031 212.523 49.5208 211.685 49.1562 211.117C48.7969 210.544 48.2708 210.258 47.5781 210.258C46.8854 210.258 46.362 210.542 46.0078 211.109C45.6536 211.677 45.4766 212.518 45.4766 213.633ZM57.805 213.602H57.3284C56.4899 213.602 55.8571 213.75 55.43 214.047C55.0081 214.339 54.7972 214.776 54.7972 215.359C54.7972 215.885 54.956 216.294 55.2738 216.586C55.5915 216.878 56.0316 217.023 56.5941 217.023C57.3857 217.023 58.0081 216.75 58.4613 216.203C58.9144 215.651 59.1435 214.891 59.1488 213.922V213.602H57.805ZM60.5941 213.008V218H59.1488V216.703C58.8415 217.224 58.4534 217.609 57.9847 217.859C57.5211 218.104 56.956 218.227 56.2894 218.227C55.3988 218.227 54.6878 217.977 54.1566 217.477C53.6253 216.971 53.3597 216.297 53.3597 215.453C53.3597 214.479 53.6852 213.74 54.3363 213.234C54.9925 212.729 55.9534 212.477 57.2191 212.477H59.1488V212.25C59.1435 211.552 58.9665 211.047 58.6175 210.734C58.2685 210.417 57.7113 210.258 56.9456 210.258C56.456 210.258 55.9613 210.328 55.4613 210.469C54.9613 210.609 54.4743 210.815 54.0003 211.086V209.648C54.5316 209.445 55.0394 209.294 55.5238 209.195C56.0133 209.091 56.4873 209.039 56.9456 209.039C57.6696 209.039 58.2868 209.146 58.7972 209.359C59.3128 209.573 59.7295 209.893 60.0472 210.32C60.2451 210.581 60.3857 210.904 60.4691 211.289C60.5524 211.669 60.5941 212.242 60.5941 213.008ZM69.2428 209.555V210.961C68.8314 210.721 68.4173 210.542 68.0006 210.422C67.584 210.302 67.1595 210.242 66.7272 210.242C66.0761 210.242 65.5892 210.349 65.2663 210.562C64.9485 210.771 64.7897 211.091 64.7897 211.523C64.7897 211.914 64.9095 212.206 65.1491 212.398C65.3886 212.591 65.985 212.779 66.9381 212.961L67.5163 213.07C68.2298 213.206 68.7689 213.477 69.1334 213.883C69.5032 214.289 69.6881 214.818 69.6881 215.469C69.6881 216.333 69.3808 217.01 68.7663 217.5C68.1517 217.984 67.2975 218.227 66.2038 218.227C65.7715 218.227 65.3183 218.18 64.8444 218.086C64.3704 217.997 63.8574 217.862 63.3053 217.68V216.195C63.8418 216.471 64.3548 216.68 64.8444 216.82C65.334 216.956 65.7975 217.023 66.235 217.023C66.8704 217.023 67.3626 216.896 67.7116 216.641C68.0605 216.38 68.235 216.018 68.235 215.555C68.235 214.888 67.597 214.427 66.3209 214.172L66.2584 214.156L65.7194 214.047C64.8913 213.885 64.2871 213.615 63.9069 213.234C63.5267 212.849 63.3366 212.326 63.3366 211.664C63.3366 210.826 63.6204 210.18 64.1881 209.727C64.7558 209.268 65.5657 209.039 66.6178 209.039C67.0866 209.039 67.5371 209.083 67.9694 209.172C68.4017 209.255 68.8261 209.383 69.2428 209.555ZM79.1728 212.578V218H77.7275V212.578C77.7275 211.792 77.5895 211.214 77.3134 210.844C77.0374 210.474 76.6051 210.289 76.0166 210.289C75.3447 210.289 74.8265 210.529 74.4619 211.008C74.1025 211.482 73.9228 212.164 73.9228 213.055V218H72.4853V205.844H73.9228V210.562C74.178 210.062 74.5244 209.685 74.9619 209.43C75.3994 209.169 75.9176 209.039 76.5166 209.039C77.4072 209.039 78.0713 209.333 78.5088 209.922C78.9515 210.505 79.1728 211.391 79.1728 212.578ZM87.4544 213.633C87.4544 212.518 87.2773 211.677 86.9231 211.109C86.569 210.542 86.0455 210.258 85.3528 210.258C84.6549 210.258 84.1263 210.544 83.7669 211.117C83.4075 211.685 83.2278 212.523 83.2278 213.633C83.2278 214.737 83.4075 215.576 83.7669 216.148C84.1263 216.721 84.6549 217.008 85.3528 217.008C86.0455 217.008 86.569 216.724 86.9231 216.156C87.2773 215.589 87.4544 214.747 87.4544 213.633ZM83.2278 210.367C83.457 209.94 83.7721 209.612 84.1731 209.383C84.5794 209.154 85.0481 209.039 85.5794 209.039C86.6315 209.039 87.4596 209.445 88.0638 210.258C88.6679 211.065 88.97 212.18 88.97 213.602C88.97 215.044 88.6653 216.177 88.0559 217C87.4518 217.818 86.621 218.227 85.5638 218.227C85.0429 218.227 84.582 218.115 84.1809 217.891C83.7851 217.661 83.4674 217.331 83.2278 216.898V218H81.7903V205.844H83.2278V210.367ZM94.4156 210.258C93.6865 210.258 93.1344 210.542 92.7594 211.109C92.3844 211.677 92.1969 212.518 92.1969 213.633C92.1969 214.742 92.3844 215.583 92.7594 216.156C93.1344 216.724 93.6865 217.008 94.4156 217.008C95.15 217.008 95.7047 216.724 96.0797 216.156C96.4547 215.583 96.6422 214.742 96.6422 213.633C96.6422 212.518 96.4547 211.677 96.0797 211.109C95.7047 210.542 95.15 210.258 94.4156 210.258ZM94.4156 209.039C95.6292 209.039 96.5563 209.432 97.1969 210.219C97.8427 211.005 98.1656 212.143 98.1656 213.633C98.1656 215.128 97.8453 216.268 97.2047 217.055C96.5641 217.836 95.6344 218.227 94.4156 218.227C93.2021 218.227 92.275 217.836 91.6344 217.055C90.9938 216.268 90.6734 215.128 90.6734 213.633C90.6734 212.143 90.9938 211.005 91.6344 210.219C92.275 209.432 93.2021 209.039 94.4156 209.039ZM104.408 213.602H103.932C103.093 213.602 102.46 213.75 102.033 214.047C101.611 214.339 101.4 214.776 101.4 215.359C101.4 215.885 101.559 216.294 101.877 216.586C102.195 216.878 102.635 217.023 103.197 217.023C103.989 217.023 104.611 216.75 105.064 216.203C105.518 215.651 105.747 214.891 105.752 213.922V213.602H104.408ZM107.197 213.008V218H105.752V216.703C105.445 217.224 105.057 217.609 104.588 217.859C104.124 218.104 103.559 218.227 102.893 218.227C102.002 218.227 101.291 217.977 100.76 217.477C100.228 216.971 99.9628 216.297 99.9628 215.453C99.9628 214.479 100.288 213.74 100.939 213.234C101.596 212.729 102.557 212.477 103.822 212.477H105.752V212.25C105.747 211.552 105.57 211.047 105.221 210.734C104.872 210.417 104.314 210.258 103.549 210.258C103.059 210.258 102.564 210.328 102.064 210.469C101.564 210.609 101.077 210.815 100.603 211.086V209.648C101.135 209.445 101.643 209.294 102.127 209.195C102.616 209.091 103.09 209.039 103.549 209.039C104.273 209.039 104.89 209.146 105.4 209.359C105.916 209.573 106.333 209.893 106.65 210.32C106.848 210.581 106.989 210.904 107.072 211.289C107.156 211.669 107.197 212.242 107.197 213.008ZM117.268 211.055C116.961 210.815 116.648 210.641 116.33 210.531C116.013 210.422 115.664 210.367 115.283 210.367C114.388 210.367 113.703 210.648 113.229 211.211C112.755 211.773 112.518 212.586 112.518 213.648V218H111.073V209.25H112.518V210.961C112.757 210.341 113.125 209.867 113.619 209.539C114.119 209.206 114.711 209.039 115.393 209.039C115.747 209.039 116.078 209.083 116.385 209.172C116.692 209.26 116.987 209.398 117.268 209.586V211.055ZM124.268 210.367V205.844H125.706V218H124.268V216.898C124.029 217.331 123.708 217.661 123.307 217.891C122.911 218.115 122.453 218.227 121.932 218.227C120.875 218.227 120.042 217.818 119.432 217C118.828 216.177 118.526 215.044 118.526 213.602C118.526 212.18 118.831 211.065 119.44 210.258C120.049 209.445 120.88 209.039 121.932 209.039C122.458 209.039 122.922 209.154 123.323 209.383C123.724 209.607 124.039 209.935 124.268 210.367ZM120.042 213.633C120.042 214.747 120.219 215.589 120.573 216.156C120.927 216.724 121.45 217.008 122.143 217.008C122.836 217.008 123.362 216.721 123.721 216.148C124.086 215.576 124.268 214.737 124.268 213.633C124.268 212.523 124.086 211.685 123.721 211.117C123.362 210.544 122.836 210.258 122.143 210.258C121.45 210.258 120.927 210.542 120.573 211.109C120.219 211.677 120.042 212.518 120.042 213.633Z" fill="#A866F7"/>
<defs>
<filter id="filter0_b_77_3645" x="4.95877" y="6.95877" width="496.082" height="245.082" filterUnits="userSpaceOnUse" color-interpolation-filters="sRGB">
<feFlood flood-opacity="0" result="BackgroundImageFix"/>
<feGaussianBlur in="BackgroundImageFix" stdDeviation="6.52061"/>
<feComposite in2="SourceAlpha" operator="in" result="effect1_backgroundBlur_77_3645"/>
<feBlend mode="normal" in="SourceGraphic" in2="effect1_backgroundBlur_77_3645" result="shape"/>
</filter>
<radialGradient id="paint0_radial_77_3645" cx="0" cy="0" r="1" gradientUnits="userSpaceOnUse" gradientTransform="translate(-134.655 346.067) rotate(-31.8194) scale(685.818 1294.95)">
<stop stop-opacity="0.7"/>
<stop offset="0.0001" stop-color="#F1ECEC" stop-opacity="0.96875"/>
<stop offset="1" stop-color="#5A5A5A" stop-opacity="0"/>
</radialGradient>
<linearGradient id="paint1_linear_77_3645" x1="253.936" y1="9.47117" x2="23.9689" y2="202.718" gradientUnits="userSpaceOnUse">
<stop stop-color="#212121"/>
<stop offset="1" stop-color="#8E8E8E" stop-opacity="0"/>
</linearGradient>
</defs>
</svg>
