<svg width="257" height="138" viewBox="0 0 257 138" fill="none" xmlns="http://www.w3.org/2000/svg">
<path d="M95.4831 28.4374C95.688 29.202 96.4738 29.6557 97.2384 29.4508C98.0029 29.2459 98.4567 28.4601 98.2518 27.6955C98.0469 26.931 97.2611 26.4773 96.4965 26.6821C95.732 26.887 95.2782 27.6729 95.4831 28.4374Z" fill="#043825" fill-opacity="0.4"/>
<path d="M100.157 31.1762C100.362 31.9407 101.148 32.3944 101.912 32.1896C102.677 31.9847 103.13 31.1989 102.926 30.4343C102.721 29.6698 101.935 29.216 101.17 29.4209C100.406 29.6258 99.9521 30.4116 100.157 31.1762Z" fill="#043825" fill-opacity="0.4"/>
<path d="M104.878 33.9018C105.082 34.6663 105.868 35.12 106.633 34.9152C107.397 34.7103 107.851 33.9244 107.646 33.1599C107.441 32.3953 106.656 31.9416 105.891 32.1465C105.127 32.3514 104.673 33.1372 104.878 33.9018Z" fill="#043825" fill-opacity="0.4"/>
<path d="M109.598 36.6273C109.803 37.3919 110.589 37.8456 111.354 37.6407C112.118 37.4359 112.572 36.65 112.367 35.8855C112.162 35.1209 111.376 34.6672 110.612 34.8721C109.847 35.0769 109.393 35.8628 109.598 36.6273Z" fill="#043825" fill-opacity="0.4"/>
<path d="M114.319 39.3534C114.524 40.118 115.31 40.5717 116.074 40.3668C116.839 40.162 117.293 39.3761 117.088 38.6116C116.883 37.847 116.097 37.3933 115.332 37.5982C114.568 37.803 114.114 38.5889 114.319 39.3534Z" fill="#043825" fill-opacity="0.4"/>
<path d="M119.028 42.0312C119.233 42.7957 120.019 43.2494 120.783 43.0446C121.548 42.8397 122.002 42.0538 121.797 41.2893C121.592 40.5247 120.806 40.071 120.041 40.2759C119.277 40.4807 118.823 41.2666 119.028 42.0312Z" fill="#043825" fill-opacity="0.4"/>
<path d="M123.749 44.7568C123.954 45.5213 124.739 45.975 125.504 45.7702C126.269 45.5653 126.722 44.7794 126.517 44.0149C126.313 43.2503 125.527 42.7966 124.762 43.0015C123.998 43.2063 123.544 43.9922 123.749 44.7568Z" fill="#043825" fill-opacity="0.4"/>
<path d="M128.423 47.4955C128.627 48.2601 129.413 48.7138 130.178 48.5089C130.942 48.3041 131.396 47.5182 131.191 46.7536C130.986 45.9891 130.201 45.5354 129.436 45.7402C128.671 45.9451 128.218 46.731 128.423 47.4955Z" fill="#043825" fill-opacity="0.4"/>
<path d="M133.143 50.2211C133.348 50.9856 134.134 51.4394 134.899 51.2345C135.663 51.0297 136.117 50.2438 135.912 49.4792C135.707 48.7147 134.921 48.261 134.157 48.4658C133.392 48.6707 132.938 49.4565 133.143 50.2211Z" fill="#043825" fill-opacity="0.4"/>
<path d="M137.864 52.9467C138.069 53.7112 138.855 54.1649 139.619 53.9601C140.384 53.7552 140.838 52.9694 140.633 52.2048C140.428 51.4403 139.642 50.9866 138.877 51.1914C138.113 51.3963 137.659 52.1821 137.864 52.9467Z" fill="#043825" fill-opacity="0.4"/>
<path d="M142.585 55.6728C142.79 56.4373 143.575 56.891 144.34 56.6862C145.104 56.4813 145.558 55.6954 145.353 54.9309C145.148 54.1663 144.363 53.7126 143.598 53.9175C142.834 54.1223 142.38 54.9082 142.585 55.6728Z" fill="#043825" fill-opacity="0.4"/>
<path d="M147.294 58.3505C147.499 59.115 148.284 59.5688 149.049 59.3639C149.813 59.159 150.267 58.3732 150.062 57.6086C149.857 56.8441 149.072 56.3904 148.307 56.5952C147.543 56.8001 147.089 57.5859 147.294 58.3505Z" fill="#043825" fill-opacity="0.4"/>
<path d="M92.7566 33.1586C92.9614 33.9231 93.7473 34.3769 94.5118 34.172C95.2764 33.9671 95.7301 33.1813 95.5252 32.4167C95.3204 31.6522 94.5345 31.1985 93.77 31.4033C93.0054 31.6082 92.5517 32.394 92.7566 33.1586Z" fill="#043825" fill-opacity="0.4"/>
<path d="M97.4772 35.8842C97.6821 36.6487 98.468 37.1024 99.2325 36.8976C99.9971 36.6927 100.451 35.9069 100.246 35.1423C100.041 34.3778 99.2552 33.9241 98.4907 34.1289C97.7261 34.3338 97.2724 35.1196 97.4772 35.8842Z" fill="#043825" fill-opacity="0.4"/>
<path d="M102.151 38.6229C102.356 39.3875 103.142 39.8412 103.906 39.6364C104.671 39.4315 105.125 38.6456 104.92 37.8811C104.715 37.1165 103.929 36.6628 103.164 36.8677C102.4 37.0725 101.946 37.8584 102.151 38.6229Z" fill="#043825" fill-opacity="0.4"/>
<path d="M106.872 41.3486C107.077 42.1131 107.863 42.5668 108.627 42.362C109.392 42.1571 109.845 41.3712 109.64 40.6067C109.436 39.8421 108.65 39.3884 107.885 39.5933C107.121 39.7981 106.667 40.584 106.872 41.3486Z" fill="#043825" fill-opacity="0.4"/>
<path d="M111.581 44.0268C111.786 44.7913 112.571 45.245 113.336 45.0402C114.101 44.8353 114.554 44.0494 114.349 43.2849C114.145 42.5203 113.359 42.0666 112.594 42.2715C111.83 42.4764 111.376 43.2622 111.581 44.0268Z" fill="#043825" fill-opacity="0.4"/>
<path d="M116.301 46.7524C116.506 47.5169 117.292 47.9706 118.057 47.7658C118.821 47.5609 119.275 46.775 119.07 46.0105C118.865 45.2459 118.079 44.7922 117.315 44.9971C116.55 45.2019 116.097 45.9878 116.301 46.7524Z" fill="#043825" fill-opacity="0.4"/>
<path d="M121.022 49.4779C121.227 50.2425 122.013 50.6962 122.777 50.4913C123.542 50.2865 123.996 49.5006 123.791 48.7361C123.586 47.9715 122.8 47.5178 122.036 47.7227C121.271 47.9275 120.817 48.7134 121.022 49.4779Z" fill="#043825" fill-opacity="0.4"/>
<path d="M125.745 52.2035C125.95 52.9681 126.736 53.4218 127.5 53.2169C128.265 53.0121 128.718 52.2262 128.514 51.4617C128.309 50.6971 127.523 50.2434 126.758 50.4483C125.994 50.6531 125.54 51.439 125.745 52.2035Z" fill="#043825" fill-opacity="0.4"/>
<path d="M130.417 54.9423C130.622 55.7068 131.407 56.1605 132.172 55.9557C132.937 55.7508 133.39 54.965 133.185 54.2004C132.981 53.4359 132.195 52.9822 131.43 53.187C130.666 53.3919 130.212 54.1777 130.417 54.9423Z" fill="#043825" fill-opacity="0.4"/>
<path d="M135.137 57.6679C135.342 58.4324 136.128 58.8861 136.893 58.6813C137.657 58.4764 138.111 57.6906 137.906 56.926C137.701 56.1615 136.915 55.7077 136.151 55.9126C135.386 56.1175 134.933 56.9033 135.137 57.6679Z" fill="#043825" fill-opacity="0.4"/>
<path d="M139.846 60.3456C140.051 61.1102 140.837 61.5639 141.602 61.359C142.366 61.1541 142.82 60.3683 142.615 59.6037C142.41 58.8392 141.624 58.3855 140.86 58.5903C140.095 58.7952 139.642 59.5811 139.846 60.3456Z" fill="#043825" fill-opacity="0.4"/>
<path d="M144.567 63.0717C144.772 63.8362 145.558 64.2899 146.322 64.0851C147.087 63.8802 147.541 63.0944 147.336 62.3298C147.131 61.5653 146.345 61.1116 145.581 61.3164C144.816 61.5213 144.362 62.3071 144.567 63.0717Z" fill="#043825" fill-opacity="0.4"/>
<path d="M102.882 26.455C103.086 27.2195 103.872 27.6732 104.637 27.4684C105.401 27.2635 105.855 26.4777 105.65 25.7131C105.445 24.9486 104.66 24.4949 103.895 24.6997C103.13 24.9046 102.677 25.6904 102.882 26.455Z" fill="#043825" fill-opacity="0.4"/>
<path d="M107.602 29.1806C107.807 29.9451 108.593 30.3988 109.358 30.194C110.122 29.9891 110.576 29.2033 110.371 28.4387C110.166 27.6742 109.38 27.2204 108.616 27.4253C107.851 27.6302 107.397 28.416 107.602 29.1806Z" fill="#043825" fill-opacity="0.4"/>
<path d="M112.323 31.9066C112.528 32.6712 113.314 33.1249 114.078 32.92C114.843 32.7152 115.296 31.9293 115.092 31.1648C114.887 30.4002 114.101 29.9465 113.336 30.1514C112.572 30.3562 112.118 31.1421 112.323 31.9066Z" fill="#043825" fill-opacity="0.4"/>
<path d="M117.046 34.6322C117.25 35.3968 118.036 35.8505 118.801 35.6456C119.565 35.4408 120.019 34.6549 119.814 33.8904C119.609 33.1258 118.824 32.6721 118.059 32.877C117.294 33.0818 116.841 33.8677 117.046 34.6322Z" fill="#043825" fill-opacity="0.4"/>
<path d="M121.766 37.3578C121.971 38.1224 122.757 38.5761 123.522 38.3712C124.286 38.1664 124.74 37.3805 124.535 36.616C124.33 35.8514 123.544 35.3977 122.78 35.6025C122.015 35.8074 121.561 36.5933 121.766 37.3578Z" fill="#043825" fill-opacity="0.4"/>
<path d="M126.426 40.0487C126.631 40.8133 127.417 41.267 128.182 41.0621C128.946 40.8573 129.4 40.0714 129.195 39.3069C128.99 38.5423 128.204 38.0886 127.44 38.2935C126.675 38.4983 126.222 39.2842 126.426 40.0487Z" fill="#043825" fill-opacity="0.4"/>
<path d="M131.147 42.7743C131.352 43.5389 132.138 43.9926 132.902 43.7877C133.667 43.5829 134.121 42.797 133.916 42.0325C133.711 41.2679 132.925 40.8142 132.161 41.0191C131.396 41.2239 130.942 42.0098 131.147 42.7743Z" fill="#043825" fill-opacity="0.4"/>
<path d="M135.868 45.4999C136.073 46.2645 136.859 46.7182 137.623 46.5133C138.388 46.3084 138.841 45.5226 138.637 44.758C138.432 43.9935 137.646 43.5398 136.881 43.7446C136.117 43.9495 135.663 44.7354 135.868 45.4999Z" fill="#043825" fill-opacity="0.4"/>
<path d="M140.591 48.226C140.795 48.9905 141.581 49.4443 142.346 49.2394C143.11 49.0345 143.564 48.2487 143.359 47.4841C143.154 46.7196 142.368 46.2659 141.604 46.4707C140.839 46.6756 140.386 47.4614 140.591 48.226Z" fill="#043825" fill-opacity="0.4"/>
<path d="M145.311 50.9516C145.516 51.7161 146.302 52.1698 147.066 51.965C147.831 51.7601 148.285 50.9742 148.08 50.2097C147.875 49.4452 147.089 48.9914 146.325 49.1963C145.56 49.4012 145.106 50.187 145.311 50.9516Z" fill="#043825" fill-opacity="0.4"/>
<path d="M117.776 22.4643C117.981 23.2288 118.767 23.6825 119.531 23.4777C120.296 23.2728 120.75 22.4869 120.545 21.7224C120.34 20.9578 119.554 20.5041 118.789 20.709C118.025 20.9139 117.571 21.6997 117.776 22.4643Z" fill="#043825" fill-opacity="0.4"/>
<path d="M122.448 25.203C122.653 25.9676 123.439 26.4213 124.203 26.2164C124.968 26.0116 125.421 25.2257 125.217 24.4612C125.012 23.6966 124.226 23.2429 123.461 23.4478C122.697 23.6526 122.243 24.4385 122.448 25.203Z" fill="#043825" fill-opacity="0.4"/>
<path d="M127.171 27.9286C127.375 28.6932 128.161 29.1469 128.926 28.942C129.69 28.7372 130.144 27.9513 129.939 27.1867C129.734 26.4222 128.949 25.9685 128.184 26.1733C127.419 26.3782 126.966 27.1641 127.171 27.9286Z" fill="#043825" fill-opacity="0.4"/>
<path d="M131.891 30.6542C132.096 31.4188 132.882 31.8725 133.647 31.6676C134.411 31.4627 134.865 30.6769 134.66 29.9123C134.455 29.1478 133.669 28.6941 132.905 28.8989C132.14 29.1038 131.686 29.8897 131.891 30.6542Z" fill="#043825" fill-opacity="0.4"/>
<path d="M136.612 33.3798C136.817 34.1443 137.603 34.5981 138.367 34.3932C139.132 34.1883 139.586 33.4025 139.381 32.6379C139.176 31.8734 138.39 31.4197 137.625 31.6245C136.861 31.8294 136.407 32.6153 136.612 33.3798Z" fill="#043825" fill-opacity="0.4"/>
<path d="M141.321 36.058C141.526 36.8226 142.312 37.2763 143.076 37.0714C143.841 36.8666 144.295 36.0807 144.09 35.3161C143.885 34.5516 143.099 34.0979 142.334 34.3027C141.57 34.5076 141.116 35.2935 141.321 36.058Z" fill="#043825" fill-opacity="0.4"/>
<path d="M110.329 24.4599C110.534 25.2244 111.32 25.6781 112.084 25.4733C112.849 25.2684 113.302 24.4825 113.097 23.718C112.893 22.9535 112.107 22.4997 111.342 22.7046C110.578 22.9095 110.124 23.6953 110.329 24.4599Z" fill="#043825" fill-opacity="0.4"/>
<path d="M115.05 27.1854C115.254 27.95 116.04 28.4037 116.805 28.1989C117.569 27.994 118.023 27.2081 117.818 26.4436C117.613 25.679 116.827 25.2253 116.063 25.4302C115.298 25.635 114.845 26.4209 115.05 27.1854Z" fill="#043825" fill-opacity="0.4"/>
<path d="M119.77 29.911C119.975 30.6756 120.761 31.1293 121.525 30.9244C122.29 30.7196 122.744 29.9337 122.539 29.1692C122.334 28.4046 121.548 27.9509 120.784 28.1558C120.019 28.3606 119.565 29.1465 119.77 29.911Z" fill="#043825" fill-opacity="0.4"/>
<path d="M124.444 32.6498C124.649 33.4144 125.435 33.8681 126.199 33.6632C126.964 33.4583 127.418 32.6725 127.213 31.9079C127.008 31.1434 126.222 30.6897 125.457 30.8945C124.693 31.0994 124.239 31.8853 124.444 32.6498Z" fill="#043825" fill-opacity="0.4"/>
<path d="M129.165 35.3754C129.37 36.14 130.155 36.5937 130.92 36.3888C131.685 36.1839 132.138 35.3981 131.933 34.6335C131.729 33.869 130.943 33.4153 130.178 33.6201C129.414 33.825 128.96 34.6109 129.165 35.3754Z" fill="#043825" fill-opacity="0.4"/>
<path d="M133.874 38.0531C134.079 38.8177 134.864 39.2714 135.629 39.0665C136.394 38.8617 136.847 38.0758 136.642 37.3113C136.438 36.5467 135.652 36.093 134.887 36.2979C134.123 36.5027 133.669 37.2886 133.874 38.0531Z" fill="#043825" fill-opacity="0.4"/>
<path d="M138.594 40.7787C138.799 41.5433 139.585 41.997 140.35 41.7921C141.114 41.5873 141.568 40.8014 141.363 40.0369C141.158 39.2723 140.372 38.8186 139.608 39.0234C138.843 39.2283 138.39 40.0142 138.594 40.7787Z" fill="#043825" fill-opacity="0.4"/>
<path d="M143.315 43.5048C143.52 44.2693 144.306 44.7231 145.07 44.5182C145.835 44.3133 146.289 43.5275 146.084 42.7629C145.879 41.9984 145.093 41.5447 144.329 41.7495C143.564 41.9544 143.11 42.7402 143.315 43.5048Z" fill="#043825" fill-opacity="0.4"/>
<path d="M125.175 20.4818C125.379 21.2464 126.165 21.7001 126.93 21.4952C127.694 21.2904 128.148 20.5045 127.943 19.74C127.738 18.9754 126.952 18.5217 126.188 18.7266C125.423 18.9314 124.97 19.7173 125.175 20.4818Z" fill="#043825" fill-opacity="0.4"/>
<path d="M129.895 23.2074C130.1 23.972 130.886 24.4257 131.651 24.2208C132.415 24.016 132.869 23.2301 132.664 22.4656C132.459 21.701 131.673 21.2473 130.909 21.4522C130.144 21.657 129.69 22.4429 129.895 23.2074Z" fill="#043825" fill-opacity="0.4"/>
<path d="M134.616 25.933C134.821 26.6976 135.607 27.1513 136.371 26.9464C137.136 26.7415 137.589 25.9557 137.385 25.1911C137.18 24.4266 136.394 23.9729 135.629 24.1777C134.865 24.3826 134.411 25.1685 134.616 25.933Z" fill="#043825" fill-opacity="0.4"/>
<path d="M139.339 28.6591C139.543 29.4236 140.329 29.8773 141.094 29.6725C141.858 29.4676 142.312 28.6818 142.107 27.9172C141.902 27.1527 141.117 26.699 140.352 26.9038C139.587 27.1087 139.134 27.8945 139.339 28.6591Z" fill="#043825" fill-opacity="0.4"/>
<path d="M132.622 18.4862C132.827 19.2508 133.613 19.7045 134.377 19.4996C135.142 19.2948 135.595 18.5089 135.39 17.7444C135.186 16.9798 134.4 16.5261 133.635 16.731C132.871 16.9358 132.417 17.7217 132.622 18.4862Z" fill="#043825" fill-opacity="0.4"/>
<path d="M137.342 21.2123C137.547 21.9769 138.333 22.4306 139.098 22.2257C139.862 22.0209 140.316 21.235 140.111 20.4704C139.906 19.7059 139.12 19.2522 138.356 19.457C137.591 19.6619 137.138 20.4478 137.342 21.2123Z" fill="#043825" fill-opacity="0.4"/>
<path d="M87.3054 42.601C87.5102 43.3655 88.2961 43.8192 89.0606 43.6144C89.8252 43.4095 90.2789 42.6237 90.0741 41.8591C89.8692 41.0946 89.0833 40.6409 88.3188 40.8457C87.5542 41.0506 87.1005 41.8364 87.3054 42.601Z" fill="#043825" fill-opacity="0.4"/>
<path d="M92.0261 45.3266C92.231 46.0911 93.0168 46.5448 93.7814 46.34C94.5459 46.1351 94.9996 45.3493 94.7948 44.5847C94.5899 43.8202 93.804 43.3664 93.0395 43.5713C92.2749 43.7762 91.8212 44.562 92.0261 45.3266Z" fill="#043825" fill-opacity="0.4"/>
<path d="M96.7351 48.0043C96.9399 48.7688 97.7258 49.2226 98.4903 49.0177C99.2549 48.8128 99.7086 48.027 99.5037 47.2624C99.2989 46.4979 98.513 46.0442 97.7485 46.249C96.9839 46.4539 96.5302 47.2397 96.7351 48.0043Z" fill="#043825" fill-opacity="0.4"/>
<path d="M101.456 50.7304C101.661 51.4949 102.446 51.9486 103.211 51.7438C103.976 51.5389 104.429 50.7531 104.224 49.9885C104.02 49.224 103.234 48.7702 102.469 48.9751C101.705 49.18 101.251 49.9658 101.456 50.7304Z" fill="#043825" fill-opacity="0.4"/>
<path d="M106.13 53.4687C106.334 54.2332 107.12 54.6869 107.885 54.4821C108.649 54.2772 109.103 53.4913 108.898 52.7268C108.693 51.9622 107.908 51.5085 107.143 51.7134C106.378 51.9182 105.925 52.7041 106.13 53.4687Z" fill="#043825" fill-opacity="0.4"/>
<path d="M110.85 56.1942C111.055 56.9588 111.841 57.4125 112.606 57.2077C113.37 57.0028 113.824 56.2169 113.619 55.4524C113.414 54.6878 112.628 54.2341 111.864 54.439C111.099 54.6438 110.645 55.4297 110.85 56.1942Z" fill="#043825" fill-opacity="0.4"/>
<path d="M115.571 58.9203C115.776 59.6849 116.562 60.1386 117.326 59.9337C118.091 59.7289 118.545 58.943 118.34 58.1784C118.135 57.4139 117.349 56.9602 116.584 57.165C115.82 57.3699 115.366 58.1558 115.571 58.9203Z" fill="#043825" fill-opacity="0.4"/>
<path d="M120.292 61.6459C120.497 62.4104 121.282 62.8642 122.047 62.6593C122.812 62.4544 123.265 61.6686 123.06 60.904C122.856 60.1395 122.07 59.6858 121.305 59.8906C120.541 60.0955 120.087 60.8814 120.292 61.6459Z" fill="#043825" fill-opacity="0.4"/>
<path d="M125.001 64.3236C125.206 65.0882 125.991 65.5419 126.756 65.337C127.521 65.1322 127.974 64.3463 127.769 63.5818C127.565 62.8172 126.779 62.3635 126.014 62.5684C125.25 62.7732 124.796 63.5591 125.001 64.3236Z" fill="#043825" fill-opacity="0.4"/>
<path d="M129.721 67.0497C129.926 67.8143 130.712 68.268 131.477 68.0631C132.241 67.8582 132.695 67.0724 132.49 66.3078C132.285 65.5433 131.499 65.0896 130.735 65.2944C129.97 65.4993 129.517 66.2852 129.721 67.0497Z" fill="#043825" fill-opacity="0.4"/>
<path d="M134.395 69.788C134.6 70.5525 135.386 71.0063 136.151 70.8014C136.915 70.5965 137.369 69.8107 137.164 69.0461C136.959 68.2816 136.173 67.8279 135.409 68.0327C134.644 68.2376 134.19 69.0235 134.395 69.788Z" fill="#043825" fill-opacity="0.4"/>
<path d="M139.116 72.5136C139.321 73.2781 140.107 73.7318 140.871 73.527C141.636 73.3221 142.089 72.5363 141.885 71.7717C141.68 71.0072 140.894 70.5534 140.129 70.7583C139.365 70.9632 138.911 71.749 139.116 72.5136Z" fill="#043825" fill-opacity="0.4"/>
<path d="M84.5808 47.3217C84.7856 48.0862 85.5715 48.54 86.336 48.3351C87.1006 48.1302 87.5543 47.3444 87.3495 46.5798C87.1446 45.8153 86.3587 45.3616 85.5942 45.5664C84.8296 45.7713 84.3759 46.5571 84.5808 47.3217Z" fill="#043825" fill-opacity="0.4"/>
<path d="M89.2878 49.9999C89.4927 50.7645 90.2785 51.2182 91.0431 51.0133C91.8076 50.8084 92.2613 50.0226 92.0565 49.258C91.8516 48.4935 91.0657 48.0398 90.3012 48.2446C89.5367 48.4495 89.0829 49.2354 89.2878 49.9999Z" fill="#043825" fill-opacity="0.4"/>
<path d="M94.0085 52.7255C94.2134 53.4901 94.9992 53.9438 95.7638 53.7389C96.5283 53.534 96.982 52.7482 96.7772 51.9836C96.5723 51.2191 95.7865 50.7654 95.0219 50.9702C94.2574 51.1751 93.8037 51.961 94.0085 52.7255Z" fill="#043825" fill-opacity="0.4"/>
<path d="M98.7312 55.4511C98.936 56.2156 99.7219 56.6693 100.486 56.4645C101.251 56.2596 101.705 55.4738 101.5 54.7092C101.295 53.9447 100.509 53.4909 99.7446 53.6958C98.98 53.9007 98.5263 54.6865 98.7312 55.4511Z" fill="#043825" fill-opacity="0.4"/>
<path d="M103.452 58.1772C103.657 58.9417 104.443 59.3954 105.207 59.1906C105.972 58.9857 106.425 58.1998 106.221 57.4353C106.016 56.6707 105.23 56.217 104.465 56.4219C103.701 56.6267 103.247 57.4126 103.452 58.1772Z" fill="#043825" fill-opacity="0.4"/>
<path d="M108.126 60.9154C108.331 61.68 109.116 62.1337 109.881 61.9288C110.646 61.724 111.099 60.9381 110.894 60.1736C110.69 59.409 109.904 58.9553 109.139 59.1602C108.375 59.365 107.921 60.1509 108.126 60.9154Z" fill="#043825" fill-opacity="0.4"/>
<path d="M112.846 63.641C113.051 64.4056 113.837 64.8593 114.602 64.6544C115.366 64.4496 115.82 63.6637 115.615 62.8992C115.41 62.1346 114.624 61.6809 113.86 61.8858C113.095 62.0906 112.642 62.8765 112.846 63.641Z" fill="#043825" fill-opacity="0.4"/>
<path d="M117.553 66.3192C117.758 67.0838 118.544 67.5375 119.309 67.3326C120.073 67.1278 120.527 66.3419 120.322 65.5774C120.117 64.8128 119.331 64.3591 118.567 64.564C117.802 64.7688 117.349 65.5547 117.553 66.3192Z" fill="#043825" fill-opacity="0.4"/>
<path d="M122.274 69.0448C122.479 69.8094 123.265 70.2631 124.029 70.0582C124.794 69.8534 125.248 69.0675 125.043 68.303C124.838 67.5384 124.052 67.0847 123.288 67.2896C122.523 67.4944 122.069 68.2803 122.274 69.0448Z" fill="#043825" fill-opacity="0.4"/>
<path d="M126.997 71.7704C127.202 72.535 127.988 72.9887 128.752 72.7838C129.517 72.579 129.97 71.7931 129.765 71.0286C129.561 70.264 128.775 69.8103 128.01 70.0151C127.246 70.22 126.792 71.0059 126.997 71.7704Z" fill="#043825" fill-opacity="0.4"/>
<path d="M131.717 74.4965C131.922 75.261 132.708 75.7147 133.473 75.5099C134.237 75.305 134.691 74.5192 134.486 73.7546C134.281 72.9901 133.495 72.5364 132.731 72.7412C131.966 72.9461 131.513 73.7319 131.717 74.4965Z" fill="#043825" fill-opacity="0.4"/>
<path d="M136.391 77.2348C136.596 77.9993 137.382 78.453 138.147 78.2482C138.911 78.0433 139.365 77.2575 139.16 76.4929C138.955 75.7284 138.169 75.2746 137.405 75.4795C136.64 75.6844 136.186 76.4702 136.391 77.2348Z" fill="#043825" fill-opacity="0.4"/>
<path d="M90.032 37.8798C90.2368 38.6443 91.0227 39.098 91.7872 38.8932C92.5518 38.6883 93.0055 37.9025 92.8006 37.1379C92.5958 36.3734 91.8099 35.9197 91.0454 36.1245C90.2808 36.3294 89.8271 37.1152 90.032 37.8798Z" fill="#043825" fill-opacity="0.4"/>
<path d="M94.7527 40.6054C94.9575 41.3699 95.7434 41.8236 96.5079 41.6188C97.2725 41.4139 97.7262 40.6281 97.5213 39.8635C97.3165 39.099 96.5306 38.6452 95.7661 38.8501C95.0015 39.055 94.5478 39.8408 94.7527 40.6054Z" fill="#043825" fill-opacity="0.4"/>
<path d="M99.4733 43.331C99.6782 44.0955 100.464 44.5492 101.229 44.3444C101.993 44.1395 102.447 43.3537 102.242 42.5891C102.037 41.8246 101.251 41.3708 100.487 41.5757C99.7222 41.7806 99.2685 42.5664 99.4733 43.331Z" fill="#043825" fill-opacity="0.4"/>
<path d="M104.134 46.0219C104.338 46.7864 105.124 47.2401 105.889 47.0353C106.653 46.8304 107.107 46.0446 106.902 45.28C106.697 44.5155 105.911 44.0618 105.147 44.2666C104.382 44.4715 103.929 45.2573 104.134 46.0219Z" fill="#043825" fill-opacity="0.4"/>
<path d="M108.854 48.7475C109.059 49.512 109.845 49.9657 110.609 49.7609C111.374 49.556 111.828 48.7702 111.623 48.0056C111.418 47.2411 110.632 46.7873 109.868 46.9922C109.103 47.1971 108.649 47.9829 108.854 48.7475Z" fill="#043825" fill-opacity="0.4"/>
<path d="M113.577 51.4735C113.782 52.2381 114.568 52.6918 115.332 52.4869C116.097 52.2821 116.55 51.4962 116.346 50.7317C116.141 49.9671 115.355 49.5134 114.59 49.7183C113.826 49.9231 113.372 50.709 113.577 51.4735Z" fill="#043825" fill-opacity="0.4"/>
<path d="M118.298 54.1991C118.502 54.9637 119.288 55.4174 120.053 55.2125C120.817 55.0077 121.271 54.2218 121.066 53.4573C120.861 52.6927 120.076 52.239 119.311 52.4439C118.546 52.6487 118.093 53.4346 118.298 54.1991Z" fill="#043825" fill-opacity="0.4"/>
<path d="M123.018 56.9247C123.223 57.6893 124.009 58.143 124.774 57.9381C125.538 57.7332 125.992 56.9474 125.787 56.1828C125.582 55.4183 124.796 54.9646 124.032 55.1694C123.267 55.3743 122.813 56.1602 123.018 56.9247Z" fill="#043825" fill-opacity="0.4"/>
<path d="M127.739 59.6503C127.944 60.4148 128.73 60.8686 129.494 60.6637C130.259 60.4588 130.713 59.673 130.508 58.9084C130.303 58.1439 129.517 57.6902 128.752 57.895C127.988 58.0999 127.534 58.8857 127.739 59.6503Z" fill="#043825" fill-opacity="0.4"/>
<path d="M132.399 62.3412C132.604 63.1058 133.39 63.5595 134.154 63.3546C134.919 63.1498 135.373 62.3639 135.168 61.5993C134.963 60.8348 134.177 60.3811 133.413 60.5859C132.648 60.7908 132.194 61.5767 132.399 62.3412Z" fill="#043825" fill-opacity="0.4"/>
<path d="M137.122 65.0668C137.327 65.8313 138.113 66.2851 138.877 66.0802C139.642 65.8753 140.095 65.0895 139.89 64.3249C139.686 63.5604 138.9 63.1067 138.135 63.3115C137.371 63.5164 136.917 64.3022 137.122 65.0668Z" fill="#043825" fill-opacity="0.4"/>
<path d="M141.842 67.7924C142.047 68.5569 142.833 69.0107 143.598 68.8058C144.362 68.6009 144.816 67.8151 144.611 67.0505C144.406 66.286 143.62 65.8323 142.856 66.0371C142.091 66.242 141.638 67.0279 141.842 67.7924Z" fill="#043825" fill-opacity="0.4"/>
<path d="M76.4382 61.4247C76.6431 62.1893 77.4289 62.643 78.1935 62.4381C78.958 62.2332 79.4117 61.4474 79.2069 60.6828C79.002 59.9183 78.2162 59.4646 77.4516 59.6694C76.6871 59.8743 76.2333 60.6602 76.4382 61.4247Z" fill="#043825" fill-opacity="0.4"/>
<path d="M81.112 64.163C81.3169 64.9275 82.1028 65.3813 82.8673 65.1764C83.6319 64.9715 84.0856 64.1857 83.8807 63.4211C83.6758 62.6566 82.89 62.2029 82.1254 62.4077C81.3609 62.6126 80.9072 63.3984 81.112 64.163Z" fill="#043825" fill-opacity="0.4"/>
<path d="M85.8327 66.8886C86.0376 67.6531 86.8234 68.1068 87.588 67.902C88.3525 67.6971 88.8063 66.9113 88.6014 66.1467C88.3965 65.3822 87.6107 64.9284 86.8461 65.1333C86.0816 65.3382 85.6279 66.124 85.8327 66.8886Z" fill="#043825" fill-opacity="0.4"/>
<path d="M90.5534 69.6146C90.7583 70.3792 91.5442 70.8329 92.3087 70.6281C93.0732 70.4232 93.527 69.6373 93.3221 68.8728C93.1172 68.1082 92.3314 67.6545 91.5668 67.8594C90.8023 68.0642 90.3486 68.8501 90.5534 69.6146Z" fill="#043825" fill-opacity="0.4"/>
<path d="M95.2624 72.2924C95.4673 73.0569 96.2531 73.5106 97.0177 73.3058C97.7822 73.1009 98.2359 72.3151 98.0311 71.5505C97.8262 70.786 97.0404 70.3323 96.2758 70.5371C95.5113 70.742 95.0575 71.5278 95.2624 72.2924Z" fill="#043825" fill-opacity="0.4"/>
<path d="M109.425 80.4696C109.629 81.2342 110.415 81.6879 111.18 81.483C111.944 81.2782 112.398 80.4923 112.193 79.7278C111.988 78.9632 111.202 78.5095 110.438 78.7144C109.673 78.9192 109.22 79.7051 109.425 80.4696Z" fill="#043825" fill-opacity="0.4"/>
<path d="M114.098 83.2079C114.303 83.9725 115.089 84.4262 115.854 84.2213C116.618 84.0165 117.072 83.2306 116.867 82.466C116.662 81.7015 115.876 81.2478 115.112 81.4526C114.347 81.6575 113.893 82.4434 114.098 83.2079Z" fill="#043825" fill-opacity="0.4"/>
<path d="M118.819 85.934C119.024 86.6985 119.81 87.1522 120.574 86.9474C121.339 86.7425 121.793 85.9567 121.588 85.1921C121.383 84.4276 120.597 83.9739 119.832 84.1787C119.068 84.3836 118.614 85.1694 118.819 85.934Z" fill="#043825" fill-opacity="0.4"/>
<path d="M123.528 88.6117C123.733 89.3763 124.519 89.83 125.283 89.6251C126.048 89.4203 126.502 88.6344 126.297 87.8699C126.092 87.1053 125.306 86.6516 124.541 86.8565C123.777 87.0613 123.323 87.8472 123.528 88.6117Z" fill="#043825" fill-opacity="0.4"/>
<path d="M128.249 91.3373C128.454 92.1019 129.239 92.5556 130.004 92.3507C130.769 92.1458 131.222 91.36 131.017 90.5954C130.813 89.8309 130.027 89.3772 129.262 89.582C128.498 89.7869 128.044 90.5728 128.249 91.3373Z" fill="#043825" fill-opacity="0.4"/>
<path d="M73.7116 66.1454C73.9165 66.91 74.7024 67.3637 75.4669 67.1588C76.2315 66.954 76.6852 66.1681 76.4803 65.4035C76.2754 64.639 75.4896 64.1853 74.7251 64.3901C73.9605 64.595 73.5068 65.3809 73.7116 66.1454Z" fill="#043825" fill-opacity="0.4"/>
<path d="M78.4323 68.8715C78.6372 69.636 79.4231 70.0897 80.1876 69.8849C80.9522 69.68 81.4059 68.8942 81.201 68.1296C80.9961 67.3651 80.2103 66.9114 79.4458 67.1162C78.6812 67.3211 78.2275 68.1069 78.4323 68.8715Z" fill="#043825" fill-opacity="0.4"/>
<path d="M83.1062 71.6098C83.311 72.3743 84.0969 72.828 84.8614 72.6232C85.626 72.4183 86.0797 71.6325 85.8748 70.8679C85.67 70.1034 84.8841 69.6496 84.1196 69.8545C83.355 70.0594 82.9013 70.8452 83.1062 71.6098Z" fill="#043825" fill-opacity="0.4"/>
<path d="M87.8151 74.288C88.02 75.0525 88.8059 75.5062 89.5704 75.3014C90.335 75.0965 90.7887 74.3107 90.5838 73.5461C90.379 72.7816 89.5931 72.3279 88.8286 72.5327C88.064 72.7376 87.6103 73.5234 87.8151 74.288Z" fill="#043825" fill-opacity="0.4"/>
<path d="M111.421 87.9164C111.625 88.681 112.411 89.1347 113.176 88.9298C113.94 88.7249 114.394 87.9391 114.189 87.1745C113.984 86.41 113.199 85.9563 112.434 86.1611C111.669 86.366 111.216 87.1519 111.421 87.9164Z" fill="#043825" fill-opacity="0.4"/>
<path d="M116.081 90.6073C116.286 91.3719 117.071 91.8256 117.836 91.6207C118.601 91.4159 119.054 90.63 118.849 89.8655C118.645 89.1009 117.859 88.6472 117.094 88.8521C116.33 89.0569 115.876 89.8428 116.081 90.6073Z" fill="#043825" fill-opacity="0.4"/>
<path d="M120.801 93.3329C121.006 94.0975 121.792 94.5512 122.557 94.3463C123.321 94.1415 123.775 93.3556 123.57 92.591C123.365 91.8265 122.579 91.3728 121.815 91.5776C121.05 91.7825 120.597 92.5684 120.801 93.3329Z" fill="#043825" fill-opacity="0.4"/>
<path d="M125.522 96.0585C125.727 96.823 126.513 97.2768 127.277 97.0719C128.042 96.867 128.496 96.0812 128.291 95.3166C128.086 94.5521 127.3 94.0984 126.536 94.3032C125.771 94.5081 125.317 95.2939 125.522 96.0585Z" fill="#043825" fill-opacity="0.4"/>
<path d="M79.1159 56.7162C79.3208 57.4808 80.1067 57.9345 80.8712 57.7296C81.6358 57.5248 82.0895 56.7389 81.8846 55.9744C81.6797 55.2098 80.8939 54.7561 80.1294 54.9609C79.3648 55.1658 78.9111 55.9517 79.1159 56.7162Z" fill="#043825" fill-opacity="0.4"/>
<path d="M83.8366 59.4418C84.0415 60.2063 84.8274 60.6601 85.5919 60.4552C86.3565 60.2503 86.8102 59.4645 86.6053 58.6999C86.4004 57.9354 85.6146 57.4817 84.85 57.6865C84.0855 57.8914 83.6318 58.6773 83.8366 59.4418Z" fill="#043825" fill-opacity="0.4"/>
<path d="M88.5573 62.1679C88.7622 62.9324 89.5481 63.3861 90.3126 63.1813C91.0772 62.9764 91.5309 62.1906 91.326 61.426C91.1211 60.6615 90.3353 60.2077 89.5707 60.4126C88.8062 60.6175 88.3525 61.4033 88.5573 62.1679Z" fill="#043825" fill-opacity="0.4"/>
<path d="M93.278 64.8935C93.4829 65.658 94.2687 66.1117 95.0333 65.9069C95.7978 65.702 96.2516 64.9161 96.0467 64.1516C95.8419 63.387 95.056 62.9333 94.2914 63.1382C93.5269 63.3431 93.0732 64.1289 93.278 64.8935Z" fill="#043825" fill-opacity="0.4"/>
<path d="M98.0007 67.619C98.2056 68.3836 98.9914 68.8373 99.756 68.6324C100.521 68.4276 100.974 67.6417 100.769 66.8772C100.565 66.1126 99.7787 65.6589 99.0141 65.8638C98.2496 66.0686 97.7958 66.8545 98.0007 67.619Z" fill="#043825" fill-opacity="0.4"/>
<path d="M102.708 70.2973C102.913 71.0618 103.698 71.5155 104.463 71.3107C105.228 71.1058 105.681 70.32 105.476 69.5554C105.272 68.7909 104.486 68.3371 103.721 68.542C102.957 68.7469 102.503 69.5327 102.708 70.2973Z" fill="#043825" fill-opacity="0.4"/>
<path d="M107.428 73.0229C107.633 73.7874 108.419 74.2411 109.184 74.0363C109.948 73.8314 110.402 73.0455 110.197 72.281C109.992 71.5164 109.206 71.0627 108.442 71.2676C107.677 71.4724 107.224 72.2583 107.428 73.0229Z" fill="#043825" fill-opacity="0.4"/>
<path d="M112.102 75.7611C112.307 76.5257 113.093 76.9794 113.858 76.7745C114.622 76.5697 115.076 75.7838 114.871 75.0193C114.666 74.2547 113.88 73.801 113.116 74.0059C112.351 74.2107 111.897 74.9966 112.102 75.7611Z" fill="#043825" fill-opacity="0.4"/>
<path d="M116.823 78.4872C117.028 79.2518 117.814 79.7055 118.578 79.5006C119.343 79.2957 119.796 78.5099 119.592 77.7453C119.387 76.9808 118.601 76.5271 117.836 76.7319C117.072 76.9368 116.618 77.7227 116.823 78.4872Z" fill="#043825" fill-opacity="0.4"/>
<path d="M121.546 81.2128C121.75 81.9773 122.536 82.4311 123.301 82.2262C124.065 82.0213 124.519 81.2355 124.314 80.4709C124.109 79.7064 123.324 79.2527 122.559 79.4575C121.794 79.6624 121.341 80.4482 121.546 81.2128Z" fill="#043825" fill-opacity="0.4"/>
<path d="M126.266 83.9384C126.471 84.7029 127.257 85.1566 128.022 84.9518C128.786 84.7469 129.24 83.9611 129.035 83.1965C128.83 82.432 128.044 81.9783 127.28 82.1831C126.515 82.388 126.061 83.1738 126.266 83.9384Z" fill="#043825" fill-opacity="0.4"/>
<path d="M130.973 86.6166C131.178 87.3811 131.964 87.8349 132.729 87.63C133.493 87.4252 133.947 86.6393 133.742 85.8747C133.537 85.1102 132.751 84.6565 131.987 84.8613C131.222 85.0662 130.768 85.8521 130.973 86.6166Z" fill="#043825" fill-opacity="0.4"/>
<path d="M81.8405 51.995C82.0454 52.7596 82.8313 53.2133 83.5958 53.0084C84.3604 52.8036 84.8141 52.0177 84.6092 51.2532C84.4044 50.4886 83.6185 50.0349 82.8539 50.2398C82.0894 50.4446 81.6357 51.2305 81.8405 51.995Z" fill="#043825" fill-opacity="0.4"/>
<path d="M86.5632 54.7211C86.7681 55.4857 87.5539 55.9394 88.3185 55.7345C89.083 55.5297 89.5367 54.7438 89.3319 53.9792C89.127 53.2147 88.3412 52.761 87.5766 52.9658C86.8121 53.1707 86.3583 53.9566 86.5632 54.7211Z" fill="#043825" fill-opacity="0.4"/>
<path d="M91.2839 57.4467C91.4887 58.2112 92.2746 58.6649 93.0392 58.4601C93.8037 58.2552 94.2574 57.4694 94.0526 56.7048C93.8477 55.9403 93.0618 55.4866 92.2973 55.6914C91.5327 55.8963 91.079 56.6821 91.2839 57.4467Z" fill="#043825" fill-opacity="0.4"/>
<path d="M96.0046 60.1723C96.2095 60.9368 96.9953 61.3905 97.7599 61.1857C98.5244 60.9808 98.9781 60.195 98.7733 59.4304C98.5684 58.6659 97.7826 58.2121 97.018 58.417C96.2535 58.6219 95.7997 59.4077 96.0046 60.1723Z" fill="#043825" fill-opacity="0.4"/>
<path d="M100.725 62.8979C100.93 63.6624 101.716 64.1161 102.481 63.9113C103.245 63.7064 103.699 62.9205 103.494 62.156C103.289 61.3914 102.503 60.9377 101.739 61.1426C100.974 61.3474 100.52 62.1333 100.725 62.8979Z" fill="#043825" fill-opacity="0.4"/>
<path d="M105.446 65.6239C105.651 66.3885 106.437 66.8422 107.201 66.6373C107.966 66.4325 108.42 65.6466 108.215 64.8821C108.01 64.1175 107.224 63.6638 106.459 63.8687C105.695 64.0735 105.241 64.8594 105.446 65.6239Z" fill="#043825" fill-opacity="0.4"/>
<path d="M110.108 68.3144C110.313 69.0789 111.099 69.5326 111.863 69.3278C112.628 69.1229 113.082 68.337 112.877 67.5725C112.672 66.8079 111.886 66.3542 111.122 66.5591C110.357 66.7639 109.903 67.5498 110.108 68.3144Z" fill="#043825" fill-opacity="0.4"/>
<path d="M114.829 71.0404C115.034 71.805 115.82 72.2587 116.584 72.0538C117.349 71.849 117.802 71.0631 117.597 70.2986C117.393 69.534 116.607 69.0803 115.842 69.2852C115.078 69.49 114.624 70.2759 114.829 71.0404Z" fill="#043825" fill-opacity="0.4"/>
<path d="M119.55 73.766C119.754 74.5306 120.54 74.9843 121.305 74.7794C122.069 74.5746 122.523 73.7887 122.318 73.0242C122.113 72.2596 121.327 71.8059 120.563 72.0107C119.798 72.2156 119.345 73.0015 119.55 73.766Z" fill="#043825" fill-opacity="0.4"/>
<path d="M124.27 76.4916C124.475 77.2562 125.261 77.7099 126.025 77.505C126.79 77.3001 127.244 76.5143 127.039 75.7497C126.834 74.9852 126.048 74.5315 125.284 74.7363C124.519 74.9412 124.065 75.7271 124.27 76.4916Z" fill="#043825" fill-opacity="0.4"/>
<path d="M128.991 79.2172C129.196 79.9817 129.982 80.4355 130.746 80.2306C131.511 80.0257 131.964 79.2399 131.76 78.4753C131.555 77.7108 130.769 77.2571 130.004 77.4619C129.24 77.6668 128.786 78.4526 128.991 79.2172Z" fill="#043825" fill-opacity="0.4"/>
<path d="M133.714 81.9433C133.918 82.7078 134.704 83.1615 135.469 82.9567C136.233 82.7518 136.687 81.9659 136.482 81.2014C136.277 80.4368 135.492 79.9831 134.727 80.188C133.962 80.3929 133.509 81.1787 133.714 81.9433Z" fill="#043825" fill-opacity="0.4"/>
<path d="M68.2605 75.5878C68.4653 76.3523 69.2512 76.8061 70.0157 76.6012C70.7803 76.3963 71.234 75.6105 71.0291 74.8459C70.8243 74.0814 70.0384 73.6277 69.2739 73.8325C68.5093 74.0374 68.0556 74.8232 68.2605 75.5878Z" fill="#043825" fill-opacity="0.4"/>
<path d="M72.9695 78.2655C73.1743 79.0301 73.9602 79.4838 74.7247 79.2789C75.4892 79.0741 75.943 78.2882 75.7381 77.5237C75.5333 76.7591 74.7474 76.3054 73.9828 76.5103C73.2183 76.7151 72.7646 77.501 72.9695 78.2655Z" fill="#043825" fill-opacity="0.4"/>
<path d="M115.397 102.762C115.602 103.527 116.388 103.98 117.152 103.776C117.917 103.571 118.371 102.785 118.166 102.02C117.961 101.256 117.175 100.802 116.411 101.007C115.646 101.212 115.192 101.998 115.397 102.762Z" fill="#043825" fill-opacity="0.4"/>
<path d="M120.071 105.501C120.276 106.265 121.062 106.719 121.826 106.514C122.591 106.309 123.045 105.524 122.84 104.759C122.635 103.994 121.849 103.541 121.084 103.746C120.32 103.95 119.866 104.736 120.071 105.501Z" fill="#043825" fill-opacity="0.4"/>
<path d="M65.5222 80.2611C65.727 81.0257 66.5129 81.4794 67.2774 81.2745C68.042 81.0697 68.4957 80.2838 68.2909 79.5193C68.086 78.7547 67.3001 78.301 66.5356 78.5059C65.771 78.7107 65.3173 79.4966 65.5222 80.2611Z" fill="#043825" fill-opacity="0.4"/>
<path d="M117.393 110.209C117.598 110.973 118.384 111.427 119.149 111.222C119.913 111.017 120.367 110.232 120.162 109.467C119.957 108.702 119.171 108.249 118.407 108.454C117.642 108.658 117.188 109.444 117.393 110.209Z" fill="#043825" fill-opacity="0.4"/>
<path d="M70.987 70.8666C71.1919 71.6311 71.9777 72.0849 72.7423 71.88C73.5068 71.6751 73.9606 70.8893 73.7557 70.1247C73.5508 69.3602 72.765 68.9065 72.0004 69.1113C71.2359 69.3162 70.7822 70.1021 70.987 70.8666Z" fill="#043825" fill-opacity="0.4"/>
<path d="M75.7077 73.5922C75.9126 74.3567 76.6985 74.8104 77.463 74.6056C78.2276 74.4007 78.6813 73.6149 78.4764 72.8503C78.2715 72.0858 77.4857 71.6321 76.7211 71.8369C75.9566 72.0418 75.5029 72.8276 75.7077 73.5922Z" fill="#043825" fill-opacity="0.4"/>
<path d="M80.4148 76.2704C80.6196 77.035 81.4055 77.4887 82.17 77.2838C82.9346 77.0789 83.3883 76.2931 83.1834 75.5285C82.9786 74.764 82.1927 74.3103 81.4282 74.5151C80.6636 74.72 80.2099 75.5059 80.4148 76.2704Z" fill="#043825" fill-opacity="0.4"/>
<path d="M113.403 95.3153C113.608 96.0799 114.394 96.5336 115.158 96.3287C115.923 96.1239 116.377 95.338 116.172 94.5735C115.967 93.8089 115.181 93.3552 114.416 93.5601C113.652 93.7649 113.198 94.5508 113.403 95.3153Z" fill="#043825" fill-opacity="0.4"/>
<path d="M118.075 98.0541C118.28 98.8187 119.066 99.2724 119.83 99.0675C120.595 98.8626 121.048 98.0768 120.844 97.3122C120.639 96.5477 119.853 96.094 119.088 96.2988C118.324 96.5037 117.87 97.2896 118.075 98.0541Z" fill="#043825" fill-opacity="0.4"/>
<path d="M122.798 100.78C123.002 101.544 123.788 101.998 124.553 101.793C125.317 101.588 125.771 100.802 125.566 100.038C125.361 99.2733 124.576 98.8196 123.811 99.0244C123.046 99.2293 122.593 100.015 122.798 100.78Z" fill="#043825" fill-opacity="0.4"/>
<path d="M45.1198 119.444C45.3247 120.208 46.1105 120.662 46.8751 120.457C47.6396 120.252 48.0934 119.466 47.8885 118.702C47.6836 117.937 46.8978 117.484 46.1332 117.688C45.3687 117.893 44.915 118.679 45.1198 119.444Z" fill="#043825" fill-opacity="0.4"/>
<path d="M49.8405 122.169C50.0454 122.934 50.8313 123.388 51.5958 123.183C52.3604 122.978 52.8141 122.192 52.6092 121.427C52.4044 120.663 51.6185 120.209 50.854 120.414C50.0894 120.619 49.6357 121.405 49.8405 122.169Z" fill="#043825" fill-opacity="0.4"/>
<path d="M37.7195 121.426C37.9243 122.191 38.7102 122.644 39.4747 122.44C40.2392 122.235 40.693 121.449 40.4881 120.684C40.2833 119.92 39.4974 119.466 38.7328 119.671C37.9683 119.876 37.5146 120.662 37.7195 121.426Z" fill="#043825" fill-opacity="0.4"/>
<path d="M42.3933 124.165C42.5981 124.929 43.384 125.383 44.1485 125.178C44.9131 124.973 45.3668 124.188 45.1619 123.423C44.9571 122.659 44.1712 122.205 43.4067 122.41C42.6421 122.615 42.1884 123.4 42.3933 124.165Z" fill="#043825" fill-opacity="0.4"/>
<path d="M47.114 126.891C47.3188 127.655 48.1047 128.109 48.8692 127.904C49.6338 127.699 50.0875 126.913 49.8826 126.149C49.6778 125.384 48.8919 124.93 48.1274 125.135C47.3628 125.34 46.9091 126.126 47.114 126.891Z" fill="#043825" fill-opacity="0.4"/>
<path d="M51.823 129.569C52.0278 130.333 52.8137 130.787 53.5782 130.582C54.3428 130.377 54.7965 129.591 54.5916 128.827C54.3868 128.062 53.6009 127.609 52.8364 127.813C52.0718 128.018 51.6181 128.804 51.823 129.569Z" fill="#043825" fill-opacity="0.4"/>
<path d="M22.8269 125.417C23.0317 126.181 23.8176 126.635 24.5822 126.43C25.3467 126.225 25.8004 125.44 25.5955 124.675C25.3907 123.91 24.6048 123.457 23.8403 123.662C23.0757 123.866 22.622 124.652 22.8269 125.417Z" fill="#043825" fill-opacity="0.4"/>
<path d="M27.5476 128.143C27.7524 128.908 28.5383 129.361 29.3029 129.156C30.0674 128.952 30.5211 128.166 30.3162 127.401C30.1114 126.637 29.3255 126.183 28.561 126.388C27.7964 126.593 27.3427 127.378 27.5476 128.143Z" fill="#043825" fill-opacity="0.4"/>
<path d="M32.2682 130.869C32.4731 131.633 33.259 132.087 34.0235 131.882C34.7881 131.677 35.2418 130.891 35.0369 130.127C34.8321 129.362 34.0462 128.908 33.2817 129.113C32.5171 129.318 32.0634 130.104 32.2682 130.869Z" fill="#043825" fill-opacity="0.4"/>
<path d="M36.9773 133.546C37.1821 134.311 37.968 134.765 38.7325 134.56C39.4971 134.355 39.9508 133.569 39.7459 132.804C39.5411 132.04 38.7552 131.586 37.9907 131.791C37.2261 131.996 36.7724 132.782 36.9773 133.546Z" fill="#043825" fill-opacity="0.4"/>
<path d="M41.698 136.272C41.9028 137.037 42.6887 137.491 43.4532 137.286C44.2178 137.081 44.6715 136.295 44.4666 135.53C44.2618 134.766 43.4759 134.312 42.7114 134.517C41.9468 134.722 41.4931 135.508 41.698 136.272Z" fill="#043825" fill-opacity="0.4"/>
<path d="M46.3718 139.011C46.5767 139.775 47.3625 140.229 48.127 140.024C48.8916 139.819 49.3453 139.033 49.1405 138.269C48.9356 137.504 48.1497 137.051 47.3852 137.255C46.6206 137.46 46.1669 138.246 46.3718 139.011Z" fill="#043825" fill-opacity="0.4"/>
<path d="M20.1003 130.138C20.3052 130.903 21.091 131.356 21.8556 131.152C22.6201 130.947 23.0738 130.161 22.869 129.396C22.6641 128.632 21.8782 128.178 21.1137 128.383C20.3492 128.588 19.8954 129.374 20.1003 130.138Z" fill="#043825" fill-opacity="0.4"/>
<path d="M24.821 132.864C25.0259 133.628 25.8117 134.082 26.5763 133.877C27.3408 133.672 27.7945 132.886 27.5897 132.122C27.3848 131.357 26.599 130.904 25.8344 131.108C25.0699 131.313 24.6162 132.099 24.821 132.864Z" fill="#043825" fill-opacity="0.4"/>
<path d="M29.53 135.542C29.7349 136.306 30.5207 136.76 31.2853 136.555C32.0498 136.35 32.5035 135.565 32.2987 134.8C32.0938 134.035 31.308 133.582 30.5434 133.787C29.7789 133.991 29.3251 134.777 29.53 135.542Z" fill="#043825" fill-opacity="0.4"/>
<path d="M34.2507 138.267C34.4555 139.032 35.2414 139.486 36.006 139.281C36.7705 139.076 37.2242 138.29 37.0194 137.526C36.8145 136.761 36.0286 136.307 35.2641 136.512C34.4995 136.717 34.0458 137.503 34.2507 138.267Z" fill="#043825" fill-opacity="0.4"/>
<path d="M30.2741 123.422C30.479 124.186 31.2648 124.64 32.0294 124.435C32.7939 124.23 33.2477 123.444 33.0428 122.68C32.8379 121.915 32.0521 121.462 31.2875 121.667C30.523 121.871 30.0692 122.657 30.2741 123.422Z" fill="#043825" fill-opacity="0.4"/>
<path d="M34.9948 126.147C35.1997 126.912 35.9855 127.366 36.7501 127.161C37.5146 126.956 37.9684 126.17 37.7635 125.405C37.5586 124.641 36.7728 124.187 36.0082 124.392C35.2437 124.597 34.79 125.383 34.9948 126.147Z" fill="#043825" fill-opacity="0.4"/>
<path d="M39.7155 128.873C39.9204 129.637 40.7062 130.091 41.4708 129.886C42.2353 129.681 42.6891 128.896 42.4842 128.131C42.2794 127.367 41.4935 126.913 40.7289 127.118C39.9644 127.323 39.5107 128.108 39.7155 128.873Z" fill="#043825" fill-opacity="0.4"/>
<path d="M44.3757 131.564C44.5806 132.328 45.3664 132.782 46.131 132.577C46.8955 132.372 47.3492 131.587 47.1444 130.822C46.9395 130.057 46.1536 129.604 45.3891 129.809C44.6245 130.013 44.1708 130.799 44.3757 131.564Z" fill="#043825" fill-opacity="0.4"/>
<path d="M49.0964 134.289C49.3013 135.054 50.0871 135.508 50.8517 135.303C51.6162 135.098 52.0699 134.312 51.8651 133.548C51.6602 132.783 50.8743 132.329 50.1098 132.534C49.3452 132.739 48.8915 133.525 49.0964 134.289Z" fill="#043825" fill-opacity="0.4"/>
<path d="M53.8191 137.016C54.0239 137.78 54.8098 138.234 55.5743 138.029C56.3389 137.824 56.7926 137.038 56.5877 136.274C56.3829 135.509 55.597 135.055 54.8325 135.26C54.0679 135.465 53.6142 136.251 53.8191 137.016Z" fill="#043825" fill-opacity="0.4"/>
<path d="M14.6843 139.52C14.8892 140.284 15.675 140.738 16.4395 140.533C17.2041 140.328 17.6578 139.543 17.453 138.778C17.2481 138.014 16.4622 137.56 15.6977 137.765C14.9331 137.97 14.4794 138.755 14.6843 139.52Z" fill="#043825" fill-opacity="0.4"/>
<path d="M17.4226 134.847C17.6274 135.611 18.4133 136.065 19.1779 135.86C19.9424 135.655 20.3961 134.869 20.1912 134.105C19.9864 133.34 19.2005 132.886 18.436 133.091C17.6714 133.296 17.2177 134.082 17.4226 134.847Z" fill="#043825" fill-opacity="0.4"/>
<path d="M22.0827 137.537C22.2876 138.302 23.0734 138.755 23.838 138.55C24.6025 138.346 25.0563 137.56 24.8514 136.795C24.6465 136.031 23.8607 135.577 23.0961 135.782C22.3316 135.987 21.8779 136.772 22.0827 137.537Z" fill="#043825" fill-opacity="0.4"/>
<path d="M1.91476 61.6947C2.11962 62.4593 2.90549 62.913 3.67004 62.7081C4.43459 62.5033 4.88829 61.7174 4.68343 60.9529C4.47857 60.1883 3.69273 59.7346 2.92818 59.9395C2.16363 60.1443 1.7099 60.9302 1.91476 61.6947Z" fill="#4FBFA3" fill-opacity="0.3"/>
<path d="M-0.762971 66.4032C-0.558111 67.1678 0.227764 67.6215 0.992312 67.4166C1.75686 67.2118 2.21056 66.4259 2.0057 65.6614C1.80084 64.8968 1.01499 64.4431 0.250446 64.648C-0.514102 64.8528 -0.967831 65.6387 -0.762971 66.4032Z" fill="#4FBFA3" fill-opacity="0.3"/>
<path d="M3.91086 69.1415C4.11572 69.9061 4.90159 70.3598 5.66614 70.1549C6.43068 69.95 6.88439 69.1642 6.67952 68.3996C6.47466 67.6351 5.68882 67.1814 4.92427 67.3862C4.15973 67.5911 3.706 68.377 3.91086 69.1415Z" fill="#4FBFA3" fill-opacity="0.3"/>
<path d="M0.488986 85.9701C0.693846 86.7347 1.47972 87.1884 2.24427 86.9835C3.00881 86.7787 3.46251 85.9928 3.25765 85.2283C3.05279 84.4637 2.26695 84.01 1.5024 84.2148C0.737851 84.4197 0.284126 85.2056 0.488986 85.9701Z" fill="#4FBFA3" fill-opacity="0.3"/>
<path d="M-2.23758 90.6908C-2.03272 91.4554 -1.24688 91.9091 -0.48233 91.7042C0.282218 91.4994 0.735948 90.7135 0.531087 89.949C0.326227 89.1844 -0.459644 88.7307 -1.22419 88.9356C-1.98874 89.1404 -2.44244 89.9263 -2.23758 90.6908Z" fill="#4FBFA3" fill-opacity="0.3"/>
<path d="M-1.49344 78.5707C-1.28858 79.3353 -0.502705 79.789 0.261844 79.5841C1.02639 79.3793 1.48009 78.5934 1.27523 77.8289C1.07037 77.0643 0.284526 76.6106 -0.480023 76.8154C-1.24457 77.0203 -1.6983 77.8062 -1.49344 78.5707Z" fill="#4FBFA3" fill-opacity="0.3"/>
<path d="M3.21554 81.2489C3.4204 82.0135 4.20628 82.4672 4.97082 82.2623C5.73537 82.0575 6.18907 81.2716 5.98421 80.5071C5.77935 79.7425 4.99351 79.2888 4.22896 79.4937C3.46441 79.6985 3.01068 80.4844 3.21554 81.2489Z" fill="#4FBFA3" fill-opacity="0.3"/>
<path d="M1.23312 73.85C1.43798 74.6145 2.22385 75.0683 2.9884 74.8634C3.75295 74.6585 4.20665 73.8727 4.00179 73.1081C3.79693 72.3436 3.01109 71.8899 2.24654 72.0947C1.48199 72.2996 1.02826 73.0855 1.23312 73.85Z" fill="#4FBFA3" fill-opacity="0.3"/>
<path d="M5.905 76.5883C6.10986 77.3528 6.89573 77.8066 7.66028 77.6017C8.42483 77.3968 8.87853 76.611 8.67367 75.8464C8.46881 75.0819 7.68296 74.6282 6.91841 74.833C6.15387 75.0379 5.70014 75.8237 5.905 76.5883Z" fill="#4FBFA3" fill-opacity="0.3"/>
<path d="M78.9792 52.9657C79.1841 53.7303 79.9699 54.184 80.7345 53.9791C81.499 53.7743 81.9527 52.9884 81.7479 52.2239C81.543 51.4593 80.7572 51.0056 79.9926 51.2105C79.2281 51.4153 78.7744 52.2012 78.9792 52.9657Z" fill="#4FBFA3" fill-opacity="0.3"/>
<path d="M71.5319 54.9608C71.7368 55.7254 72.5227 56.1791 73.2872 55.9743C74.0518 55.7694 74.5055 54.9835 74.3006 54.219C74.0958 53.4544 73.3099 53.0007 72.5453 53.2056C71.7808 53.4104 71.3271 54.1963 71.5319 54.9608Z" fill="#4FBFA3" fill-opacity="0.3"/>
<path d="M76.2527 57.6869C76.4575 58.4515 77.2434 58.9052 78.0079 58.7003C78.7725 58.4955 79.2262 57.7096 79.0213 56.9451C78.8165 56.1805 78.0306 55.7268 77.266 55.9317C76.5015 56.1365 76.0478 56.9224 76.2527 57.6869Z" fill="#4FBFA3" fill-opacity="0.3"/>
<path d="M80.9753 60.4125C81.1802 61.1771 81.966 61.6308 82.7306 61.4259C83.4951 61.221 83.9488 60.4352 83.744 59.6706C83.5391 58.9061 82.7533 58.4524 81.9887 58.6572C81.2242 58.8621 80.7704 59.648 80.9753 60.4125Z" fill="#4FBFA3" fill-opacity="0.3"/>
<path d="M58.6823 66.3856C58.8872 67.1502 59.6731 67.6039 60.4376 67.399C61.2022 67.1942 61.6559 66.4083 61.451 65.6438C61.2461 64.8792 60.4603 64.4255 59.6958 64.6304C58.9312 64.8352 58.4775 65.6211 58.6823 66.3856Z" fill="#4FBFA3" fill-opacity="0.3"/>
<path d="M63.3894 69.0639C63.5942 69.8284 64.3801 70.2821 65.1447 70.0773C65.9092 69.8724 66.3629 69.0866 66.158 68.322C65.9532 67.5575 65.1673 67.1037 64.4028 67.3086C63.6382 67.5135 63.1845 68.2993 63.3894 69.0639Z" fill="#4FBFA3" fill-opacity="0.3"/>
<path d="M68.0632 71.8022C68.2681 72.5667 69.0539 73.0204 69.8185 72.8156C70.583 72.6107 71.0367 71.8248 70.8319 71.0603C70.627 70.2957 69.8412 69.842 69.0766 70.0469C68.3121 70.2517 67.8583 71.0376 68.0632 71.8022Z" fill="#4FBFA3" fill-opacity="0.3"/>
<path d="M72.7839 74.5277C72.9888 75.2923 73.7746 75.746 74.5392 75.5411C75.3037 75.3363 75.7574 74.5504 75.5526 73.7859C75.3477 73.0213 74.5619 72.5676 73.7973 72.7725C73.0328 72.9773 72.579 73.7632 72.7839 74.5277Z" fill="#4FBFA3" fill-opacity="0.3"/>
<path d="M77.5065 77.2538C77.7114 78.0184 78.4973 78.4721 79.2618 78.2672C80.0264 78.0624 80.4801 77.2765 80.2752 76.5119C80.0704 75.7474 79.2845 75.2937 78.5199 75.4985C77.7554 75.7034 77.3017 76.4893 77.5065 77.2538Z" fill="#4FBFA3" fill-opacity="0.3"/>
<path d="M55.9441 71.059C56.1489 71.8235 56.9348 72.2773 57.6993 72.0724C58.4639 71.8675 58.9176 71.0817 58.7127 70.3171C58.5079 69.5526 57.722 69.0989 56.9574 69.3037C56.1929 69.5086 55.7392 70.2944 55.9441 71.059Z" fill="#4FBFA3" fill-opacity="0.3"/>
<path d="M60.6648 73.7846C60.8696 74.5491 61.6555 75.0028 62.42 74.798C63.1846 74.5931 63.6383 73.8073 63.4334 73.0427C63.2286 72.2782 62.4427 71.8244 61.6782 72.0293C60.9136 72.2342 60.4599 73.02 60.6648 73.7846Z" fill="#4FBFA3" fill-opacity="0.3"/>
<path d="M70.0593 79.2489C70.2642 80.0135 71.05 80.4672 71.8146 80.2623C72.5791 80.0575 73.0328 79.2716 72.828 78.5071C72.6231 77.7425 71.8373 77.2888 71.0727 77.4937C70.3082 77.6985 69.8544 78.4844 70.0593 79.2489Z" fill="#4FBFA3" fill-opacity="0.3"/>
<path d="M74.78 81.9745C74.9849 82.7391 75.7707 83.1928 76.5353 82.9879C77.2998 82.7831 77.7535 81.9972 77.5487 81.2327C77.3438 80.4681 76.558 80.0144 75.7934 80.2192C75.0289 80.4241 74.5751 81.21 74.78 81.9745Z" fill="#4FBFA3" fill-opacity="0.3"/>
<path d="M61.407 61.6649C61.6118 62.4295 62.3977 62.8832 63.1622 62.6783C63.9268 62.4735 64.3805 61.6876 64.1756 60.9231C63.9708 60.1585 63.1849 59.7048 62.4204 59.9097C61.6558 60.1145 61.2021 60.9004 61.407 61.6649Z" fill="#4FBFA3" fill-opacity="0.3"/>
<path d="M66.0808 64.4032C66.2856 65.1678 67.0715 65.6215 67.8361 65.4166C68.6006 65.2118 69.0543 64.4259 68.8494 63.6614C68.6446 62.8968 67.8587 62.4431 67.0942 62.648C66.3296 62.8528 65.8759 63.6387 66.0808 64.4032Z" fill="#4FBFA3" fill-opacity="0.3"/>
<path d="M70.7898 67.081C70.9946 67.8455 71.7805 68.2992 72.545 68.0944C73.3096 67.8895 73.7633 67.1036 73.5584 66.3391C73.3536 65.5745 72.5677 65.1208 71.8032 65.3257C71.0386 65.5305 70.5849 66.3164 70.7898 67.081Z" fill="#4FBFA3" fill-opacity="0.3"/>
<path d="M75.5104 69.807C75.7153 70.5716 76.5012 71.0253 77.2657 70.8204C78.0303 70.6156 78.484 69.8297 78.2791 69.0652C78.0743 68.3006 77.2884 67.8469 76.5239 68.0518C75.7593 68.2566 75.3056 69.0425 75.5104 69.807Z" fill="#4FBFA3" fill-opacity="0.3"/>
<path d="M80.2312 72.5326C80.436 73.2972 81.2219 73.7509 81.9864 73.546C82.751 73.3412 83.2047 72.5553 82.9998 71.7908C82.795 71.0262 82.0091 70.5725 81.2446 70.7774C80.48 70.9822 80.0263 71.7681 80.2312 72.5326Z" fill="#4FBFA3" fill-opacity="0.3"/>
<path d="M64.0866 56.9564C64.2915 57.721 65.0774 58.1747 65.8419 57.9699C66.6065 57.765 67.0602 56.9791 66.8553 56.2146C66.6504 55.45 65.8646 54.9963 65.1001 55.2012C64.3355 55.406 63.8818 56.1919 64.0866 56.9564Z" fill="#4FBFA3" fill-opacity="0.3"/>
<path d="M68.8073 59.682C69.0122 60.4466 69.7981 60.9003 70.5626 60.6954C71.3272 60.4906 71.7809 59.7047 71.576 58.9402C71.3711 58.1756 70.5853 57.7219 69.8208 57.9268C69.0562 58.1316 68.6025 58.9175 68.8073 59.682Z" fill="#4FBFA3" fill-opacity="0.3"/>
<path d="M73.528 62.4076C73.7329 63.1722 74.5187 63.6259 75.2833 63.421C76.0478 63.2162 76.5016 62.4303 76.2967 61.6658C76.0919 60.9012 75.306 60.4475 74.5414 60.6524C73.7769 60.8572 73.3232 61.6431 73.528 62.4076Z" fill="#4FBFA3" fill-opacity="0.3"/>
<path d="M78.237 65.0858C78.4419 65.8504 79.2277 66.3041 79.9923 66.0992C80.7568 65.8944 81.2106 65.1085 81.0057 64.344C80.8008 63.5794 80.015 63.1257 79.2504 63.3306C78.4859 63.5354 78.0322 64.3213 78.237 65.0858Z" fill="#4FBFA3" fill-opacity="0.3"/>
<path d="M82.9577 67.8114C83.1626 68.576 83.9484 69.0297 84.713 68.8248C85.4775 68.62 85.9313 67.8341 85.7264 67.0696C85.5215 66.305 84.7357 65.8513 83.9711 66.0562C83.2066 66.261 82.7529 67.0469 82.9577 67.8114Z" fill="#4FBFA3" fill-opacity="0.3"/>
<path d="M53.2175 75.7802C53.4224 76.5447 54.2082 76.9984 54.9727 76.7936C55.7373 76.5887 56.191 75.8029 55.9862 75.0383C55.7813 74.2738 54.9954 73.8201 54.2309 74.0249C53.4663 74.2298 53.0126 75.0156 53.2175 75.7802Z" fill="#4FBFA3" fill-opacity="0.3"/>
<path d="M72.0554 86.6957C72.2602 87.4603 73.0461 87.914 73.8107 87.7091C74.5752 87.5042 75.0289 86.7184 74.8241 85.9538C74.6192 85.1893 73.8334 84.7356 73.0688 84.9404C72.3043 85.1453 71.8505 85.9312 72.0554 86.6957Z" fill="#4FBFA3" fill-opacity="0.3"/>
<path d="M163.44 19.1303C163.645 19.8948 164.431 20.3485 165.195 20.1437C165.96 19.9388 166.414 19.153 166.209 18.3884C166.004 17.6239 165.218 17.1701 164.454 17.375C163.689 17.5799 163.235 18.3657 163.44 19.1303Z" fill="#4FBFA3" fill-opacity="0.3"/>
<path d="M156.042 21.1127C156.247 21.8772 157.032 22.331 157.797 22.1261C158.562 21.9212 159.015 21.1354 158.81 20.3708C158.606 19.6063 157.82 19.1526 157.055 19.3574C156.291 19.5623 155.837 20.3481 156.042 21.1127Z" fill="#4FBFA3" fill-opacity="0.3"/>
<path d="M160.762 23.8388C160.967 24.6033 161.753 25.057 162.518 24.8522C163.282 24.6473 163.736 23.8615 163.531 23.0969C163.326 22.3324 162.54 21.8786 161.776 22.0835C161.011 22.2884 160.558 23.0742 160.762 23.8388Z" fill="#4FBFA3" fill-opacity="0.3"/>
<path d="M165.436 26.5771C165.641 27.3416 166.427 27.7953 167.192 27.5905C167.956 27.3856 168.41 26.5997 168.205 25.8352C168 25.0706 167.214 24.6169 166.45 24.8218C165.685 25.0266 165.231 25.8125 165.436 26.5771Z" fill="#4FBFA3" fill-opacity="0.3"/>
<path d="M143.143 32.5502C143.348 33.3147 144.134 33.7685 144.899 33.5636C145.663 33.3587 146.117 32.5729 145.912 31.8083C145.707 31.0438 144.921 30.5901 144.157 30.7949C143.392 30.9998 142.938 31.7857 143.143 32.5502Z" fill="#4FBFA3" fill-opacity="0.3"/>
<path d="M147.864 35.2763C148.069 36.0408 148.855 36.4945 149.619 36.2897C150.384 36.0848 150.838 35.299 150.633 34.5344C150.428 33.7699 149.642 33.3161 148.877 33.521C148.113 33.7259 147.659 34.5117 147.864 35.2763Z" fill="#4FBFA3" fill-opacity="0.3"/>
<path d="M152.573 37.954C152.778 38.7186 153.564 39.1723 154.328 38.9674C155.093 38.7626 155.546 37.9767 155.342 37.2121C155.137 36.4476 154.351 35.9939 153.586 36.1987C152.822 36.4036 152.368 37.1895 152.573 37.954Z" fill="#4FBFA3" fill-opacity="0.3"/>
<path d="M157.294 40.6796C157.499 41.4441 158.284 41.8979 159.049 41.693C159.813 41.4881 160.267 40.7023 160.062 39.9377C159.857 39.1732 159.072 38.7195 158.307 38.9243C157.543 39.1292 157.089 39.915 157.294 40.6796Z" fill="#4FBFA3" fill-opacity="0.3"/>
<path d="M162.014 43.4052C162.219 44.1697 163.005 44.6234 163.77 44.4186C164.534 44.2137 164.988 43.4279 164.783 42.6633C164.578 41.8988 163.792 41.4451 163.028 41.6499C162.263 41.8548 161.81 42.6406 162.014 43.4052Z" fill="#4FBFA3" fill-opacity="0.3"/>
<path d="M140.466 37.2587C140.67 38.0232 141.456 38.477 142.221 38.2721C142.985 38.0672 143.439 37.2814 143.234 36.5168C143.029 35.7523 142.243 35.2986 141.479 35.5034C140.714 35.7083 140.261 36.4941 140.466 37.2587Z" fill="#4FBFA3" fill-opacity="0.3"/>
<path d="M145.126 39.9491C145.331 40.7137 146.116 41.1674 146.881 40.9625C147.646 40.7577 148.099 39.9718 147.894 39.2073C147.69 38.4427 146.904 37.989 146.139 38.1939C145.375 38.3987 144.921 39.1846 145.126 39.9491Z" fill="#4FBFA3" fill-opacity="0.3"/>
<path d="M154.567 45.4008C154.772 46.1653 155.558 46.619 156.322 46.4142C157.087 46.2093 157.541 45.4235 157.336 44.6589C157.131 43.8944 156.345 43.4407 155.58 43.6455C154.816 43.8504 154.362 44.6362 154.567 45.4008Z" fill="#4FBFA3" fill-opacity="0.3"/>
<path d="M159.288 48.1264C159.493 48.8909 160.279 49.3446 161.043 49.1398C161.808 48.9349 162.261 48.1491 162.056 47.3845C161.852 46.62 161.066 46.1662 160.301 46.3711C159.537 46.576 159.083 47.3618 159.288 48.1264Z" fill="#4FBFA3" fill-opacity="0.3"/>
<path d="M145.868 27.8295C146.073 28.5941 146.859 29.0478 147.623 28.8429C148.388 28.6381 148.841 27.8522 148.637 27.0876C148.432 26.3231 147.646 25.8694 146.881 26.0742C146.117 26.2791 145.663 27.065 145.868 27.8295Z" fill="#4FBFA3" fill-opacity="0.3"/>
<path d="M150.591 30.5551C150.795 31.3196 151.581 31.7733 152.346 31.5685C153.11 31.3636 153.564 30.5778 153.359 29.8132C153.154 29.0487 152.368 28.595 151.604 28.7998C150.839 29.0047 150.386 29.7905 150.591 30.5551Z" fill="#4FBFA3" fill-opacity="0.3"/>
<path d="M155.311 33.2807C155.516 34.0452 156.302 34.4989 157.067 34.2941C157.831 34.0892 158.285 33.3034 158.08 32.5388C157.875 31.7743 157.089 31.3205 156.325 31.5254C155.56 31.7303 155.106 32.5161 155.311 33.2807Z" fill="#4FBFA3" fill-opacity="0.3"/>
<path d="M160.018 35.9584C160.223 36.7229 161.009 37.1767 161.774 36.9718C162.538 36.7669 162.992 35.9811 162.787 35.2165C162.582 34.452 161.796 33.9983 161.032 34.2031C160.267 34.408 159.813 35.1939 160.018 35.9584Z" fill="#4FBFA3" fill-opacity="0.3"/>
<path d="M164.741 38.6845C164.946 39.449 165.732 39.9028 166.496 39.6979C167.261 39.493 167.714 38.7072 167.51 37.9426C167.305 37.1781 166.519 36.7243 165.754 36.9292C164.99 37.1341 164.536 37.9199 164.741 38.6845Z" fill="#4FBFA3" fill-opacity="0.3"/>
<path d="M148.594 23.1083C148.799 23.8729 149.585 24.3266 150.35 24.1217C151.114 23.9168 151.568 23.131 151.363 22.3664C151.158 21.6019 150.372 21.1482 149.608 21.353C148.843 21.5579 148.39 22.3438 148.594 23.1083Z" fill="#4FBFA3" fill-opacity="0.3"/>
<path d="M153.315 25.8339C153.52 26.5985 154.306 27.0522 155.07 26.8473C155.835 26.6424 156.289 25.8566 156.084 25.092C155.879 24.3275 155.093 23.8738 154.329 24.0786C153.564 24.2835 153.11 25.0694 153.315 25.8339Z" fill="#4FBFA3" fill-opacity="0.3"/>
<path d="M158.036 28.5595C158.241 29.324 159.027 29.7777 159.791 29.5729C160.556 29.368 161.009 28.5822 160.805 27.8176C160.6 27.0531 159.814 26.5993 159.049 26.8042C158.285 27.0091 157.831 27.7949 158.036 28.5595Z" fill="#4FBFA3" fill-opacity="0.3"/>
<path d="M162.758 31.2856C162.963 32.0501 163.749 32.5038 164.514 32.299C165.278 32.0941 165.732 31.3082 165.527 30.5437C165.322 29.7791 164.536 29.3254 163.772 29.5303C163.007 29.7351 162.554 30.521 162.758 31.2856Z" fill="#4FBFA3" fill-opacity="0.3"/>
<path d="M167.419 33.976C167.624 34.7405 168.409 35.1942 169.174 34.9894C169.938 34.7845 170.392 33.9987 170.187 33.2341C169.982 32.4696 169.197 32.0159 168.432 32.2207C167.668 32.4256 167.214 33.2114 167.419 33.976Z" fill="#4FBFA3" fill-opacity="0.3"/>
<path d="M137.727 41.932C137.932 42.6966 138.718 43.1503 139.483 42.9454C140.247 42.7406 140.701 41.9547 140.496 41.1902C140.291 40.4256 139.505 39.9719 138.741 40.1768C137.976 40.3816 137.522 41.1675 137.727 41.932Z" fill="#4FBFA3" fill-opacity="0.3"/>
<path d="M156.563 52.8476C156.768 53.6121 157.554 54.0658 158.318 53.861C159.083 53.6561 159.537 52.8703 159.332 52.1057C159.127 51.3412 158.341 50.8874 157.577 51.0923C156.812 51.2972 156.358 52.083 156.563 52.8476Z" fill="#4FBFA3" fill-opacity="0.3"/>
<path d="M210.315 79.119C210.52 79.8836 211.306 80.3373 212.07 80.1325C212.835 79.9276 213.289 79.1417 213.084 78.3772C212.879 77.6126 212.093 77.1589 211.329 77.3638C210.564 77.5686 210.11 78.3545 210.315 79.119Z" fill="#043825" fill-opacity="0.4"/>
<path d="M215.036 81.8451C215.241 82.6097 216.027 83.0634 216.791 82.8585C217.556 82.6537 218.009 81.8678 217.805 81.1032C217.6 80.3387 216.814 79.885 216.049 80.0898C215.285 80.2947 214.831 81.0806 215.036 81.8451Z" fill="#043825" fill-opacity="0.4"/>
<path d="M202.915 81.102C203.12 81.8665 203.905 82.3202 204.67 82.1154C205.435 81.9105 205.888 81.1246 205.683 80.3601C205.479 79.5955 204.693 79.1418 203.928 79.3467C203.164 79.5515 202.71 80.3374 202.915 81.102Z" fill="#043825" fill-opacity="0.4"/>
<path d="M207.637 83.8275C207.842 84.5921 208.628 85.0458 209.393 84.8409C210.157 84.6361 210.611 83.8502 210.406 83.0857C210.201 82.3211 209.415 81.8674 208.651 82.0723C207.886 82.2771 207.433 83.063 207.637 83.8275Z" fill="#043825" fill-opacity="0.4"/>
<path d="M212.309 86.5658C212.514 87.3304 213.3 87.7841 214.065 87.5792C214.829 87.3744 215.283 86.5885 215.078 85.824C214.873 85.0594 214.087 84.6057 213.323 84.8105C212.558 85.0154 212.104 85.8013 212.309 86.5658Z" fill="#043825" fill-opacity="0.4"/>
<path d="M217.03 89.2919C217.235 90.0564 218.021 90.5102 218.785 90.3053C219.55 90.1004 220.004 89.3146 219.799 88.55C219.594 87.7855 218.808 87.3318 218.043 87.5366C217.279 87.7415 216.825 88.5273 217.03 89.2919Z" fill="#043825" fill-opacity="0.4"/>
<path d="M188.022 85.0927C188.227 85.8572 189.013 86.3109 189.777 86.1061C190.542 85.9012 190.996 85.1154 190.791 84.3508C190.586 83.5863 189.8 83.1325 189.036 83.3374C188.271 83.5423 187.817 84.3281 188.022 85.0927Z" fill="#043825" fill-opacity="0.4"/>
<path d="M192.743 87.8183C192.948 88.5828 193.734 89.0365 194.498 88.8317C195.263 88.6268 195.716 87.8409 195.512 87.0764C195.307 86.3118 194.521 85.8581 193.756 86.063C192.992 86.2678 192.538 87.0537 192.743 87.8183Z" fill="#043825" fill-opacity="0.4"/>
<path d="M197.464 90.5438C197.668 91.3084 198.454 91.7621 199.219 91.5573C199.983 91.3524 200.437 90.5665 200.232 89.802C200.027 89.0374 199.242 88.5837 198.477 88.7886C197.712 88.9934 197.259 89.7793 197.464 90.5438Z" fill="#043825" fill-opacity="0.4"/>
<path d="M202.184 93.2694C202.389 94.034 203.175 94.4877 203.94 94.2828C204.704 94.078 205.158 93.2921 204.953 92.5276C204.748 91.763 203.962 91.3093 203.198 91.5142C202.433 91.719 201.979 92.5049 202.184 93.2694Z" fill="#043825" fill-opacity="0.4"/>
<path d="M206.893 95.9476C207.098 96.7122 207.884 97.1659 208.649 96.9611C209.413 96.7562 209.867 95.9703 209.662 95.2058C209.457 94.4412 208.671 93.9875 207.907 94.1924C207.142 94.3972 206.688 95.1831 206.893 95.9476Z" fill="#043825" fill-opacity="0.4"/>
<path d="M211.614 98.6732C211.819 99.4378 212.605 99.8915 213.369 99.6866C214.134 99.4818 214.588 98.6959 214.383 97.9314C214.178 97.1668 213.392 96.7131 212.627 96.918C211.863 97.1228 211.409 97.9087 211.614 98.6732Z" fill="#043825" fill-opacity="0.4"/>
<path d="M216.288 101.412C216.493 102.176 217.279 102.63 218.043 102.425C218.808 102.22 219.261 101.434 219.056 100.67C218.852 99.9051 218.066 99.4514 217.301 99.6562C216.537 99.8611 216.083 100.647 216.288 101.412Z" fill="#043825" fill-opacity="0.4"/>
<path d="M221.009 104.138C221.213 104.902 221.999 105.356 222.764 105.151C223.528 104.946 223.982 104.16 223.777 103.396C223.572 102.631 222.786 102.177 222.022 102.382C221.257 102.587 220.804 103.373 221.009 104.138Z" fill="#043825" fill-opacity="0.4"/>
<path d="M185.344 89.8007C185.549 90.5652 186.335 91.0189 187.1 90.8141C187.864 90.6092 188.318 89.8234 188.113 89.0588C187.908 88.2943 187.122 87.8406 186.358 88.0454C185.593 88.2503 185.14 89.0361 185.344 89.8007Z" fill="#043825" fill-opacity="0.4"/>
<path d="M190.016 92.5394C190.221 93.304 191.007 93.7577 191.772 93.5529C192.536 93.348 192.99 92.5621 192.785 91.7976C192.58 91.033 191.794 90.5793 191.03 90.7842C190.265 90.989 189.811 91.7749 190.016 92.5394Z" fill="#043825" fill-opacity="0.4"/>
<path d="M194.739 95.265C194.944 96.0296 195.73 96.4833 196.494 96.2784C197.259 96.0736 197.713 95.2877 197.508 94.5232C197.303 93.7586 196.517 93.3049 195.752 93.5098C194.988 93.7146 194.534 94.5005 194.739 95.265Z" fill="#043825" fill-opacity="0.4"/>
<path d="M199.446 97.9428C199.651 98.7073 200.437 99.161 201.201 98.9562C201.966 98.7513 202.42 97.9655 202.215 97.2009C202.01 96.4364 201.224 95.9826 200.459 96.1875C199.695 96.3924 199.241 97.1782 199.446 97.9428Z" fill="#043825" fill-opacity="0.4"/>
<path d="M204.167 100.669C204.372 101.433 205.157 101.887 205.922 101.682C206.687 101.477 207.14 100.692 206.935 99.927C206.731 99.1624 205.945 98.7087 205.18 98.9136C204.416 99.1184 203.962 99.9043 204.167 100.669Z" fill="#043825" fill-opacity="0.4"/>
<path d="M208.889 103.394C209.094 104.159 209.88 104.613 210.645 104.408C211.409 104.203 211.863 103.417 211.658 102.653C211.453 101.888 210.667 101.434 209.903 101.639C209.138 101.844 208.685 102.63 208.889 103.394Z" fill="#043825" fill-opacity="0.4"/>
<path d="M213.61 106.12C213.815 106.885 214.601 107.338 215.365 107.133C216.13 106.929 216.584 106.143 216.379 105.378C216.174 104.614 215.388 104.16 214.623 104.365C213.859 104.57 213.405 105.355 213.61 106.12Z" fill="#043825" fill-opacity="0.4"/>
<path d="M218.284 108.859C218.489 109.623 219.275 110.077 220.039 109.872C220.804 109.667 221.257 108.881 221.053 108.117C220.848 107.352 220.062 106.899 219.297 107.104C218.533 107.308 218.079 108.094 218.284 108.859Z" fill="#043825" fill-opacity="0.4"/>
<path d="M195.469 83.0971C195.674 83.8616 196.46 84.3153 197.225 84.1105C197.989 83.9056 198.443 83.1198 198.238 82.3552C198.033 81.5907 197.247 81.1369 196.483 81.3418C195.718 81.5467 195.265 82.3325 195.469 83.0971Z" fill="#043825" fill-opacity="0.4"/>
<path d="M200.19 85.8227C200.395 86.5872 201.181 87.0409 201.945 86.8361C202.71 86.6312 203.164 85.8453 202.959 85.0808C202.754 84.3162 201.968 83.8625 201.204 84.0674C200.439 84.2722 199.985 85.0581 200.19 85.8227Z" fill="#043825" fill-opacity="0.4"/>
<path d="M204.911 88.5487C205.116 89.3133 205.902 89.767 206.666 89.5621C207.431 89.3573 207.884 88.5714 207.68 87.8069C207.475 87.0423 206.689 86.5886 205.924 86.7935C205.16 86.9983 204.706 87.7842 204.911 88.5487Z" fill="#043825" fill-opacity="0.4"/>
<path d="M209.632 91.2743C209.836 92.0389 210.622 92.4926 211.387 92.2877C212.151 92.0828 212.605 91.297 212.4 90.5324C212.195 89.7679 211.41 89.3142 210.645 89.519C209.88 89.7239 209.427 90.5098 209.632 91.2743Z" fill="#043825" fill-opacity="0.4"/>
<path d="M214.292 93.9647C214.497 94.7293 215.282 95.183 216.047 94.9782C216.812 94.7733 217.265 93.9874 217.06 93.2229C216.856 92.4583 216.07 92.0046 215.305 92.2095C214.541 92.4143 214.087 93.2002 214.292 93.9647Z" fill="#043825" fill-opacity="0.4"/>
<path d="M219.014 96.6908C219.219 97.4553 220.005 97.9091 220.77 97.7042C221.534 97.4994 221.988 96.7135 221.783 95.9489C221.578 95.1844 220.792 94.7307 220.028 94.9355C219.263 95.1404 218.81 95.9262 219.014 96.6908Z" fill="#043825" fill-opacity="0.4"/>
<path d="M177.153 103.916C177.358 104.681 178.144 105.135 178.908 104.93C179.673 104.725 180.127 103.939 179.922 103.175C179.717 102.41 178.931 101.956 178.166 102.161C177.402 102.366 176.948 103.152 177.153 103.916Z" fill="#043825" fill-opacity="0.4"/>
<path d="M181.876 106.642C182.081 107.407 182.866 107.86 183.631 107.655C184.396 107.451 184.849 106.665 184.644 105.9C184.44 105.136 183.654 104.682 182.889 104.887C182.125 105.092 181.671 105.877 181.876 106.642Z" fill="#043825" fill-opacity="0.4"/>
<path d="M186.596 109.368C186.801 110.132 187.587 110.586 188.352 110.381C189.116 110.176 189.57 109.39 189.365 108.626C189.16 107.861 188.374 107.407 187.61 107.612C186.845 107.817 186.392 108.603 186.596 109.368Z" fill="#043825" fill-opacity="0.4"/>
<path d="M191.317 112.093C191.522 112.858 192.308 113.311 193.072 113.107C193.837 112.902 194.291 112.116 194.086 111.351C193.881 110.587 193.095 110.133 192.331 110.338C191.566 110.543 191.112 111.329 191.317 112.093Z" fill="#043825" fill-opacity="0.4"/>
<path d="M195.991 114.832C196.196 115.596 196.982 116.05 197.746 115.845C198.511 115.64 198.964 114.855 198.76 114.09C198.555 113.326 197.769 112.872 197.004 113.077C196.24 113.282 195.786 114.067 195.991 114.832Z" fill="#043825" fill-opacity="0.4"/>
<path d="M200.712 117.558C200.916 118.322 201.702 118.776 202.467 118.571C203.231 118.366 203.685 117.58 203.48 116.816C203.275 116.051 202.49 115.597 201.725 115.802C200.96 116.007 200.507 116.793 200.712 117.558Z" fill="#043825" fill-opacity="0.4"/>
<path d="M205.421 120.236C205.625 121 206.411 121.454 207.176 121.249C207.94 121.044 208.394 120.258 208.189 119.494C207.984 118.729 207.199 118.276 206.434 118.48C205.669 118.685 205.216 119.471 205.421 120.236Z" fill="#043825" fill-opacity="0.4"/>
<path d="M210.141 122.961C210.346 123.726 211.132 124.18 211.897 123.975C212.661 123.77 213.115 122.984 212.91 122.219C212.705 121.455 211.919 121.001 211.155 121.206C210.39 121.411 209.936 122.197 210.141 122.961Z" fill="#043825" fill-opacity="0.4"/>
<path d="M174.428 108.637C174.633 109.402 175.419 109.855 176.184 109.651C176.948 109.446 177.402 108.66 177.197 107.895C176.992 107.131 176.206 106.677 175.442 106.882C174.677 107.087 174.224 107.873 174.428 108.637Z" fill="#043825" fill-opacity="0.4"/>
<path d="M179.149 111.363C179.354 112.128 180.14 112.581 180.904 112.377C181.669 112.172 182.123 111.386 181.918 110.621C181.713 109.857 180.927 109.403 180.163 109.608C179.398 109.813 178.944 110.599 179.149 111.363Z" fill="#043825" fill-opacity="0.4"/>
<path d="M183.87 114.089C184.075 114.853 184.861 115.307 185.625 115.102C186.39 114.897 186.843 114.111 186.639 113.347C186.434 112.582 185.648 112.129 184.883 112.333C184.119 112.538 183.665 113.324 183.87 114.089Z" fill="#043825" fill-opacity="0.4"/>
<path d="M197.973 122.231C198.178 122.995 198.964 123.449 199.729 123.244C200.493 123.039 200.947 122.254 200.742 121.489C200.537 120.724 199.751 120.271 198.987 120.476C198.222 120.68 197.769 121.466 197.973 122.231Z" fill="#043825" fill-opacity="0.4"/>
<path d="M202.694 124.956C202.899 125.721 203.685 126.175 204.449 125.97C205.214 125.765 205.668 124.979 205.463 124.215C205.258 123.45 204.472 122.996 203.707 123.201C202.943 123.406 202.489 124.192 202.694 124.956Z" fill="#043825" fill-opacity="0.4"/>
<path d="M207.415 127.682C207.62 128.447 208.405 128.901 209.17 128.696C209.935 128.491 210.388 127.705 210.183 126.941C209.979 126.176 209.193 125.722 208.428 125.927C207.664 126.132 207.21 126.918 207.415 127.682Z" fill="#043825" fill-opacity="0.4"/>
<path d="M179.893 99.2431C180.098 100.008 180.884 100.461 181.649 100.256C182.413 100.052 182.867 99.2657 182.662 98.5012C182.457 97.7366 181.671 97.2829 180.907 97.4878C180.142 97.6927 179.688 98.4785 179.893 99.2431Z" fill="#043825" fill-opacity="0.4"/>
<path d="M184.6 101.921C184.805 102.685 185.591 103.139 186.356 102.934C187.12 102.729 187.574 101.943 187.369 101.179C187.164 100.414 186.378 99.9607 185.614 100.166C184.849 100.37 184.395 101.156 184.6 101.921Z" fill="#043825" fill-opacity="0.4"/>
<path d="M189.321 104.646C189.526 105.411 190.312 105.865 191.076 105.66C191.841 105.455 192.295 104.669 192.09 103.904C191.885 103.14 191.099 102.686 190.334 102.891C189.57 103.096 189.116 103.882 189.321 104.646Z" fill="#043825" fill-opacity="0.4"/>
<path d="M193.995 107.385C194.2 108.15 194.986 108.603 195.75 108.399C196.515 108.194 196.968 107.408 196.764 106.643C196.559 105.879 195.773 105.425 195.008 105.63C194.244 105.835 193.79 106.621 193.995 107.385Z" fill="#043825" fill-opacity="0.4"/>
<path d="M198.716 110.111C198.92 110.875 199.706 111.329 200.471 111.124C201.235 110.919 201.689 110.133 201.484 109.369C201.279 108.604 200.493 108.151 199.729 108.355C198.964 108.56 198.511 109.346 198.716 110.111Z" fill="#043825" fill-opacity="0.4"/>
<path d="M203.436 112.836C203.641 113.601 204.427 114.055 205.192 113.85C205.956 113.645 206.41 112.859 206.205 112.094C206 111.33 205.214 110.876 204.45 111.081C203.685 111.286 203.231 112.072 203.436 112.836Z" fill="#043825" fill-opacity="0.4"/>
<path d="M208.159 115.562C208.364 116.327 209.15 116.781 209.914 116.576C210.679 116.371 211.132 115.585 210.928 114.821C210.723 114.056 209.937 113.602 209.172 113.807C208.408 114.012 207.954 114.798 208.159 115.562Z" fill="#043825" fill-opacity="0.4"/>
<path d="M212.866 118.24C213.071 119.005 213.857 119.458 214.621 119.254C215.386 119.049 215.839 118.263 215.635 117.498C215.43 116.734 214.644 116.28 213.879 116.485C213.115 116.69 212.661 117.476 212.866 118.24Z" fill="#043825" fill-opacity="0.4"/>
<path d="M182.618 94.5219C182.823 95.2864 183.609 95.7401 184.373 95.5353C185.138 95.3304 185.591 94.5446 185.387 93.78C185.182 93.0155 184.396 92.5617 183.631 92.7666C182.867 92.9715 182.413 93.7573 182.618 94.5219Z" fill="#043825" fill-opacity="0.4"/>
<path d="M187.339 97.2475C187.543 98.012 188.329 98.4657 189.094 98.2609C189.858 98.056 190.312 97.2701 190.107 96.5056C189.902 95.741 189.117 95.2873 188.352 95.4922C187.587 95.697 187.134 96.4829 187.339 97.2475Z" fill="#043825" fill-opacity="0.4"/>
<path d="M192.001 99.9384C192.206 100.703 192.991 101.157 193.756 100.952C194.521 100.747 194.974 99.9611 194.769 99.1965C194.565 98.432 193.779 97.9782 193.014 98.1831C192.25 98.388 191.796 99.1738 192.001 99.9384Z" fill="#043825" fill-opacity="0.4"/>
<path d="M196.721 102.664C196.926 103.428 197.712 103.882 198.477 103.677C199.241 103.473 199.695 102.687 199.49 101.922C199.285 101.158 198.499 100.704 197.735 100.909C196.97 101.114 196.517 101.899 196.721 102.664Z" fill="#043825" fill-opacity="0.4"/>
<path d="M201.442 105.39C201.647 106.154 202.433 106.608 203.197 106.403C203.962 106.198 204.416 105.412 204.211 104.648C204.006 103.883 203.22 103.429 202.456 103.634C201.691 103.839 201.237 104.625 201.442 105.39Z" fill="#043825" fill-opacity="0.4"/>
<path d="M206.163 108.116C206.368 108.88 207.154 109.334 207.918 109.129C208.683 108.924 209.136 108.138 208.931 107.374C208.727 106.609 207.941 106.155 207.176 106.36C206.412 106.565 205.958 107.351 206.163 108.116Z" fill="#043825" fill-opacity="0.4"/>
<path d="M210.884 110.841C211.088 111.606 211.874 112.059 212.639 111.855C213.403 111.65 213.857 110.864 213.652 110.099C213.447 109.335 212.661 108.881 211.897 109.086C211.132 109.291 210.679 110.077 210.884 110.841Z" fill="#043825" fill-opacity="0.4"/>
<path d="M215.604 113.567C215.809 114.331 216.595 114.785 217.359 114.58C218.124 114.375 218.578 113.589 218.373 112.825C218.168 112.06 217.382 111.607 216.618 111.812C215.853 112.016 215.399 112.802 215.604 113.567Z" fill="#043825" fill-opacity="0.4"/>
<path d="M169.024 118.067C169.229 118.831 170.015 119.285 170.779 119.08C171.544 118.875 171.998 118.089 171.793 117.325C171.588 116.56 170.802 116.107 170.038 116.312C169.273 116.516 168.819 117.302 169.024 118.067Z" fill="#043825" fill-opacity="0.4"/>
<path d="M201.964 137.124C202.168 137.889 202.954 138.343 203.719 138.138C204.483 137.933 204.937 137.147 204.732 136.383C204.527 135.618 203.742 135.164 202.977 135.369C202.212 135.574 201.759 136.36 201.964 137.124Z" fill="#043825" fill-opacity="0.4"/>
<path d="M171.702 113.358C171.907 114.123 172.693 114.577 173.457 114.372C174.222 114.167 174.675 113.381 174.471 112.616C174.266 111.852 173.48 111.398 172.715 111.603C171.951 111.808 171.497 112.594 171.702 113.358Z" fill="#043825" fill-opacity="0.4"/>
<path d="M176.425 116.084C176.629 116.848 177.415 117.302 178.18 117.097C178.944 116.892 179.398 116.107 179.193 115.342C178.988 114.577 178.202 114.124 177.438 114.329C176.673 114.533 176.22 115.319 176.425 116.084Z" fill="#043825" fill-opacity="0.4"/>
<path d="M199.967 129.678C200.172 130.442 200.958 130.896 201.723 130.691C202.487 130.486 202.941 129.7 202.736 128.936C202.531 128.171 201.745 127.718 200.981 127.922C200.216 128.127 199.763 128.913 199.967 129.678Z" fill="#043825" fill-opacity="0.4"/>
<path d="M204.69 132.403C204.895 133.168 205.681 133.621 206.445 133.417C207.21 133.212 207.664 132.426 207.459 131.661C207.254 130.897 206.468 130.443 205.704 130.648C204.939 130.853 204.485 131.639 204.69 132.403Z" fill="#043825" fill-opacity="0.4"/>
</svg>
