<svg width="39" height="32" viewBox="0 0 39 32" fill="none" xmlns="http://www.w3.org/2000/svg">
<path d="M34.5151 25.9463V30.2707C34.5151 30.7294 34.3328 31.1694 34.0084 31.4938C33.684 31.8182 33.2441 32.0004 32.7853 32.0004H30.1907C29.7319 32.0004 29.292 31.8182 28.9676 31.4938C28.6432 31.1694 28.4609 30.7294 28.4609 30.2707V25.9463H34.5151Z" fill="#47BFA3"/>
<path d="M11.1615 25.9463V30.2707C11.1615 30.7294 10.9793 31.1694 10.6549 31.4938C10.3305 31.8182 9.89055 32.0004 9.43179 32.0004H6.83717C6.37841 32.0004 5.93844 31.8182 5.61405 31.4938C5.28966 31.1694 5.10742 30.7294 5.10742 30.2707V25.9463H11.1615Z" fill="#47BFA3"/>
<path d="M33.701 13.8389H5.92127C5.01278 13.8525 4.14612 14.223 3.50852 14.8703C2.87092 15.5176 2.51357 16.3898 2.51367 17.2984V24.2173C2.51367 24.6761 2.69591 25.1161 3.0203 25.4405C3.34469 25.7649 3.78466 25.9471 4.24342 25.9471H13.757V20.7579C13.757 20.2991 13.9393 19.8591 14.2637 19.5347C14.5881 19.2103 15.028 19.0281 15.4868 19.0281H24.1355C24.5943 19.0281 25.0342 19.2103 25.3586 19.5347C25.683 19.8591 25.8653 20.2991 25.8653 20.7579V25.9471H35.3789C35.8376 25.9471 36.2776 25.7649 36.602 25.4405C36.9264 25.1161 37.1086 24.6761 37.1086 24.2173V17.2984C37.1087 16.3898 36.7514 15.5176 36.1138 14.8703C35.4762 14.223 34.6095 13.8525 33.701 13.8389ZM8.56779 21.6227C8.22568 21.6227 7.89125 21.5213 7.60679 21.3312C7.32234 21.1411 7.10063 20.871 6.96971 20.5549C6.83879 20.2389 6.80453 19.8911 6.87128 19.5555C6.93802 19.22 7.10276 18.9118 7.34467 18.6699C7.58658 18.428 7.89479 18.2632 8.23033 18.1965C8.56587 18.1297 8.91366 18.164 9.22973 18.2949C9.5458 18.4258 9.81595 18.6475 10.006 18.932C10.1961 19.2164 10.2975 19.5509 10.2975 19.893C10.2975 20.3517 10.1153 20.7917 9.7909 21.1161C9.46651 21.4405 9.02655 21.6227 8.56779 21.6227ZM31.0545 21.6227C30.7124 21.6227 30.378 21.5213 30.0935 21.3312C29.8091 21.1411 29.5873 20.871 29.4564 20.5549C29.3255 20.2389 29.2913 19.8911 29.358 19.5555C29.4247 19.22 29.5895 18.9118 29.8314 18.6699C30.0733 18.428 30.3815 18.2632 30.717 18.1965C31.0526 18.1297 31.4004 18.164 31.7164 18.2949C32.0325 18.4258 32.3027 18.6475 32.4927 18.932C32.6828 19.2164 32.7843 19.5509 32.7843 19.893C32.7843 20.3517 32.602 20.7917 32.2776 21.1161C31.9532 21.4405 31.5133 21.6227 31.0545 21.6227Z" fill="url(#paint0_linear_1_50438)"/>
<path d="M8.56568 21.6216C9.521 21.6216 10.2954 20.8472 10.2954 19.8919C10.2954 18.9365 9.521 18.1621 8.56568 18.1621C7.61037 18.1621 6.83594 18.9365 6.83594 19.8919C6.83594 20.8472 7.61037 21.6216 8.56568 21.6216Z" fill="white"/>
<path d="M31.052 21.6216C32.0073 21.6216 32.7818 20.8472 32.7818 19.8919C32.7818 18.9365 32.0073 18.1621 31.052 18.1621C30.0967 18.1621 29.3223 18.9365 29.3223 19.8919C29.3223 20.8472 30.0967 21.6216 31.052 21.6216Z" fill="url(#paint1_linear_1_50438)"/>
<path d="M33.6997 13.838H5.91992L6.74155 10.3785L6.83669 9.96334L8.56643 2.59462C8.72571 1.86933 9.12468 1.21884 9.69898 0.748099C10.2733 0.277359 10.9894 0.0138207 11.7319 0H27.8791C28.623 0.0118927 29.3411 0.274553 29.9172 0.74545C30.4933 1.21635 30.8935 1.86791 31.0531 2.59462L32.7829 9.9374L32.878 10.3525L33.6997 13.838Z" fill="url(#paint2_linear_1_50438)"/>
<path d="M25.8621 20.7571V25.9463H13.7539V20.7571C13.7539 20.2983 13.9361 19.8584 14.2605 19.534C14.5849 19.2096 15.0249 19.0273 15.4837 19.0273H24.1324C24.5911 19.0273 25.0311 19.2096 25.3555 19.534C25.6799 19.8584 25.8621 20.2983 25.8621 20.7571Z" fill="#D3D3D3"/>
<path d="M6.74218 10.3787H3.37782C2.68969 10.3787 2.02973 10.1053 1.54315 9.61875C1.05656 9.13216 0.783203 8.47221 0.783203 7.78407C0.783203 7.09594 1.05656 6.43599 1.54315 5.9494C2.02973 5.46281 2.68969 5.18945 3.37782 5.18945H4.2427C4.93083 5.18945 5.59078 5.46281 6.07737 5.9494C6.56396 6.43599 6.83732 7.09594 6.83732 7.78407V9.96356" fill="#47BFA3"/>
<path d="M32.7832 9.96356V7.78407C32.7832 7.09594 33.0566 6.43599 33.5432 5.9494C34.0297 5.46281 34.6897 5.18945 35.3778 5.18945H36.2427C36.9308 5.18945 37.5908 5.46281 38.0774 5.9494C38.564 6.43599 38.8373 7.09594 38.8373 7.78407C38.8373 8.47221 38.564 9.13216 38.0774 9.61875C37.5908 10.1053 36.9308 10.3787 36.2427 10.3787H32.8783" fill="#47BFA3"/>
<defs>
<linearGradient id="paint0_linear_1_50438" x1="19.8111" y1="25.9471" x2="19.8111" y2="13.8389" gradientUnits="userSpaceOnUse">
<stop stop-color="#47BFA3"/>
<stop offset="1" stop-color="#280582"/>
</linearGradient>
<linearGradient id="paint1_linear_1_50438" x1="198.837" y1="18.1621" x2="212.675" y2="18.1621" gradientUnits="userSpaceOnUse">
<stop stop-color="white"/>
<stop offset="1" stop-color="#FFC701"/>
</linearGradient>
<linearGradient id="paint2_linear_1_50438" x1="10.5383" y1="18.4564" x2="29.0812" y2="-0.0951327" gradientUnits="userSpaceOnUse">
<stop stop-color="#5B2FCB"/>
<stop offset="1" stop-color="#350BA2"/>
</linearGradient>
</defs>
</svg>
