<svg width="66" height="39" viewBox="0 0 66 39" fill="none" xmlns="http://www.w3.org/2000/svg">
<g clip-path="url(#clip0_1_55032)">
<path d="M53.0514 0.138611L46.2012 1.59428V29.2521H53.0514V0.138611Z" fill="#1C1C1C"/>
<path d="M33.5468 8.40619C31.4562 8.40619 29.4126 9.02612 27.6743 10.1876C25.936 11.3491 24.5812 12.9999 23.7812 14.9314C22.9811 16.8629 22.7718 18.9882 23.1797 21.0386C23.5875 23.0891 24.5942 24.9725 26.0725 26.4508C27.5508 27.9291 29.4343 28.9358 31.4847 29.3436C33.5351 29.7515 35.6604 29.5422 37.5919 28.7421C39.5234 27.9421 41.1742 26.5873 42.3357 24.849C43.4972 23.1107 44.1171 21.0671 44.1171 18.9765C44.1169 16.1731 43.0031 13.4847 41.0209 11.5024C39.0386 9.52017 36.3502 8.40644 33.5468 8.40619ZM33.5468 22.4016C32.8694 22.4016 32.2072 22.2007 31.644 21.8243C31.0807 21.448 30.6417 20.9131 30.3825 20.2872C30.1232 19.6613 30.0554 18.9727 30.1875 18.3083C30.3197 17.6438 30.6459 17.0336 31.1249 16.5545C31.6039 16.0755 32.2142 15.7493 32.8786 15.6172C33.543 15.485 34.2317 15.5528 34.8576 15.8121C35.4834 16.0713 36.0184 16.5103 36.3947 17.0736C36.7711 17.6368 36.972 18.299 36.972 18.9765C36.972 19.8849 36.6111 20.756 35.9688 21.3984C35.3264 22.0407 34.4552 22.4016 33.5468 22.4016Z" fill="#1C1C1C"/>
<path d="M33.5462 32.0107C34.2236 32.0107 34.8858 32.2116 35.4491 32.5879C36.0124 32.9643 36.4514 33.4992 36.7106 34.1251C36.9698 34.7509 37.0377 35.4396 36.9055 36.104C36.7734 36.7684 36.4471 37.3787 35.9681 37.8577C35.4891 38.3367 34.8788 38.6629 34.2144 38.7951C33.55 38.9273 32.8613 38.8594 32.2355 38.6002C31.6096 38.341 31.0747 37.9019 30.6983 37.3387C30.322 36.7754 30.1211 36.1132 30.1211 35.4358C30.1211 34.5274 30.482 33.6562 31.1243 33.0139C31.7666 32.3715 32.6378 32.0107 33.5462 32.0107Z" fill="#1C1C1C"/>
<path d="M18.3053 13.8581C19.1466 12.4958 19.609 10.9337 19.6447 9.33296C19.6804 7.73225 19.2881 6.15103 18.5084 4.7526C17.7287 3.35417 16.5898 2.18924 15.2094 1.37812C13.829 0.567003 12.257 0.139101 10.6559 0.138611L0 0.138611V29.2521H11.9879C13.7713 29.2514 15.5142 28.7205 16.9953 27.727C18.4763 26.7335 19.6285 25.3221 20.3056 23.6722C20.9827 22.0224 21.154 20.2085 20.7979 18.461C20.4417 16.7135 19.5741 15.1114 18.3053 13.8581ZM6.85974 6.98883H10.6654C11.2332 6.98883 11.7777 7.21437 12.1791 7.61583C12.5806 8.01729 12.8061 8.56178 12.8061 9.12953C12.8061 9.69728 12.5806 10.2418 12.1791 10.6432C11.7777 11.0447 11.2332 11.2702 10.6654 11.2702H6.85974V6.98883ZM11.9974 22.4018H6.85974V18.1204H11.9974C12.5652 18.1204 13.1096 18.346 13.5111 18.7474C13.9126 19.1489 14.1381 19.6934 14.1381 20.2611C14.1381 20.8289 13.9126 21.3734 13.5111 21.7748C13.1096 22.1763 12.5652 22.4018 11.9974 22.4018Z" fill="#1C1C1C"/>
<path d="M65.9902 15.6464V8.79622H62.5651V3.56342L55.7148 5.01909V22.744C55.7148 26.9208 58.3122 29.3279 62.1369 29.5277C62.175 29.5277 62.2226 29.5372 62.2606 29.5372H62.3272C62.4128 29.5372 62.489 29.5467 62.5746 29.5467H62.6602C63.827 29.5415 64.9744 29.2473 65.9997 28.6904V23.6479C65.5005 23.7834 64.9852 23.8507 64.4679 23.8477C63.0979 23.8477 62.5746 22.6489 62.5746 21.022V15.6464H65.9902Z" fill="#1C1C1C"/>
</g>
<defs>
<clipPath id="clip0_1_55032">
<rect width="66" height="38.7228" fill="white" transform="translate(0 0.138611)"/>
</clipPath>
</defs>
</svg>
