<svg width="50" height="42" viewBox="0 0 50 42" fill="none" xmlns="http://www.w3.org/2000/svg">
<path d="M36.7404 0.47203C35.2928 0.57657 33.9805 1.28343 33.1275 2.41519C32.7838 2.88208 32.3207 3.83202 32.2469 4.24193L32.2001 4.50206L31.0208 4.28883L29.8415 4.07561L29.5225 5.84923L29.2035 7.62286L29.4629 7.66977C29.8953 7.74795 30.8571 8.22299 31.3264 8.5927C31.9037 9.03892 32.6899 10.174 32.9053 10.8723C33.1221 11.5626 33.1906 12.5354 33.0701 13.2054C32.9496 13.8755 32.545 14.7709 32.1028 15.3339C31.6406 15.9178 30.5177 16.6996 29.8292 16.9169C29.2607 17.099 28.194 17.2073 27.7616 17.1291L27.5021 17.0822L27.1831 18.8558L26.8641 20.6294L30.1584 21.2251L33.4526 21.8207L32.9188 22.7578C32.4533 23.5853 32.38 23.7673 32.3335 24.2066C32.1953 25.5164 32.9786 26.5777 34.2758 26.8123C35.5731 27.0468 36.6768 26.3267 37.0036 25.0509C37.1131 24.6231 37.1078 24.4268 36.9599 23.4885L36.7862 22.4234L40.0805 23.019L43.3747 23.6146L43.5874 22.4322L43.8001 21.2498L44.0595 21.2967C44.4762 21.372 45.5179 21.2674 46.0836 21.1011C47.2678 20.7454 48.3791 19.8476 48.9649 18.757C49.3811 17.9777 49.5909 16.811 49.4725 15.935C49.3035 14.708 48.575 13.4775 47.5893 12.7295C47.1172 12.3756 46.1776 11.9127 45.7609 11.8374L45.5014 11.7904L45.9268 9.42562L46.3521 7.06078L43.9934 6.63433L41.6348 6.20787L41.6816 5.94774C41.7567 5.52995 41.6523 4.48555 41.4864 3.91838C41.1446 2.74965 40.2892 1.68341 39.2294 1.07669C38.5514 0.693659 37.4385 0.427321 36.7404 0.47203Z" fill="#4A1FB8"/>
<path d="M14.6486 3.47675C8.13101 7.00079 4.38269 14.0159 5.11452 21.2914C5.20702 22.2036 5.5122 23.8906 5.66494 24.3122C5.69767 24.4025 5.97345 24.3192 7.43019 23.7886L9.15726 23.1597L9.06726 22.9112C8.91724 22.4971 8.84323 21.4248 8.92603 20.8322C9.02321 20.115 9.60177 18.8732 10.0975 18.3177C10.5761 17.7854 11.3879 17.2341 12.0262 17.0017C12.6644 16.7692 13.6323 16.6724 14.3476 16.7698C15.0704 16.8645 16.3192 17.4494 16.8555 17.9444C17.2984 18.3456 17.928 19.2156 18.0781 19.6296L18.1681 19.8781L19.8576 19.2628L21.5471 18.6475L20.4043 15.493L19.2615 12.3385L20.3454 12.3272C21.2572 12.3105 21.4791 12.2893 21.8286 12.1279C22.615 11.7648 23.1709 11 23.292 10.1377C23.3426 9.76138 23.3127 9.58481 23.1436 9.11803C22.9745 8.65125 22.8844 8.49656 22.6047 8.24052C21.9599 7.65724 21.044 7.42834 20.2085 7.65592C19.8371 7.75707 19.6535 7.88361 18.9434 8.45751L18.105 9.14633L16.9758 6.02947L15.8466 2.91261L15.5715 3.02132C15.4166 3.08628 15.0049 3.28732 14.6486 3.47675Z" fill="#47BFA3"/>
<path d="M12.8338 20.4205C12.0588 20.7009 11.5396 21.2376 11.3159 21.9905C11.1321 22.6153 11.1721 22.9677 11.5475 24.0651L11.8991 25.0903H8.50373H5.1084L5.16432 25.5869C5.45193 28.2783 6.25882 30.7533 7.577 32.9881C10.1015 37.2574 14.112 40.2852 18.8176 41.4786C19.5366 41.6629 21.4779 41.9913 21.8454 41.9913C21.9732 41.9913 21.9812 41.8471 21.9812 40.149V38.3067H21.7176C21.2782 38.3067 20.2476 38.0103 19.7203 37.73C19.0652 37.3776 18.0985 36.4084 17.763 35.7676C17.4275 35.1268 17.1878 34.1816 17.1878 33.5007C17.1878 32.8199 17.4275 31.8747 17.763 31.2339C18.0985 30.5931 19.0652 29.6239 19.7203 29.2715C20.2476 28.9912 21.2782 28.6948 21.7176 28.6948H21.9812V26.8926V25.0903H18.6338H15.2864L15.6459 24.0651C15.9495 23.184 15.9974 22.9837 15.9655 22.5592C15.9016 21.6541 15.4302 20.9332 14.6633 20.5567C14.096 20.2764 13.385 20.2283 12.8338 20.4205Z" fill="#4A1FB8"/>
<path d="M24.3824 28.4391V31.7953L23.3677 31.4429C22.489 31.1385 22.2812 31.0984 21.8818 31.1305C20.5556 31.2346 19.4851 32.4521 19.6129 33.7017C19.7327 34.8391 20.7154 35.7842 21.8978 35.8804C22.2733 35.9044 22.5049 35.8563 23.3677 35.56L24.3824 35.2075V38.6037V41.9999L24.8857 41.9519C33.1783 41.1028 39.7772 34.6949 40.9596 26.3325C41.0235 25.892 41.0794 25.4354 41.0794 25.3073V25.091H39.3218H37.5642V25.3553C37.5642 25.7959 37.2686 26.8291 36.989 27.3578C36.6375 28.0146 35.6708 28.9838 35.0317 29.3202C34.3926 29.6566 33.4499 29.8969 32.7708 29.8969C32.0918 29.8969 31.1411 29.6566 30.5099 29.3202C29.8548 28.9678 28.8882 27.9986 28.5526 27.3578C28.273 26.8291 27.9774 25.7959 27.9774 25.3553V25.091H26.1799H24.3824V28.4391Z" fill="#4A1FB8"/>
</svg>
