<svg width="49" height="56" viewBox="0 0 49 56" fill="none" xmlns="http://www.w3.org/2000/svg">
<mask id="mask0_1_52735" style="mask-type:alpha" maskUnits="userSpaceOnUse" x="8" y="14" width="41" height="25">
<rect x="8.32422" y="14" width="39.9998" height="23.9999" transform="rotate(0.771055 8.32422 14)" fill="#D9D9D9"/>
</mask>
<g mask="url(#mask0_1_52735)">
<path d="M29.9449 42.2929L25.9453 42.239C24.8454 42.2242 23.9576 41.3122 23.9724 40.2123L9.99372 40.0242L9.88606 48.0234C9.85646 50.2232 11.6321 52.0473 13.8319 52.0769L41.8092 52.4534C44.009 52.483 45.8331 50.7074 45.8627 48.5076L45.9703 40.5084L31.9716 40.32C31.9568 41.4199 31.0448 42.3077 29.9449 42.2929ZM44.1858 24.483L36.1866 24.3753C36.2461 19.9557 32.7146 16.3279 28.295 16.2684C23.8754 16.2089 20.2476 19.7404 20.1881 24.16L12.1888 24.0523C9.98905 24.0227 8.165 25.7983 8.13539 27.9981L8.05465 33.9976C8.02477 36.2174 9.78065 38.0211 12.0004 38.051L23.9993 38.2125L24.0262 36.2127C24.041 35.1128 24.9531 34.225 26.0529 34.2398L30.0526 34.2936C31.1525 34.3084 32.0403 35.2205 32.0255 36.3203L31.9986 38.3202L43.9974 38.4816C46.1972 38.5112 48.0213 36.7356 48.0509 34.5358L48.1316 28.5364C48.1612 26.3366 46.3856 24.5126 44.1858 24.483ZM24.1877 24.2138C24.2173 22.014 26.0414 20.2384 28.2412 20.268C30.441 20.2976 32.2166 22.1217 32.187 24.3215L24.1677 24.2136L24.1877 24.2138Z" fill="#47BFA3"/>
</g>
<mask id="mask1_1_52735" style="mask-type:alpha" maskUnits="userSpaceOnUse" x="10" y="40" width="38" height="16">
<rect x="10" y="40.0001" width="37.9999" height="15.9999" fill="#D9D9D9"/>
</mask>
<g mask="url(#mask1_1_52735)">
<path d="M30.9999 43.1914H26.9999C25.8999 43.1914 24.9999 42.2914 24.9999 41.1914H11.02V49.1914C11.02 51.3914 12.82 53.1914 15.02 53.1914H42.9999C45.1999 53.1914 46.9999 51.3914 46.9999 49.1914V41.1914H32.9999C32.9999 42.2914 32.0999 43.1914 30.9999 43.1914ZM44.9999 25.1915H36.9999C36.9999 20.7715 33.4199 17.1915 28.9999 17.1915C24.5799 17.1915 21 20.7715 21 25.1915H13C10.8 25.1915 9 26.9915 9 29.1915V35.1915C9 37.4115 10.78 39.1914 13 39.1914H24.9999V37.1915C24.9999 36.0915 25.8999 35.1915 26.9999 35.1915H30.9999C32.0999 35.1915 32.9999 36.0915 32.9999 37.1915V39.1914H44.9999C47.1999 39.1914 48.9998 37.3915 48.9998 35.1915V29.1915C48.9998 26.9915 47.1999 25.1915 44.9999 25.1915ZM24.9999 25.1915C24.9999 22.9915 26.7999 21.1915 28.9999 21.1915C31.1999 21.1915 32.9999 22.9915 32.9999 25.1915H24.9799H24.9999Z" fill="#4A1FB8"/>
</g>
</svg>
