<svg width="53" height="58" viewBox="0 0 53 58" fill="none" xmlns="http://www.w3.org/2000/svg">
<path fill-rule="evenodd" clip-rule="evenodd" d="M21.13 32.0181C22.972 29.6783 22.5685 26.2883 20.2288 24.4463C18.659 23.2104 16.6164 22.9854 14.8857 23.6777L19.2245 18.1666C20.2069 16.9187 22.0149 16.7035 23.2628 17.6859L26.8926 20.5435C27.0842 19.979 27.3734 19.4369 27.7632 18.9419C29.6052 16.6021 32.9952 16.1986 35.3349 18.0407C37.6747 19.8827 38.0782 23.2727 36.2361 25.6124C35.8464 26.1075 35.3873 26.5159 34.8836 26.8347L38.5142 29.6929C39.762 30.6753 39.9772 32.4834 38.9948 33.7312L35.2584 38.4772C35.1416 37.0337 34.447 35.641 33.2193 34.6745C30.8795 32.8324 27.4895 33.2359 25.6475 35.5757C23.8055 37.9154 24.209 41.3054 26.5487 43.1475C27.7764 44.114 29.2932 44.4623 30.7239 44.237L26.5431 49.5475C25.5607 50.7953 23.7527 51.0105 22.5048 50.0281L18.8743 47.1699C18.6827 47.7345 18.3934 48.2767 18.0036 48.7719C16.1615 51.1117 12.7715 51.5152 10.4318 49.6731C8.09203 47.8311 7.68855 44.4411 9.53058 42.1014C9.92042 41.6062 10.3796 41.1977 10.8835 40.8789L7.25345 38.0211C6.00558 37.0387 5.79039 35.2307 6.7728 33.9828L11.557 27.9059C11.2902 29.7507 11.9884 31.6834 13.5582 32.9193C15.898 34.7613 19.288 34.3578 21.13 32.0181Z" fill="#4A1FB8"/>
<path fill-rule="evenodd" clip-rule="evenodd" d="M27.5503 7.59076C26.5679 8.83862 26.7831 10.6466 28.0309 11.629L29.7316 12.9679C29.8007 12.8711 29.8725 12.7754 29.9468 12.681C32.5257 9.40531 37.2717 8.84043 40.5473 11.4193C43.823 13.9981 44.3878 18.7441 41.809 22.0198C41.7346 22.1142 41.6585 22.2064 41.5806 22.2963L43.2823 23.6361C44.5302 24.6185 46.3382 24.4033 47.3206 23.1554L52.2123 16.9419C53.1948 15.694 52.9796 13.886 51.7317 12.9036L36.4803 0.896594C35.2325 -0.0858205 33.4245 0.129372 32.4421 1.37724L27.5503 7.59076Z" fill="#47BFA3"/>
</svg>
