<svg width="41" height="35" viewBox="0 0 41 35" fill="none" xmlns="http://www.w3.org/2000/svg">
<path fill-rule="evenodd" clip-rule="evenodd" d="M5.88788 20.5078C6.29244 20.2396 6.75707 20.0756 7.24037 20.0305C7.59985 19.9933 7.96311 20.0364 8.30392 20.1566C8.64473 20.2769 8.95459 20.4713 9.21113 20.7259C9.46346 20.9804 9.66305 21.2823 9.79846 21.6142C9.93387 21.946 10.0024 22.3014 10.0002 22.6598C10.0004 23.0108 9.93044 23.3584 9.79445 23.682C9.65845 24.0056 9.45915 24.2988 9.20826 24.5443L6.38164 27.3712C6.31705 27.4363 6.24019 27.4881 6.1555 27.5234C6.07081 27.5587 5.97996 27.5769 5.8882 27.5769C5.79644 27.5769 5.70559 27.5587 5.62089 27.5234C5.5362 27.4881 5.45934 27.4363 5.39475 27.3712L2.56527 24.5443C2.0591 24.0378 1.77477 23.3511 1.77477 22.6351C1.77477 21.919 2.0591 21.2323 2.56527 20.7259C3.42678 19.8658 4.81467 19.8042 5.88788 20.5078ZM8.2273 23.5528C8.22838 23.5517 8.22946 23.5507 8.23053 23.5486C8.34979 23.4317 8.44435 23.2922 8.50861 23.1381C8.57286 22.984 8.6055 22.8186 8.60458 22.6517C8.6062 22.4779 8.57345 22.3056 8.5082 22.1446C8.44295 21.9836 8.3465 21.837 8.22439 21.7135C8.11206 21.6038 7.97665 21.5207 7.82806 21.4702C7.67947 21.4196 7.52146 21.403 7.36559 21.4213C6.99253 21.4627 6.64508 21.6312 6.38164 21.8985C6.25056 22.029 6.07314 22.1022 5.8882 22.1022C5.70325 22.1022 5.52583 22.029 5.39475 21.8985C5.10331 21.6018 4.70837 21.4293 4.29261 21.4171C4.15553 21.4138 4.0192 21.4383 3.89189 21.4892C3.76458 21.5402 3.64894 21.6164 3.552 21.7134C3.30765 21.9579 3.17039 22.2894 3.17039 22.6351C3.17039 22.9807 3.30765 23.3123 3.552 23.5568L5.8882 25.8896L8.22431 23.5565C8.22528 23.5547 8.22629 23.5537 8.2273 23.5528ZM34.1901 0H4.95981C4.83615 0 4.71363 0.0243847 4.59941 0.0717591C4.48518 0.119133 4.38143 0.188567 4.29407 0.276087C4.20671 0.363607 4.13747 0.467494 4.09031 0.581804C4.04315 0.696114 4.01899 0.818602 4.01922 0.942258V11.2001H9.05961C9.27604 11.1988 9.48681 11.2691 9.6591 11.4001C9.8314 11.5311 9.95552 11.7154 10.0121 11.9242L11.6006 17.6354C11.8712 17.8351 12.0911 18.0955 12.2427 18.3957C12.3942 18.6959 12.473 19.0276 12.4728 19.3639V20.232H27.7565V13.0971C27.7568 12.9267 27.7799 12.7588 27.8242 12.5973V11.1299H35.1306V0.942258C35.1309 0.818602 35.1067 0.696114 35.0596 0.581804C35.0124 0.467494 34.9431 0.363607 34.8558 0.276087C34.7684 0.188567 34.6647 0.119133 34.5505 0.0717591C34.4362 0.0243847 34.3138 0 34.1901 0ZM23.0742 21.627H16.0763V22.3061H23.0742V21.627ZM0.9196 28.7656C1.06125 28.9075 1.25331 28.9875 1.4538 28.9883L10.3216 28.9883C10.5221 28.9876 10.7141 28.9076 10.8558 28.7657C10.9974 28.6238 11.0771 28.4316 11.0774 28.2312V19.3639C11.0771 19.1634 10.9974 18.9712 10.8558 18.8293C10.7141 18.6875 10.5221 18.6074 10.3216 18.6067H1.4538C1.25331 18.6074 1.06125 18.6874 0.9196 18.8293C0.777944 18.9712 0.698206 19.1634 0.697807 19.3639V22.207H0.559281C0.412508 22.2079 0.271894 22.2661 0.167417 22.3692C0.0629401 22.4723 0.00286539 22.6121 0 22.7589V24.8327C0.0025369 24.9803 0.0622607 25.1211 0.166588 25.2255C0.270916 25.3299 0.411701 25.3895 0.559281 25.3922H0.697807V28.2311C0.698206 28.4316 0.777944 28.6237 0.9196 28.7656ZM1.74065 17.2119L3.02476 12.5952H8.75076L10.0347 17.2119H1.74065ZM3.02476 34.9998H8.75036L10.0347 30.3832H1.74065L3.02476 34.9998ZM27.7565 24.6801H12.4725L12.4728 21.627H14.6803V22.5817C14.6808 22.8786 14.7991 23.1632 15.0092 23.373C15.2193 23.5828 15.5041 23.7007 15.801 23.7009H23.349C23.6459 23.7007 23.9307 23.5828 24.1408 23.373C24.351 23.1632 24.4692 22.8785 24.4698 22.5816V21.627H27.7565V24.6801Z" fill="url(#paint0_linear_1_50425)"/>
<path fill-rule="evenodd" clip-rule="evenodd" d="M29.1644 12.9844C29.1559 13.0212 29.1514 13.059 29.1514 13.0974V34.4978C29.1516 34.6309 29.2046 34.7585 29.2987 34.8526C29.3928 34.9467 29.5204 34.9997 29.6535 34.9999H40.3063C40.4393 34.9995 40.5667 34.9465 40.6607 34.8524C40.7547 34.7583 40.8076 34.6308 40.8079 34.4978V13.0974C40.8076 12.9644 40.7547 12.8369 40.6607 12.7428C40.5667 12.6487 40.4393 12.5956 40.3063 12.5952H36.1428L36.1706 12.9844H29.1644ZM35.9388 31.3649C35.6549 31.1754 35.3212 31.0743 34.9799 31.0744C34.5219 31.0749 34.0829 31.2573 33.7594 31.5813C33.4358 31.9053 33.2541 32.3446 33.2542 32.8025C33.2546 33.1438 33.3562 33.4774 33.5461 33.761C33.736 34.0446 34.0058 34.2656 34.3213 34.3959C34.6367 34.5262 34.9838 34.5601 35.3185 34.4932C35.6532 34.4264 35.9606 34.2618 36.2018 34.0202C36.443 33.7787 36.6071 33.4711 36.6735 33.1363C36.7399 32.8014 36.7055 32.4545 36.5748 32.1392C36.444 31.8239 36.2227 31.5544 35.9388 31.3649ZM34.7972 33.0759C34.8512 33.1122 34.9148 33.1316 34.9799 33.1317C35.0672 33.1316 35.151 33.0969 35.2128 33.0352C35.2746 32.9735 35.3094 32.8899 35.3097 32.8025C35.3097 32.7374 35.2904 32.6738 35.2542 32.6197C35.2181 32.5656 35.1667 32.5234 35.1066 32.4985C35.0465 32.4735 34.9804 32.467 34.9165 32.4796C34.8527 32.4923 34.794 32.5236 34.748 32.5695C34.7019 32.6155 34.6705 32.6741 34.6577 32.7379C34.645 32.8017 34.6514 32.8679 34.6762 32.928C34.701 32.9882 34.7431 33.0397 34.7972 33.0759ZM34.4001 14.5052C34.3233 14.3905 34.2822 14.2556 34.282 14.1176C34.2817 14.0259 34.2995 13.935 34.3343 13.8502C34.3692 13.7654 34.4205 13.6883 34.4851 13.6233C34.5498 13.5584 34.6267 13.5068 34.7114 13.4716C34.796 13.4363 34.8868 13.4182 34.9785 13.4181H34.9811C35.1192 13.4182 35.2541 13.4593 35.3689 13.5361C35.4836 13.6128 35.573 13.7219 35.6258 13.8495C35.6786 13.9771 35.6924 14.1174 35.6654 14.2528C35.6385 14.3882 35.572 14.5126 35.4744 14.6103C35.3768 14.7079 35.2524 14.7745 35.1171 14.8015C34.9817 14.8285 34.8413 14.8148 34.7137 14.762C34.5861 14.7093 34.477 14.6199 34.4001 14.5052Z" fill="#47BFA3"/>
<defs>
<linearGradient id="paint0_linear_1_50425" x1="17.5653" y1="0" x2="17.5653" y2="34.9998" gradientUnits="userSpaceOnUse">
<stop stop-color="#4A1FB8"/>
<stop offset="1" stop-color="#11003C" stop-opacity="0.69"/>
</linearGradient>
</defs>
</svg>
