<svg width="42" height="38" viewBox="0 0 42 38" fill="none" xmlns="http://www.w3.org/2000/svg">
<path d="M20.7382 3.47022C11.6925 -4.44158 0.190939 2.50995 0.00233875 11.9339C-0.045723 14.3356 0.647566 16.675 2.02758 18.8318H10.9724L12.5634 16.1801C13.0254 15.4102 14.1434 15.3854 14.6315 16.1529L17.9883 21.4278L22.8814 11.0981C23.3082 10.1968 24.5799 10.1681 25.0505 11.0422L29.245 18.8318H39.4488C47.0076 7.01819 32.0689 -6.43999 20.7382 3.47022Z" fill="url(#paint0_linear_1_50455)"/>
<path d="M27.4469 20.6237L24.048 14.3115L19.2418 24.458C18.8329 25.3212 17.6302 25.3962 17.1174 24.5903L13.6348 19.1176L12.7016 20.6728C12.4819 21.039 12.0862 21.263 11.6592 21.263H3.94922C4.19091 21.5159 2.9028 20.2304 19.8791 37.1188C20.3533 37.5906 21.1197 37.5907 21.594 37.1188C38.3091 20.4903 37.2827 21.5154 37.5239 21.263H28.5173C28.07 21.2631 27.6589 21.0175 27.4469 20.6237Z" fill="#47BFA3"/>
<defs>
<linearGradient id="paint0_linear_1_50455" x1="20.75" y1="0.0263672" x2="20.4493" y2="31.0797" gradientUnits="userSpaceOnUse">
<stop stop-color="#4A1FB8"/>
<stop offset="1" stop-color="#0C0227" stop-opacity="0.55"/>
</linearGradient>
</defs>
</svg>
