<svg width="37" height="36" viewBox="0 0 37 36" fill="none" xmlns="http://www.w3.org/2000/svg">
<path d="M33.7754 7.28687V35.9997H2.68555V7.28687L16.2809 0.919922H20.1801L33.7754 7.28687Z" fill="url(#paint0_linear_1_50397)"/>
<path d="M36.3083 9.90342L35.7642 11.0758C35.6943 11.232 35.5941 11.3727 35.4694 11.49C35.3447 11.6072 35.198 11.6986 35.0378 11.7588C34.8776 11.8191 34.7071 11.8469 34.536 11.8409C34.365 11.8348 34.1968 11.7949 34.0413 11.7235L33.7758 11.5745L18.2308 4.29429L2.6859 11.5745L2.42034 11.6976C2.26481 11.769 2.09667 11.8089 1.92563 11.815C1.75459 11.821 1.58405 11.7931 1.42385 11.7329C1.26365 11.6727 1.11697 11.5813 0.992291 11.4641C0.86761 11.3468 0.767396 11.2061 0.697441 11.0499L0.153369 9.87751C0.0819409 9.72198 0.0420398 9.55384 0.035971 9.3828C0.0299022 9.21177 0.0577858 9.04122 0.118011 8.88102C0.178236 8.72082 0.269609 8.57414 0.386851 8.44946C0.504092 8.32478 0.644878 8.22457 0.801075 8.15461L2.74419 7.26078L16.2877 0.919742L18.0171 0.11011L18.2308 0L18.4511 0.103633L20.1739 0.919742L33.7758 7.28669L35.7189 8.18052C36.024 8.33239 36.257 8.59842 36.3674 8.92094C36.4777 9.24345 36.4565 9.59645 36.3083 9.90342Z" fill="#6938EF"/>
<path d="M28.5952 20.7266H20.8228C20.1073 20.7266 19.5273 21.3065 19.5273 22.022V34.3284C19.5273 35.0438 20.1073 35.6238 20.8228 35.6238H28.5952C29.3107 35.6238 29.8906 35.0438 29.8906 34.3284V22.022C29.8906 21.3065 29.3107 20.7266 28.5952 20.7266Z" fill="#47BFA3"/>
<path d="M16.2871 22.6704V25.9089H11.1055V21.375H14.9917C15.3353 21.375 15.6648 21.5115 15.9077 21.7544C16.1506 21.9974 16.2871 22.3268 16.2871 22.6704Z" fill="#92FFE5"/>
<path d="M11.1055 21.375V25.9089H5.92383V22.6704C5.92383 22.3268 6.06031 21.9974 6.30325 21.7544C6.54618 21.5115 6.87567 21.375 7.21924 21.375H11.1055Z" fill="#B4CDE1"/>
<path d="M16.2871 25.9092V29.1477C16.2871 29.4913 16.1506 29.8208 15.9077 30.0637C15.6648 30.3066 15.3353 30.4431 14.9917 30.4431H11.1055V25.9092H16.2871Z" fill="#A2B1C2"/>
<path d="M11.1055 25.9092V30.4431H7.21924C6.99207 30.4429 6.76896 30.3829 6.57229 30.2692C6.37561 30.1555 6.21229 29.9921 6.09871 29.7954C6.07244 29.7514 6.04865 29.706 6.02746 29.6594C6.00226 29.6032 5.98273 29.5446 5.96917 29.4845C5.95219 29.432 5.94132 29.3776 5.93678 29.3226C5.929 29.2646 5.92468 29.2062 5.92383 29.1477V25.9092H11.1055Z" fill="#D0FDF2"/>
<defs>
<linearGradient id="paint0_linear_1_50397" x1="18.2305" y1="0.919922" x2="18.2305" y2="35.9997" gradientUnits="userSpaceOnUse">
<stop stop-color="#4A1FB8"/>
<stop offset="1" stop-color="#171717"/>
</linearGradient>
</defs>
</svg>
