<svg width="383" height="136" viewBox="0 0 383 136" fill="none" xmlns="http://www.w3.org/2000/svg">
<circle cx="1.5" cy="134.5" r="1.5" transform="rotate(-90 1.5 134.5)" fill="#2E90FA"/>
<circle cx="1.5" cy="115.5" r="1.5" transform="rotate(-90 1.5 115.5)" fill="#2E90FA"/>
<circle cx="1.5" cy="96.5" r="1.5" transform="rotate(-90 1.5 96.5)" fill="#2E90FA"/>
<circle cx="1.5" cy="77.5" r="1.5" transform="rotate(-90 1.5 77.5)" fill="#2E90FA"/>
<circle cx="1.5" cy="58.5" r="1.5" transform="rotate(-90 1.5 58.5)" fill="#2E90FA"/>
<circle cx="1.5" cy="39.5" r="1.5" transform="rotate(-90 1.5 39.5)" fill="#2E90FA"/>
<circle cx="1.5" cy="20.5" r="1.5" transform="rotate(-90 1.5 20.5)" fill="#2E90FA"/>
<circle cx="1.5" cy="1.50002" r="1.5" transform="rotate(-90 1.5 1.50002)" fill="#2E90FA"/>
<circle cx="20.5" cy="134.5" r="1.5" transform="rotate(-90 20.5 134.5)" fill="#2E90FA"/>
<circle cx="20.5" cy="115.5" r="1.5" transform="rotate(-90 20.5 115.5)" fill="#2E90FA"/>
<circle cx="20.5" cy="96.5" r="1.5" transform="rotate(-90 20.5 96.5)" fill="#2E90FA"/>
<circle cx="20.5" cy="77.5" r="1.5" transform="rotate(-90 20.5 77.5)" fill="#2E90FA"/>
<circle cx="20.5" cy="58.5" r="1.5" transform="rotate(-90 20.5 58.5)" fill="#2E90FA"/>
<circle cx="20.5" cy="39.5" r="1.5" transform="rotate(-90 20.5 39.5)" fill="#2E90FA"/>
<circle cx="20.5" cy="20.5" r="1.5" transform="rotate(-90 20.5 20.5)" fill="#2E90FA"/>
<circle cx="20.5" cy="1.50002" r="1.5" transform="rotate(-90 20.5 1.50002)" fill="#2E90FA"/>
<circle cx="39.5" cy="134.5" r="1.5" transform="rotate(-90 39.5 134.5)" fill="#2E90FA"/>
<circle cx="39.5" cy="115.5" r="1.5" transform="rotate(-90 39.5 115.5)" fill="#2E90FA"/>
<circle cx="39.5" cy="96.5" r="1.5" transform="rotate(-90 39.5 96.5)" fill="#2E90FA"/>
<circle cx="39.5" cy="77.5" r="1.5" transform="rotate(-90 39.5 77.5)" fill="#2E90FA"/>
<circle cx="39.5" cy="58.5" r="1.5" transform="rotate(-90 39.5 58.5)" fill="#2E90FA"/>
<circle cx="39.5" cy="39.5" r="1.5" transform="rotate(-90 39.5 39.5)" fill="#2E90FA"/>
<circle cx="39.5" cy="20.5" r="1.5" transform="rotate(-90 39.5 20.5)" fill="#2E90FA"/>
<circle cx="39.5" cy="1.50002" r="1.5" transform="rotate(-90 39.5 1.50002)" fill="#2E90FA"/>
<circle cx="58.5" cy="134.5" r="1.5" transform="rotate(-90 58.5 134.5)" fill="#2E90FA"/>
<circle cx="58.5" cy="115.5" r="1.5" transform="rotate(-90 58.5 115.5)" fill="#2E90FA"/>
<circle cx="58.5" cy="96.5" r="1.5" transform="rotate(-90 58.5 96.5)" fill="#2E90FA"/>
<circle cx="58.5" cy="77.5" r="1.5" transform="rotate(-90 58.5 77.5)" fill="#2E90FA"/>
<circle cx="58.5" cy="58.5" r="1.5" transform="rotate(-90 58.5 58.5)" fill="#2E90FA"/>
<circle cx="58.5" cy="39.5" r="1.5" transform="rotate(-90 58.5 39.5)" fill="#2E90FA"/>
<circle cx="58.5" cy="20.5" r="1.5" transform="rotate(-90 58.5 20.5)" fill="#2E90FA"/>
<circle cx="58.5" cy="1.50002" r="1.5" transform="rotate(-90 58.5 1.50002)" fill="#2E90FA"/>
<circle cx="77.5" cy="134.5" r="1.5" transform="rotate(-90 77.5 134.5)" fill="#2E90FA"/>
<circle cx="77.5" cy="115.5" r="1.5" transform="rotate(-90 77.5 115.5)" fill="#2E90FA"/>
<circle cx="77.5" cy="96.5" r="1.5" transform="rotate(-90 77.5 96.5)" fill="#2E90FA"/>
<circle cx="77.5" cy="77.5" r="1.5" transform="rotate(-90 77.5 77.5)" fill="#2E90FA"/>
<circle cx="77.5" cy="58.5" r="1.5" transform="rotate(-90 77.5 58.5)" fill="#2E90FA"/>
<circle cx="77.5" cy="39.5" r="1.5" transform="rotate(-90 77.5 39.5)" fill="#2E90FA"/>
<circle cx="77.5" cy="20.5" r="1.5" transform="rotate(-90 77.5 20.5)" fill="#2E90FA"/>
<circle cx="77.5" cy="1.50002" r="1.5" transform="rotate(-90 77.5 1.50002)" fill="#2E90FA"/>
<circle cx="96.5" cy="134.5" r="1.5" transform="rotate(-90 96.5 134.5)" fill="#2E90FA"/>
<circle cx="96.5" cy="115.5" r="1.5" transform="rotate(-90 96.5 115.5)" fill="#2E90FA"/>
<circle cx="96.5" cy="96.5" r="1.5" transform="rotate(-90 96.5 96.5)" fill="#2E90FA"/>
<circle cx="96.5" cy="77.5" r="1.5" transform="rotate(-90 96.5 77.5)" fill="#2E90FA"/>
<circle cx="96.5" cy="58.5" r="1.5" transform="rotate(-90 96.5 58.5)" fill="#2E90FA"/>
<circle cx="96.5" cy="39.5" r="1.5" transform="rotate(-90 96.5 39.5)" fill="#2E90FA"/>
<circle cx="96.5" cy="20.5" r="1.5" transform="rotate(-90 96.5 20.5)" fill="#2E90FA"/>
<circle cx="96.5" cy="1.50001" r="1.5" transform="rotate(-90 96.5 1.50001)" fill="#2E90FA"/>
<circle cx="115.5" cy="134.5" r="1.5" transform="rotate(-90 115.5 134.5)" fill="#2E90FA"/>
<circle cx="115.5" cy="115.5" r="1.5" transform="rotate(-90 115.5 115.5)" fill="#2E90FA"/>
<circle cx="115.5" cy="96.5" r="1.5" transform="rotate(-90 115.5 96.5)" fill="#2E90FA"/>
<circle cx="115.5" cy="77.5" r="1.5" transform="rotate(-90 115.5 77.5)" fill="#2E90FA"/>
<circle cx="115.5" cy="58.5" r="1.5" transform="rotate(-90 115.5 58.5)" fill="#2E90FA"/>
<circle cx="115.5" cy="39.5" r="1.5" transform="rotate(-90 115.5 39.5)" fill="#2E90FA"/>
<circle cx="115.5" cy="20.5" r="1.5" transform="rotate(-90 115.5 20.5)" fill="#2E90FA"/>
<circle cx="115.5" cy="1.50001" r="1.5" transform="rotate(-90 115.5 1.50001)" fill="#2E90FA"/>
<circle cx="134.5" cy="134.5" r="1.5" transform="rotate(-90 134.5 134.5)" fill="#2E90FA"/>
<circle cx="134.5" cy="115.5" r="1.5" transform="rotate(-90 134.5 115.5)" fill="#2E90FA"/>
<circle cx="134.5" cy="96.5" r="1.5" transform="rotate(-90 134.5 96.5)" fill="#2E90FA"/>
<circle cx="134.5" cy="77.5" r="1.5" transform="rotate(-90 134.5 77.5)" fill="#2E90FA"/>
<circle cx="134.5" cy="58.5" r="1.5" transform="rotate(-90 134.5 58.5)" fill="#2E90FA"/>
<circle cx="134.5" cy="39.5" r="1.5" transform="rotate(-90 134.5 39.5)" fill="#2E90FA"/>
<circle cx="134.5" cy="20.5" r="1.5" transform="rotate(-90 134.5 20.5)" fill="#2E90FA"/>
<circle cx="134.5" cy="1.50001" r="1.5" transform="rotate(-90 134.5 1.50001)" fill="#2E90FA"/>
<circle cx="153.5" cy="134.5" r="1.5" transform="rotate(-90 153.5 134.5)" fill="#2E90FA"/>
<circle cx="153.5" cy="115.5" r="1.5" transform="rotate(-90 153.5 115.5)" fill="#2E90FA"/>
<circle cx="153.5" cy="96.5" r="1.5" transform="rotate(-90 153.5 96.5)" fill="#2E90FA"/>
<circle cx="153.5" cy="77.5" r="1.5" transform="rotate(-90 153.5 77.5)" fill="#2E90FA"/>
<circle cx="153.5" cy="58.5" r="1.5" transform="rotate(-90 153.5 58.5)" fill="#2E90FA"/>
<circle cx="153.5" cy="39.5" r="1.5" transform="rotate(-90 153.5 39.5)" fill="#2E90FA"/>
<circle cx="153.5" cy="20.5" r="1.5" transform="rotate(-90 153.5 20.5)" fill="#2E90FA"/>
<circle cx="153.5" cy="1.50001" r="1.5" transform="rotate(-90 153.5 1.50001)" fill="#2E90FA"/>
<circle cx="172.5" cy="134.5" r="1.5" transform="rotate(-90 172.5 134.5)" fill="#2E90FA"/>
<circle cx="172.5" cy="115.5" r="1.5" transform="rotate(-90 172.5 115.5)" fill="#2E90FA"/>
<circle cx="172.5" cy="96.5" r="1.5" transform="rotate(-90 172.5 96.5)" fill="#2E90FA"/>
<circle cx="172.5" cy="77.5" r="1.5" transform="rotate(-90 172.5 77.5)" fill="#2E90FA"/>
<circle cx="172.5" cy="58.5" r="1.5" transform="rotate(-90 172.5 58.5)" fill="#2E90FA"/>
<circle cx="172.5" cy="39.5" r="1.5" transform="rotate(-90 172.5 39.5)" fill="#2E90FA"/>
<circle cx="172.5" cy="20.5" r="1.5" transform="rotate(-90 172.5 20.5)" fill="#2E90FA"/>
<circle cx="172.5" cy="1.50001" r="1.5" transform="rotate(-90 172.5 1.50001)" fill="#2E90FA"/>
<circle cx="191.5" cy="134.5" r="1.5" transform="rotate(-90 191.5 134.5)" fill="#2E90FA"/>
<circle cx="191.5" cy="115.5" r="1.5" transform="rotate(-90 191.5 115.5)" fill="#2E90FA"/>
<circle cx="191.5" cy="96.5" r="1.5" transform="rotate(-90 191.5 96.5)" fill="#2E90FA"/>
<circle cx="191.5" cy="77.5" r="1.5" transform="rotate(-90 191.5 77.5)" fill="#2E90FA"/>
<circle cx="191.5" cy="58.5" r="1.5" transform="rotate(-90 191.5 58.5)" fill="#2E90FA"/>
<circle cx="191.5" cy="39.5" r="1.5" transform="rotate(-90 191.5 39.5)" fill="#2E90FA"/>
<circle cx="191.5" cy="20.5" r="1.5" transform="rotate(-90 191.5 20.5)" fill="#2E90FA"/>
<circle cx="191.5" cy="1.50001" r="1.5" transform="rotate(-90 191.5 1.50001)" fill="#2E90FA"/>
<circle cx="210.5" cy="134.5" r="1.5" transform="rotate(-90 210.5 134.5)" fill="#2E90FA"/>
<circle cx="210.5" cy="115.5" r="1.5" transform="rotate(-90 210.5 115.5)" fill="#2E90FA"/>
<circle cx="210.5" cy="96.5" r="1.5" transform="rotate(-90 210.5 96.5)" fill="#2E90FA"/>
<circle cx="210.5" cy="77.5" r="1.5" transform="rotate(-90 210.5 77.5)" fill="#2E90FA"/>
<circle cx="210.5" cy="58.5" r="1.5" transform="rotate(-90 210.5 58.5)" fill="#2E90FA"/>
<circle cx="210.5" cy="39.5" r="1.5" transform="rotate(-90 210.5 39.5)" fill="#2E90FA"/>
<circle cx="210.5" cy="20.5" r="1.5" transform="rotate(-90 210.5 20.5)" fill="#2E90FA"/>
<circle cx="210.5" cy="1.50001" r="1.5" transform="rotate(-90 210.5 1.50001)" fill="#2E90FA"/>
<circle cx="229.5" cy="134.5" r="1.5" transform="rotate(-90 229.5 134.5)" fill="#2E90FA"/>
<circle cx="229.5" cy="115.5" r="1.5" transform="rotate(-90 229.5 115.5)" fill="#2E90FA"/>
<circle cx="229.5" cy="96.5" r="1.5" transform="rotate(-90 229.5 96.5)" fill="#2E90FA"/>
<circle cx="229.5" cy="77.5" r="1.5" transform="rotate(-90 229.5 77.5)" fill="#2E90FA"/>
<circle cx="229.5" cy="58.5" r="1.5" transform="rotate(-90 229.5 58.5)" fill="#2E90FA"/>
<circle cx="229.5" cy="39.5" r="1.5" transform="rotate(-90 229.5 39.5)" fill="#2E90FA"/>
<circle cx="229.5" cy="20.5" r="1.5" transform="rotate(-90 229.5 20.5)" fill="#2E90FA"/>
<circle cx="229.5" cy="1.50001" r="1.5" transform="rotate(-90 229.5 1.50001)" fill="#2E90FA"/>
<circle cx="248.5" cy="134.5" r="1.5" transform="rotate(-90 248.5 134.5)" fill="#2E90FA"/>
<circle cx="248.5" cy="115.5" r="1.5" transform="rotate(-90 248.5 115.5)" fill="#2E90FA"/>
<circle cx="248.5" cy="96.5" r="1.5" transform="rotate(-90 248.5 96.5)" fill="#2E90FA"/>
<circle cx="248.5" cy="77.5" r="1.5" transform="rotate(-90 248.5 77.5)" fill="#2E90FA"/>
<circle cx="248.5" cy="58.5" r="1.5" transform="rotate(-90 248.5 58.5)" fill="#2E90FA"/>
<circle cx="248.5" cy="39.5" r="1.5" transform="rotate(-90 248.5 39.5)" fill="#2E90FA"/>
<circle cx="248.5" cy="20.5" r="1.5" transform="rotate(-90 248.5 20.5)" fill="#2E90FA"/>
<circle cx="248.5" cy="1.50001" r="1.5" transform="rotate(-90 248.5 1.50001)" fill="#2E90FA"/>
<circle cx="267.5" cy="134.5" r="1.5" transform="rotate(-90 267.5 134.5)" fill="#2E90FA"/>
<circle cx="267.5" cy="115.5" r="1.5" transform="rotate(-90 267.5 115.5)" fill="#2E90FA"/>
<circle cx="267.5" cy="96.5" r="1.5" transform="rotate(-90 267.5 96.5)" fill="#2E90FA"/>
<circle cx="267.5" cy="77.5" r="1.5" transform="rotate(-90 267.5 77.5)" fill="#2E90FA"/>
<circle cx="267.5" cy="58.5" r="1.5" transform="rotate(-90 267.5 58.5)" fill="#2E90FA"/>
<circle cx="267.5" cy="39.5" r="1.5" transform="rotate(-90 267.5 39.5)" fill="#2E90FA"/>
<circle cx="267.5" cy="20.5" r="1.5" transform="rotate(-90 267.5 20.5)" fill="#2E90FA"/>
<circle cx="267.5" cy="1.5" r="1.5" transform="rotate(-90 267.5 1.5)" fill="#2E90FA"/>
<circle cx="286.5" cy="134.5" r="1.5" transform="rotate(-90 286.5 134.5)" fill="#2E90FA"/>
<circle cx="286.5" cy="115.5" r="1.5" transform="rotate(-90 286.5 115.5)" fill="#2E90FA"/>
<circle cx="286.5" cy="96.5" r="1.5" transform="rotate(-90 286.5 96.5)" fill="#2E90FA"/>
<circle cx="286.5" cy="77.5" r="1.5" transform="rotate(-90 286.5 77.5)" fill="#2E90FA"/>
<circle cx="286.5" cy="58.5" r="1.5" transform="rotate(-90 286.5 58.5)" fill="#2E90FA"/>
<circle cx="286.5" cy="39.5" r="1.5" transform="rotate(-90 286.5 39.5)" fill="#2E90FA"/>
<circle cx="286.5" cy="20.5" r="1.5" transform="rotate(-90 286.5 20.5)" fill="#2E90FA"/>
<circle cx="286.5" cy="1.5" r="1.5" transform="rotate(-90 286.5 1.5)" fill="#2E90FA"/>
<circle cx="305.5" cy="134.5" r="1.5" transform="rotate(-90 305.5 134.5)" fill="#2E90FA"/>
<circle cx="305.5" cy="115.5" r="1.5" transform="rotate(-90 305.5 115.5)" fill="#2E90FA"/>
<circle cx="305.5" cy="96.5" r="1.5" transform="rotate(-90 305.5 96.5)" fill="#2E90FA"/>
<circle cx="305.5" cy="77.5" r="1.5" transform="rotate(-90 305.5 77.5)" fill="#2E90FA"/>
<circle cx="305.5" cy="58.5" r="1.5" transform="rotate(-90 305.5 58.5)" fill="#2E90FA"/>
<circle cx="305.5" cy="39.5" r="1.5" transform="rotate(-90 305.5 39.5)" fill="#2E90FA"/>
<circle cx="305.5" cy="20.5" r="1.5" transform="rotate(-90 305.5 20.5)" fill="#2E90FA"/>
<circle cx="305.5" cy="1.5" r="1.5" transform="rotate(-90 305.5 1.5)" fill="#2E90FA"/>
<circle cx="324.5" cy="134.5" r="1.5" transform="rotate(-90 324.5 134.5)" fill="#2E90FA"/>
<circle cx="324.5" cy="115.5" r="1.5" transform="rotate(-90 324.5 115.5)" fill="#2E90FA"/>
<circle cx="324.5" cy="96.5" r="1.5" transform="rotate(-90 324.5 96.5)" fill="#2E90FA"/>
<circle cx="324.5" cy="77.5" r="1.5" transform="rotate(-90 324.5 77.5)" fill="#2E90FA"/>
<circle cx="324.5" cy="58.5" r="1.5" transform="rotate(-90 324.5 58.5)" fill="#2E90FA"/>
<circle cx="324.5" cy="39.5" r="1.5" transform="rotate(-90 324.5 39.5)" fill="#2E90FA"/>
<circle cx="324.5" cy="20.5" r="1.5" transform="rotate(-90 324.5 20.5)" fill="#2E90FA"/>
<circle cx="324.5" cy="1.5" r="1.5" transform="rotate(-90 324.5 1.5)" fill="#2E90FA"/>
<circle cx="343.5" cy="134.5" r="1.5" transform="rotate(-90 343.5 134.5)" fill="#2E90FA"/>
<circle cx="343.5" cy="115.5" r="1.5" transform="rotate(-90 343.5 115.5)" fill="#2E90FA"/>
<circle cx="343.5" cy="96.5" r="1.5" transform="rotate(-90 343.5 96.5)" fill="#2E90FA"/>
<circle cx="343.5" cy="77.5" r="1.5" transform="rotate(-90 343.5 77.5)" fill="#2E90FA"/>
<circle cx="343.5" cy="58.5" r="1.5" transform="rotate(-90 343.5 58.5)" fill="#2E90FA"/>
<circle cx="343.5" cy="39.5" r="1.5" transform="rotate(-90 343.5 39.5)" fill="#2E90FA"/>
<circle cx="343.5" cy="20.5" r="1.5" transform="rotate(-90 343.5 20.5)" fill="#2E90FA"/>
<circle cx="343.5" cy="1.5" r="1.5" transform="rotate(-90 343.5 1.5)" fill="#2E90FA"/>
<circle cx="362.5" cy="134.5" r="1.5" transform="rotate(-90 362.5 134.5)" fill="#2E90FA"/>
<circle cx="362.5" cy="115.5" r="1.5" transform="rotate(-90 362.5 115.5)" fill="#2E90FA"/>
<circle cx="362.5" cy="96.5" r="1.5" transform="rotate(-90 362.5 96.5)" fill="#2E90FA"/>
<circle cx="362.5" cy="77.5" r="1.5" transform="rotate(-90 362.5 77.5)" fill="#2E90FA"/>
<circle cx="362.5" cy="58.5" r="1.5" transform="rotate(-90 362.5 58.5)" fill="#2E90FA"/>
<circle cx="362.5" cy="39.5" r="1.5" transform="rotate(-90 362.5 39.5)" fill="#2E90FA"/>
<circle cx="362.5" cy="20.5" r="1.5" transform="rotate(-90 362.5 20.5)" fill="#2E90FA"/>
<circle cx="362.5" cy="1.5" r="1.5" transform="rotate(-90 362.5 1.5)" fill="#2E90FA"/>
<circle cx="381.5" cy="134.5" r="1.5" transform="rotate(-90 381.5 134.5)" fill="#2E90FA"/>
<circle cx="381.5" cy="115.5" r="1.5" transform="rotate(-90 381.5 115.5)" fill="#2E90FA"/>
<circle cx="381.5" cy="96.5" r="1.5" transform="rotate(-90 381.5 96.5)" fill="#2E90FA"/>
<circle cx="381.5" cy="77.5" r="1.5" transform="rotate(-90 381.5 77.5)" fill="#2E90FA"/>
<circle cx="381.5" cy="58.5" r="1.5" transform="rotate(-90 381.5 58.5)" fill="#2E90FA"/>
<circle cx="381.5" cy="39.5" r="1.5" transform="rotate(-90 381.5 39.5)" fill="#2E90FA"/>
<circle cx="381.5" cy="20.5" r="1.5" transform="rotate(-90 381.5 20.5)" fill="#2E90FA"/>
<circle cx="381.5" cy="1.5" r="1.5" transform="rotate(-90 381.5 1.5)" fill="#2E90FA"/>
</svg>
