<svg width="35" height="14" viewBox="0 0 35 14" fill="none" xmlns="http://www.w3.org/2000/svg">
<g clip-path="url(#clip0_77_4435)">
<path fill-rule="evenodd" clip-rule="evenodd" d="M16.1669 4.78563L16.0397 3.6734C14.8683 3.28246 12.9704 3.07386 11.9626 4.02971C10.5822 5.28952 11.0363 8.47834 13.7969 8.53922C15.1862 8.5913 15.7674 8.24378 16.4848 8.03518C16.4121 7.96565 16.3213 7.86149 16.3031 7.77451L16.3123 6.55813C16.3213 6.41906 16.3939 6.34087 16.4938 6.23658H15.3768C15.4858 6.34953 15.5586 6.41041 15.5676 6.57544L15.5858 7.957C13.7423 8.56519 12.3711 8.03518 12.0806 6.65363C11.8082 4.7422 12.5165 3.76038 14.0692 3.68206C15.1135 3.66474 15.7492 4.03837 16.1669 4.78563Z" fill="#005291"/>
<path fill-rule="evenodd" clip-rule="evenodd" d="M20.8216 3.35377L20.8392 3.93915C20.7161 3.8343 20.5667 3.69455 20.3734 3.69455L18.8357 3.70321V5.47722H20.3296C20.3998 5.47722 20.4701 5.40728 20.514 5.34613V6.19369C20.4701 6.14134 20.3734 6.0277 20.3207 6.0277H18.8357V8.1774H20.5316C20.7776 8.19485 21.0236 7.88897 21.1467 7.79291L21.0061 8.54443H17.9746C18.0186 8.50073 18.1328 8.33474 18.1328 8.18619V3.70321C18.1328 3.50231 18.045 3.40612 17.9746 3.34497L20.8216 3.35377Z" fill="#005291"/>
<path fill-rule="evenodd" clip-rule="evenodd" d="M27.0144 3.34497L24.8073 8.25751C24.7805 8.35315 24.709 8.45745 24.5303 8.52698L25.6294 8.53577C25.5132 8.45745 25.4864 8.38792 25.4864 8.30959L26.0047 7.01419H27.8274L28.4262 8.27483C28.4529 8.38792 28.3636 8.45745 28.1849 8.54443L29.6056 8.53577C29.4715 8.4661 29.3822 8.42268 29.275 8.25751C29.275 8.25751 27.0233 3.36242 27.0144 3.34497ZM26.9339 4.70138L26.1655 6.44901L27.6845 6.45767C27.6845 6.45767 26.9429 4.70138 26.9339 4.70138Z" fill="#005291"/>
<path fill-rule="evenodd" clip-rule="evenodd" d="M4.30994 8.54443C4.35463 8.50073 4.47094 8.33474 4.47094 8.18619V5.93165H1.6795V8.18619C1.6795 8.33474 1.78693 8.50073 1.83162 8.54443H0.749023C0.793715 8.50073 0.901143 8.33474 0.901143 8.18619V3.70321C0.910024 3.50231 0.811619 3.40612 0.749023 3.34497H1.83162C1.76903 3.40612 1.67062 3.50231 1.6795 3.70321V5.46842H4.47094V3.70321C4.47094 3.50231 4.38142 3.40612 4.30994 3.34497H5.40142C5.3298 3.40612 5.24042 3.50231 5.24042 3.70321V8.18619C5.24042 8.33474 5.35673 8.50073 5.40142 8.54443H4.30994Z" fill="#005291"/>
<path fill-rule="evenodd" clip-rule="evenodd" d="M25.5076 11.0403C25.5155 11.0223 25.5469 10.9683 25.5469 10.9233V10.2038H24.7825V10.9233C24.7825 10.9683 24.8139 11.0223 24.8297 11.0403H24.5303C24.5461 11.0223 24.5775 10.9683 24.5775 10.9233V9.4934C24.5775 9.43047 24.5461 9.39447 24.5303 9.37646H24.8297C24.8062 9.39447 24.7825 9.43047 24.7825 9.4934V10.051H25.5469V9.4934C25.5469 9.43047 25.5232 9.39447 25.5076 9.37646H25.7991C25.7833 9.39447 25.7596 9.43047 25.7596 9.4934V10.9233C25.7596 10.9683 25.7912 11.0223 25.7991 11.0403H25.5076Z" fill="#005291"/>
<path fill-rule="evenodd" clip-rule="evenodd" d="M28.9662 9.37646C29.4429 9.37646 29.8168 9.74625 29.8168 10.2084C29.8168 10.6705 29.4429 11.0403 28.9662 11.0403C28.4989 11.0403 28.125 10.6705 28.125 10.2084C28.125 9.74625 28.4989 9.37646 28.9662 9.37646ZM28.9662 9.57063C29.2933 9.57063 29.5644 9.85714 29.5644 10.2084C29.5644 10.5688 29.2933 10.8555 28.9662 10.8555C28.6485 10.8555 28.3774 10.5688 28.3774 10.2084C28.3774 9.85714 28.6485 9.57063 28.9662 9.57063Z" fill="#005291"/>
<path fill-rule="evenodd" clip-rule="evenodd" d="M26.3253 9.37646H26.5165L27.05 10.5096L27.5278 9.37646H27.8305C27.7986 9.4034 27.7746 9.43047 27.7746 9.4754C27.7746 9.4754 27.8783 10.6445 27.918 10.9053C27.9263 10.9595 27.9658 10.9953 28.0136 11.0403H27.5437C27.5836 10.9953 27.6314 10.9651 27.6314 10.9144C27.6314 10.7195 27.5437 9.87116 27.5437 9.87116L27.0503 11.0223L26.5247 9.88009C26.5247 9.88009 26.3999 10.7224 26.3892 10.9144C26.3868 10.9597 26.4211 10.9953 26.461 11.0313H26.1104C26.1581 11.0043 26.1824 10.9606 26.19 10.9144C26.2324 10.6536 26.3652 9.46633 26.3652 9.46633C26.3652 9.44833 26.3572 9.4034 26.3253 9.37646Z" fill="#005291"/>
<path fill-rule="evenodd" clip-rule="evenodd" d="M22.2568 8.54736C22.3125 8.50366 22.4572 8.33767 22.4572 8.18912V3.70614C22.4572 3.50524 22.3459 3.40905 22.2568 3.3479H23.4418C23.3527 3.40905 23.2415 3.50524 23.2415 3.70614V8.18912C23.2415 8.33767 23.3861 8.50366 23.4418 8.54736H22.2568Z" fill="#005291"/>
<path fill-rule="evenodd" clip-rule="evenodd" d="M8.00626 6.57062C7.31559 6.03017 6.71332 5.30229 6.47647 3.75226C6.45025 3.60564 6.34522 3.46713 6.23145 3.34497L7.50056 3.35308C7.37805 3.47524 7.25554 3.58929 7.25554 3.77672C7.29924 4.30618 7.3531 5.14784 8.38113 6.12512C8.42639 6.168 8.53382 6.25567 8.53382 6.25567L8.17812 6.68481C8.17812 6.68481 8.07351 6.62311 8.00626 6.57062Z" fill="#E33E3C"/>
<path fill-rule="evenodd" clip-rule="evenodd" d="M8.38151 6.31201C7.56142 7.04236 7.4499 8.01044 8.14452 8.8374C8.29833 9.02057 8.38151 9.10041 8.42536 9.17914C8.52193 9.3292 8.5834 9.51251 8.56591 9.7626C8.77837 9.61598 8.84421 9.1944 8.62724 8.88741C8.14325 8.20268 7.77966 7.52908 8.74144 6.76217C9.45227 6.19521 10.181 5.46197 10.4269 3.76175C10.4531 3.61169 10.5673 3.47002 10.6726 3.34497L9.39982 3.35335C9.52262 3.47826 9.65429 3.59506 9.65429 3.78676C9.60171 4.32844 9.429 5.37924 8.38151 6.31201Z" fill="#18BC2B"/>
<path fill-rule="evenodd" clip-rule="evenodd" d="M8.86238 6.66602C8.86798 6.67256 8.87357 6.68074 8.87637 6.6851C9.10854 7.03 9.23441 7.41307 9.22323 7.75524C9.20365 8.4145 8.61343 8.75994 8.4372 9.20817C8.3337 9.46609 8.36167 9.65095 8.47356 10.0005C8.03439 9.68994 8.11272 9.15201 8.20782 8.89381C8.35048 8.51292 8.76168 8.27517 8.76448 7.70289C8.76448 7.42206 8.65538 7.2214 8.48475 6.99919C8.55748 6.92121 8.6442 6.84215 8.7421 6.76226C8.78406 6.73091 8.82322 6.69873 8.86238 6.66602Z" fill="#E33E3C"/>
</g>
<defs>
<clipPath id="clip0_77_4435">
<rect width="33.3861" height="13.3544" fill="white" transform="translate(0.68457 0.518311)"/>
</clipPath>
</defs>
</svg>
