<svg width="166" height="37" viewBox="0 0 166 37" fill="none" xmlns="http://www.w3.org/2000/svg">
<path d="M37.2671 17.0811C37.4952 15.7767 36.9249 14.4142 35.8415 13.6896C35.0146 13.1388 33.9597 12.9649 33.0187 13.2837C32.9047 13.3127 32.7907 13.3707 32.6481 13.4287C32.1064 13.6896 31.6217 14.0954 31.1369 14.4432C29.8254 15.3418 28.0291 15.2839 26.7175 14.3853C25.5771 13.6316 24.8928 12.2982 24.8928 10.9357C24.8928 9.77625 25.4915 8.87764 26.0047 7.89206C26.1758 7.60219 26.3184 7.28332 26.4324 6.96446C26.8886 5.718 26.8886 4.26863 26.3469 3.02217C25.9477 2.09457 25.2634 1.28292 24.3795 0.761141C21.3572 -1.09406 17.5366 0.616207 16.6812 4.00774C15.3412 9.34144 18.1354 15.2839 22.5262 18.2406C24.6647 19.69 27.1452 20.5016 29.7113 20.5886C30.9088 20.6176 32.1349 20.5306 33.3039 20.2407C33.6175 20.1538 33.9311 20.0668 34.2448 19.9798C34.6725 19.8349 35.0716 19.69 35.4423 19.487C36.3547 18.9943 37.0675 18.2406 37.2671 17.0811ZM35.2712 18.7624C34.4159 19.2551 33.3324 19.4581 32.363 19.487C30.8518 19.516 29.3122 19.1102 27.9721 18.1826C25.8907 16.7622 24.7217 14.5012 24.6076 12.1532C24.8072 13.1098 25.2634 13.9794 26.0332 14.6751C26.2043 14.8491 26.4039 14.994 26.6035 15.1389C27.6014 15.8056 28.8275 16.0375 29.9965 15.8056C31.194 15.5447 31.8497 14.6751 32.9047 14.1534C33.8741 13.6606 34.758 13.8345 35.3853 14.3563C36.6968 15.3418 37.0675 17.6898 35.2712 18.7624Z" fill="#3BAA90"/>
<path d="M7.4433 2.7613C6.21727 3.2251 5.33339 4.41359 5.27637 5.71802C5.21934 6.73258 5.61851 7.74714 6.33132 8.41385C6.41686 8.50082 6.5309 8.58778 6.61644 8.64576C7.10115 8.99361 7.69991 9.19652 8.24164 9.48639C9.66725 10.1821 10.4941 11.8054 10.4086 13.3997C10.323 14.7621 9.5532 16.0376 8.3842 16.7333C7.38627 17.313 6.30281 17.226 5.24785 17.255C4.9057 17.255 4.56356 17.284 4.24992 17.342C2.93836 17.5739 1.71233 18.2986 0.942503 19.4001C0.343745 20.2407 0.00159725 21.2263 0.00159725 22.2409C-0.0839395 25.8353 3.28051 28.3282 6.61644 27.4006C11.8342 25.9223 15.4838 20.4726 15.8259 15.139C15.997 12.5591 15.4552 9.92121 14.2577 7.6312C13.6875 6.55866 12.9747 5.54409 12.1763 4.64548C11.9482 4.41358 11.7201 4.18168 11.492 3.94979C11.1784 3.63092 10.8363 3.37004 10.4656 3.13814C9.5247 2.61637 8.52677 2.35547 7.4433 2.7613ZM9.86684 3.6889C10.7222 4.18169 11.435 5.05131 11.9197 5.89195C12.7181 7.19639 13.1172 8.76171 13.0032 10.414C12.8321 12.9359 11.492 15.11 9.55321 16.3854C10.266 15.7477 10.7792 14.8781 10.9788 13.8925C11.0358 13.6606 11.0644 13.3997 11.0929 13.1388C11.1784 11.9213 10.7507 10.7039 9.95238 9.80526C9.12552 8.87766 8.07057 8.73272 7.10115 8.06601C6.21727 7.45727 5.90364 6.58765 6.01769 5.776C6.24578 4.1527 8.04206 2.64535 9.86684 3.6889Z" fill="#3BAA90"/>
<path d="M10.1807 36.2128C11.1787 37.0534 12.6328 37.2273 13.8018 36.6476C14.6857 36.2128 15.37 35.3432 15.5695 34.3576C15.5981 34.2416 15.6266 34.0967 15.6266 33.9807C15.6836 33.372 15.5695 32.7633 15.5125 32.1545C15.3985 30.5312 16.3679 28.9949 17.765 28.2992C18.991 27.6905 20.4451 27.7194 21.6141 28.4151C22.6121 28.9949 23.0683 29.9805 23.6385 30.9081C23.8096 31.198 24.0092 31.4878 24.2088 31.7487C25.0641 32.7923 26.2901 33.488 27.6017 33.6329C28.5996 33.7488 29.6261 33.5459 30.51 33.0531C33.5893 31.3139 34.0455 27.1107 31.5934 24.6468C27.7443 20.7914 21.2435 20.2987 16.539 22.6467C14.258 23.8062 12.2906 25.5744 10.9505 27.7774C10.3233 28.821 9.81006 29.9515 9.4394 31.111C9.35387 31.4298 9.26833 31.7487 9.18279 32.0676C9.09725 32.5024 9.01172 32.9372 9.01172 33.372C9.01172 34.4446 9.26833 35.4301 10.1807 36.2128ZM9.75304 33.6039C9.75304 32.6183 10.1522 31.5458 10.6084 30.6762C11.3212 29.3427 12.4617 28.1833 13.9158 27.4586C16.1683 26.3281 18.6774 26.444 20.7303 27.5165C19.8179 27.1977 18.8199 27.1977 17.879 27.5165C17.6509 27.5745 17.4228 27.6905 17.1947 27.8064C16.1113 28.3572 15.3129 29.3138 14.9423 30.4733C14.5431 31.6618 14.9708 32.6763 14.9138 33.8648C14.8567 34.9373 14.258 35.633 13.4881 35.9519C11.9485 36.5606 9.75304 35.72 9.75304 33.6039Z" fill="#3BAA90"/>
<path d="M33.3896 4.23982V2.64551H34.0739C34.1595 2.64551 34.2735 2.6745 34.3306 2.70349C34.4161 2.73247 34.4731 2.79045 34.5016 2.84842C34.5301 2.9064 34.5587 2.99336 34.5587 3.08032V3.10931C34.5587 3.19627 34.5301 3.28323 34.5016 3.34121C34.4446 3.39918 34.3876 3.45716 34.3306 3.48614V3.51513C34.3876 3.51513 34.4446 3.54413 34.4731 3.57311C34.5016 3.6021 34.5301 3.66008 34.5301 3.71805V4.23982H34.2165V3.74704C34.2165 3.71805 34.2165 3.68906 34.188 3.66007C34.1595 3.63108 34.131 3.63108 34.1025 3.63108H33.6463V4.23982H33.3896ZM33.6463 3.3702H34.0169C34.1025 3.3702 34.1595 3.34121 34.188 3.31223C34.245 3.28324 34.245 3.22526 34.245 3.1383V3.10931C34.245 3.05134 34.2165 2.99336 34.188 2.93538C34.131 2.9064 34.0739 2.87741 34.0169 2.87741H33.6463V3.3702Z" fill="#3BAA90"/>
<path d="M33.8746 5.16735C32.9337 5.16735 32.1924 4.38469 32.1924 3.45709C32.1924 2.50051 32.9622 1.74683 33.8746 1.74683C34.8155 1.74683 35.5568 2.52949 35.5568 3.45709C35.5568 4.38469 34.8155 5.16735 33.8746 5.16735ZM33.8746 2.09468C33.1618 2.09468 32.563 2.70342 32.563 3.4281C32.563 4.15279 33.1618 4.76153 33.8746 4.76153C34.5874 4.76153 35.1862 4.15279 35.1862 3.4281C35.1862 2.70342 34.5874 2.09468 33.8746 2.09468Z" fill="#3BAA90"/>
<path d="M42.8555 25.0245V12.386H45.3931V13.8644H45.7922C46.0203 13.4296 46.4195 13.0237 46.9327 12.6759C47.4459 12.328 48.1588 12.1541 49.0426 12.1541C49.955 12.1541 50.6963 12.357 51.2666 12.7339C51.8368 13.1107 52.2645 13.6035 52.5496 14.2122H52.9488C53.2339 13.6325 53.6616 13.1397 54.2034 12.7628C54.7451 12.357 55.5149 12.1831 56.5414 12.1831C57.3397 12.1831 58.0525 12.357 58.6798 12.6759C59.307 12.9947 59.7918 13.5165 60.1624 14.1542C60.5331 14.821 60.7041 15.6326 60.7041 16.5892V24.9956H58.1095V16.7921C58.1095 16.0094 57.9099 15.4297 57.4823 15.0239C57.0831 14.618 56.4843 14.3861 55.743 14.3861C54.9447 14.3861 54.2889 14.647 53.8042 15.1688C53.3195 15.6906 53.0629 16.4443 53.0629 17.4588V24.9956H50.4682V16.7921C50.4682 16.0094 50.2687 15.4297 49.841 15.0239C49.4418 14.618 48.8431 14.3861 48.1017 14.3861C47.3034 14.3861 46.6476 14.647 46.1629 15.1688C45.6782 15.6906 45.4216 16.4443 45.4216 17.4588V24.9956H42.8555V25.0245Z" fill="#070707"/>
<path d="M65.067 30.1544V27.8354H71.9955C72.4517 27.8354 72.7083 27.5745 72.7083 27.0527V23.1684H72.3091C72.1666 23.5163 71.9385 23.8351 71.6248 24.154C71.3112 24.4728 70.912 24.7337 70.3703 24.9366C69.8571 25.1396 69.2013 25.2555 68.4029 25.2555C67.462 25.2555 66.6352 25.0526 65.8939 24.6178C65.1525 24.183 64.5823 23.5742 64.1546 22.7916C63.7269 22.0089 63.5273 21.0813 63.5273 20.0088V12.4141H66.122V19.8059C66.122 20.9074 66.3786 21.719 66.9203 22.2408C67.462 22.7626 68.2034 23.0235 69.1728 23.0235C70.2277 23.0235 71.0831 22.6756 71.7389 21.9509C72.3947 21.2262 72.7083 20.1827 72.7083 18.8203V12.4141H75.3029V27.6325C75.3029 28.4151 75.0748 29.0239 74.6471 29.4877C74.1909 29.9515 73.5922 30.1834 72.8223 30.1834H65.067V30.1544Z" fill="#070707"/>
<path d="M84.2266 25.4005C83.0291 25.4005 81.9456 25.1396 80.9762 24.6178C80.0068 24.096 79.2369 23.3713 78.6952 22.3858C78.125 21.4002 77.8398 20.2407 77.8398 18.8783V18.5594C77.8398 17.197 78.125 16.0375 78.6952 15.0519C79.2655 14.0953 80.0353 13.3417 80.9762 12.8199C81.9456 12.2981 83.0291 12.0372 84.2266 12.0372C85.4241 12.0372 86.422 12.2691 87.2774 12.7039C88.1042 13.1388 88.7886 13.7475 89.3018 14.4722C89.815 15.1969 90.1571 16.0085 90.2997 16.9071L87.7906 17.4579C87.7051 16.9071 87.534 16.3854 87.2489 15.9216C86.9923 15.4578 86.5931 15.0809 86.1084 14.82C85.6237 14.5591 84.9964 14.4142 84.2551 14.4142C83.5423 14.4142 82.8865 14.5881 82.3163 14.907C81.746 15.2259 81.2898 15.7186 80.9477 16.3274C80.6055 16.9651 80.4345 17.7188 80.4345 18.5884V18.8203C80.4345 19.7189 80.6055 20.4726 80.9477 21.1103C81.2898 21.748 81.746 22.2118 82.3163 22.5307C82.8865 22.8496 83.5423 23.0235 84.2551 23.0235C85.3386 23.0235 86.1654 22.7336 86.7357 22.1539C87.3059 21.5741 87.6766 20.8494 87.8191 19.9508L90.3282 20.5306C90.1286 21.4002 89.758 22.2118 89.2447 22.9365C88.7315 23.6612 88.0472 24.2699 87.2204 24.7048C86.4506 25.1686 85.4241 25.4005 84.2266 25.4005Z" fill="#070707"/>
<path d="M98.5686 25.4005C97.314 25.4005 96.2306 25.1396 95.2611 24.6178C94.2917 24.096 93.5219 23.3424 92.9802 22.3858C92.4384 21.4002 92.1533 20.2697 92.1533 18.9363V18.5594C92.1533 17.226 92.4384 16.0665 92.9802 15.1099C93.5219 14.1533 94.2917 13.3997 95.2611 12.8779C96.2306 12.3561 97.3426 12.0952 98.5686 12.0952C99.8231 12.0952 100.907 12.3561 101.905 12.8779C102.874 13.3997 103.644 14.1533 104.185 15.1099C104.727 16.0665 105.012 17.226 105.012 18.5594V18.9363C105.012 20.2697 104.727 21.4292 104.185 22.3858C103.644 23.3713 102.874 24.096 101.905 24.6178C100.935 25.1396 99.8231 25.4005 98.5686 25.4005ZM98.5686 23.0235C99.7091 23.0235 100.65 22.6467 101.363 21.922C102.076 21.1683 102.446 20.1537 102.446 18.8493V18.6174C102.446 17.313 102.104 16.2694 101.391 15.5447C100.678 14.791 99.7661 14.4432 98.5971 14.4432C97.4851 14.4432 96.5442 14.82 95.8314 15.5447C95.1186 16.2984 94.7479 17.313 94.7479 18.6174V18.8493C94.7479 20.1537 95.1186 21.1973 95.8314 21.922C96.5157 22.6756 97.4566 23.0235 98.5686 23.0235Z" fill="#070707"/>
<path d="M110.058 25.0235L105.867 12.385H108.604L111.912 23.0814H112.311L115.618 12.385H118.356L114.164 25.0235H110.058Z" fill="#070707"/>
<path d="M125.541 25.4005C124.287 25.4005 123.175 25.1396 122.234 24.5889C121.293 24.0381 120.552 23.2844 120.039 22.2989C119.497 21.3133 119.24 20.1828 119.24 18.8783V18.5595C119.24 17.255 119.497 16.0955 120.01 15.11C120.523 14.1244 121.265 13.3707 122.177 12.8199C123.118 12.2692 124.201 12.0083 125.427 12.0083C126.625 12.0083 127.68 12.2692 128.564 12.8199C129.476 13.3707 130.16 14.0954 130.674 15.052C131.187 16.0086 131.443 17.1391 131.443 18.4145V19.4001H121.892C121.92 20.5016 122.291 21.4002 122.975 22.038C123.66 22.7047 124.544 23.0235 125.57 23.0235C126.539 23.0235 127.281 22.7916 127.765 22.3568C128.25 21.922 128.649 21.4002 128.906 20.8205L131.044 21.951C130.816 22.4438 130.474 22.9366 130.018 23.4584C129.562 23.9801 128.991 24.4439 128.279 24.7918C127.594 25.2266 126.653 25.4005 125.541 25.4005ZM121.892 17.429H128.763C128.706 16.4724 128.364 15.7187 127.765 15.1969C127.167 14.6462 126.368 14.3853 125.399 14.3853C124.429 14.3853 123.631 14.6462 123.004 15.1969C122.405 15.7187 122.034 16.4724 121.892 17.429Z" fill="#070707"/>
<path d="M133.924 25.0237V12.3851H136.461V13.8635H136.861C137.06 13.3417 137.374 12.9359 137.83 12.704C138.286 12.4431 138.828 12.3271 139.484 12.3271H140.966V14.7041H139.37C138.543 14.7041 137.83 14.936 137.317 15.3998C136.775 15.8636 136.518 16.5883 136.518 17.5739V24.9947H133.924V25.0237Z" fill="#070707"/>
<path d="M142.791 25.4005C142.193 25.4005 141.708 25.1976 141.309 24.8208C140.91 24.4149 140.71 23.9222 140.71 23.3134C140.71 22.7047 140.91 22.2119 141.309 21.8061C141.708 21.4292 142.193 21.2263 142.791 21.2263C143.39 21.2263 143.875 21.4292 144.274 21.8061C144.673 22.2119 144.873 22.7047 144.873 23.2844C144.873 23.8932 144.673 24.4149 144.274 24.7918C143.875 25.1976 143.39 25.4005 142.791 25.4005Z" fill="#070707"/>
<path d="M152.514 25.4006C151.459 25.4006 150.518 25.1397 149.634 24.6179C148.751 24.0961 148.066 23.3715 147.553 22.4149C147.04 21.4583 146.783 20.2988 146.783 18.9074V18.5306C146.783 17.1681 147.04 16.0086 147.582 15.0231C148.123 14.0665 148.808 13.3128 149.691 12.82C150.575 12.2982 151.516 12.0374 152.543 12.0374C153.74 12.0374 154.681 12.2693 155.337 12.7041C155.993 13.1389 156.477 13.6607 156.791 14.2114H157.19V12.3852H159.728V22.038C159.728 22.5598 159.956 22.8207 160.441 22.8207H161.496V25.0237H159.3C158.701 25.0237 158.245 24.8498 157.874 24.502C157.504 24.1541 157.333 23.6903 157.333 23.1106V22.9367H156.962C156.648 23.6034 156.135 24.1831 155.479 24.6469C154.738 25.1397 153.769 25.4006 152.514 25.4006ZM153.255 23.0816C154.396 23.0816 155.337 22.7047 156.05 21.9801C156.762 21.2554 157.133 20.1828 157.133 18.8204V18.5885C157.133 17.2261 156.762 16.2116 156.05 15.4579C155.308 14.7332 154.396 14.3564 153.255 14.3564C152.144 14.3564 151.231 14.7332 150.49 15.4579C149.748 16.1826 149.406 17.2261 149.406 18.5885V18.8204C149.406 20.1828 149.777 21.2264 150.49 21.9801C151.231 22.7337 152.144 23.0816 153.255 23.0816Z" fill="#070707"/>
<path d="M163.405 25.0237V12.3851H166V25.0237H163.405Z" fill="#070707"/>
</svg>
