<svg width="44" height="51" viewBox="0 0 44 51" fill="none" xmlns="http://www.w3.org/2000/svg">
<path fill-rule="evenodd" clip-rule="evenodd" d="M1 1V29.7879L22.2121 40.3939L42.9192 29.7879V19.6869L23.7273 9.58585L10.0909 15.6465V4.53535L1 1ZM13.6265 24.2323L23.2224 19.1818L32.3133 24.2323L23.2224 29.7878L13.6265 24.2323Z" fill="white"/>
<path d="M1 29.7879H0.364074V30.1809L0.715605 30.3566L1 29.7879ZM1 1L1.23049 0.407314L0.364074 0.0703749V1H1ZM22.2121 40.3939L21.9277 40.9627L22.2156 41.1066L22.502 40.9599L22.2121 40.3939ZM42.9192 29.7879L43.2091 30.3539L43.5551 30.1766V29.7879H42.9192ZM42.9192 19.6869H43.5551V19.3029L43.2153 19.1241L42.9192 19.6869ZM23.7273 9.58585L24.0234 9.02311L23.7507 8.87955L23.469 9.00474L23.7273 9.58585ZM10.0909 15.6465H9.45498V16.625L10.3492 16.2276L10.0909 15.6465ZM10.0909 4.53535H10.7268V4.10034L10.3214 3.94267L10.0909 4.53535ZM23.2224 19.1818L23.5313 18.6259L23.2306 18.4589L22.9263 18.619L23.2224 19.1818ZM13.6265 24.2323L13.3303 23.6695L12.3115 24.2058L13.3079 24.7826L13.6265 24.2323ZM32.3133 24.2323L32.6449 24.7749L33.5757 24.2061L32.6222 23.6764L32.3133 24.2323ZM23.2224 29.7878L22.9038 30.3382L23.2312 30.5277L23.554 30.3305L23.2224 29.7878ZM1.63593 29.7879V1H0.364074V29.7879H1.63593ZM22.4965 39.8251L1.28439 29.2191L0.715605 30.3566L21.9277 40.9627L22.4965 39.8251ZM42.6293 29.2219L21.9222 39.8279L22.502 40.9599L43.2091 30.3539L42.6293 29.2219ZM42.2832 19.6869V29.7879H43.5551V19.6869H42.2832ZM23.4311 10.1486L42.623 20.2496L43.2153 19.1241L24.0234 9.02311L23.4311 10.1486ZM10.3492 16.2276L23.9855 10.167L23.469 9.00474L9.83263 15.0653L10.3492 16.2276ZM9.45498 4.53535V15.6465H10.7268V4.53535H9.45498ZM0.769511 1.59269L9.86041 5.12804L10.3214 3.94267L1.23049 0.407314L0.769511 1.59269ZM22.9263 18.619L13.3303 23.6695L13.9227 24.795L23.5186 19.7445L22.9263 18.619ZM32.6222 23.6764L23.5313 18.6259L22.9136 19.7377L32.0045 24.7882L32.6222 23.6764ZM23.554 30.3305L32.6449 24.7749L31.9817 23.6897L22.8908 29.2452L23.554 30.3305ZM13.3079 24.7826L22.9038 30.3382L23.5411 29.2375L13.9451 23.6819L13.3079 24.7826Z" fill="white"/>
<path d="M1 40.8989V32.8181L22.2121 43.4242L43.4242 33.3232L42.9192 40.8989L22.2121 50.9999L1 40.8989Z" fill="#E18C2F"/>
</svg>
