<svg width="498" height="817" viewBox="0 0 498 817" fill="none" xmlns="http://www.w3.org/2000/svg">
<path d="M21.1767 -11.0242C104.232 17.1703 102.141 98.0994 164.247 147.687C228.402 198.57 262.474 180.151 350.459 248.117C406.176 291.029 418.346 489.788 455.483 544.149C500.418 609.427 576.566 615.759 605.581 687.058C622.823 729.631 639.898 771.997 657.14 814.57" stroke="url(#paint0_linear_1_54252)" stroke-miterlimit="10"/>
<path d="M47.7288 -24.4604C102.972 -5.80462 120.685 36.5217 144.703 77.1116C156.629 97.303 170.148 116.978 190.733 133.367C254.228 184.276 289.125 166.896 374.109 234.901C391.073 248.461 403.222 276.408 413.76 309.835C435.839 380.844 451.521 475.494 475.33 519.979C477.286 523.652 479.313 526.997 481.411 530.015C518.821 583.059 576.44 597.597 612.1 640.16C620.013 649.56 626.763 660.423 632.038 673.198C649.513 715.645 666.512 758.332 683.749 800.899" stroke="url(#paint1_linear_1_54252)" stroke-miterlimit="10"/>
<path d="M74.2596 -37.8739C129.081 -19.3074 146.859 22.6847 171.108 63.148C182.863 83.1295 196.379 102.803 216.72 119.31C279.385 170.038 315.509 153.78 397.256 221.945C413.738 235.744 425.646 263.808 435.776 297.143C457.302 368.709 475.261 461.607 500.514 506.224C502.469 509.896 504.496 513.241 506.831 516.138C545.014 568.485 602.235 583.796 637.884 626.353C645.795 635.751 652.78 646.492 658.054 659.266C675.928 701.792 692.922 744.473 709.916 787.154" stroke="url(#paint2_linear_1_54252)" stroke-miterlimit="10"/>
<path d="M100.791 -51.3125C155.599 -32.7483 173.444 8.91139 197.519 49.1628C209.271 69.1418 222.854 88.4849 242.952 105.11C305.03 155.539 341.908 140.645 420.898 208.731C437.306 222.855 448.33 251.07 458.052 284.315C479.193 356.647 499.263 447.587 525.96 492.338C528.153 495.889 530.179 499.233 532.276 502.25C570.829 553.816 627.656 569.9 663.867 612.746C671.776 622.142 678.759 632.882 684.032 645.654C702.139 688.055 718.891 730.851 736.452 773.82" stroke="url(#paint3_linear_1_54252)" stroke-miterlimit="10"/>
<path d="M127.581 -64.8592C181.967 -46.3843 200.281 -4.97161 223.945 35.1873C235.764 54.836 249.272 74.5032 269.197 90.9192C330.447 141.168 368.314 127.517 444.306 195.642C460.4 210.212 471.017 238.336 480.332 271.489C500.92 344.379 523.264 433.567 551.404 478.45C553.596 482.001 555.622 485.345 557.956 488.241C597.28 539.11 653.71 555.967 689.909 598.805C697.983 608.407 704.964 619.145 710.472 631.795C728.978 674.276 745.725 717.066 763.043 760.148" stroke="url(#paint4_linear_1_54252)" stroke-miterlimit="10"/>
<path d="M154.092 -78.2875C208.061 -59.9012 226.608 -18.6138 250.337 21.213C262.153 40.8594 275.728 60.1969 295.411 76.7313C355.837 126.801 394.457 114.514 467.696 182.559C483.715 197.455 493.449 225.729 502.358 258.792C522.395 332.241 547.013 419.681 576.597 464.697C578.789 468.247 581.051 471.47 583.385 474.366C623.246 524.661 679.282 542.291 715.71 585.004C723.781 594.605 730.76 605.342 736.268 617.99C755.173 660.552 771.678 703.457 788.991 746.534" stroke="url(#paint5_linear_1_54252)" stroke-miterlimit="10"/>
<path d="M180.644 -91.7148C234.429 -73.538 253.041 -32.5839 276.762 7.23688C288.575 26.8803 301.979 46.0077 321.655 62.5397C381.492 112.308 421.029 101.591 491.107 169.469C506.646 184.603 515.902 213.114 524.641 245.966C544.126 319.971 571.016 405.66 602.041 450.808C604.469 454.238 606.731 457.46 609.064 460.355C649.458 510.075 705.335 528.357 741.751 571.063C749.82 580.663 756.964 591.605 762.707 604.131C781.844 646.566 798.106 689.584 815.747 733.069" stroke="url(#paint6_linear_1_54252)" stroke-miterlimit="10"/>
<path d="M207.137 -105.144C260.672 -86.8492 279.588 -46.3475 303.137 -6.73777C314.781 12.6967 328.349 32.0298 347.854 48.3531C406.631 98.064 447.158 88.5881 514.488 156.388C529.953 171.847 538.565 200.389 546.661 233.271C565.595 307.837 594.355 391.692 627.155 437.388C629.583 440.817 631.844 444.039 634.176 446.934C675.345 495.96 730.829 515.014 767.404 557.923C775.638 567.728 782.851 578.342 788.355 590.987C807.655 633.624 824.15 676.517 841.787 719.997" stroke="url(#paint7_linear_1_54252)" stroke-miterlimit="10"/>
<path d="M233.687 -118.573C287.039 -100.487 305.95 -59.9911 329.563 -20.7143C341.203 -1.28268 354.838 17.7202 374.099 34.1616C432.288 83.572 473.494 75.7858 537.904 143.298C553.056 159.202 561.024 187.774 568.951 220.444C587.333 295.567 618.362 377.672 652.601 423.5C655.029 426.929 657.527 430.03 659.858 432.924C701.393 481.169 756.648 501.201 793.449 543.984C801.917 553.667 808.891 564.399 814.631 576.922C834.162 619.433 850.582 662.648 868.213 706.121" stroke="url(#paint8_linear_1_54252)" stroke-miterlimit="10"/>
<path d="M260.496 -132.133C313.428 -114.137 332.641 -74.094 356.247 -34.823C367.717 -15.6009 381.347 3.39902 400.603 19.8379C457.966 69.0684 500.087 62.8509 561.414 129.869C576.252 146.218 583.578 174.82 591.335 207.279C609.096 283.285 642.463 363.314 678.141 409.274C680.805 412.582 683.065 415.803 685.633 418.577C727.7 466.246 782.796 486.93 819.586 529.706C828.052 539.388 835.189 550.326 841.165 562.726C861.094 605.317 877.509 648.525 894.897 692.113" stroke="url(#paint9_linear_1_54252)" stroke-miterlimit="10"/>
<path d="M287.008 -145.565C339.523 -127.657 358.968 -87.7391 382.639 -48.7998C394.343 -29.7003 407.803 -10.9096 426.817 5.64769C483.358 54.6995 525.992 49.9633 584.811 116.782C599.575 133.457 606.02 162.21 613.372 194.578C630.583 271.143 665.815 349.339 703.336 395.519C705.999 398.826 708.496 401.927 711.063 404.7C753.666 451.796 808.202 473.045 845.386 515.902C853.85 525.583 860.986 536.52 866.96 548.919C887.121 591.384 903.294 634.708 921.012 678.704" stroke="url(#paint10_linear_1_54252)" stroke-miterlimit="10"/>
<path d="M313.56 -158.996C365.892 -141.297 385.569 -101.505 409.066 -62.7783C420.766 -43.6816 434.222 -24.8937 453.064 -8.5455C508.78 40.3264 552.092 37.2785 608.233 103.69C622.684 120.809 628.724 149.471 635.67 181.749C652.33 258.87 689.591 335.439 728.786 381.63C731.448 384.937 733.944 388.037 736.51 390.81C779.645 437.331 834.023 459.232 871.362 502.289C879.99 512.175 887.36 522.99 893.166 535.18C913.725 577.726 929.893 621.043 947.605 665.032" stroke="url(#paint11_linear_1_54252)" stroke-miterlimit="10"/>
<path d="M340.051 -172.416C392.133 -154.599 412.113 -115.259 435.437 -76.7436C446.968 -57.8558 460.422 -39.0694 479.021 -22.6028C534.32 26.1769 578.074 24.9365 631.376 90.7352C645.516 108.3 650.914 136.993 657.454 169.18C673.565 246.859 713.093 321.682 753.724 368.007C756.623 371.193 759.118 374.293 761.684 377.066C805.187 422.808 859.576 445.566 896.906 488.618C905.531 498.503 912.9 509.317 918.871 521.712C939.828 564.339 955.754 607.771 973.462 651.755" stroke="url(#paint12_linear_1_54252)" stroke-miterlimit="10"/>
<path d="M366.603 -185.85C418.502 -168.242 438.31 -129.115 461.864 -90.7245C473.392 -71.8394 486.911 -53.3827 505.268 -36.7982C559.743 11.8019 603.936 12.3686 654.803 77.6399C668.867 95.5289 673.552 124.579 679.758 156.348C695.082 234.704 736.706 307.574 779.176 354.117C782.074 357.303 784.806 360.282 787.371 363.054C831.642 408.102 885.399 431.751 922.954 474.677C931.577 484.56 938.944 495.372 945.15 507.646C966.337 550.147 982.022 593.693 1000.06 638.084" stroke="url(#paint13_linear_1_54252)" stroke-miterlimit="10"/>
<path d="M393.373 -199.418C444.857 -181.898 465.134 -143.016 488.516 -104.837C499.875 -86.1601 513.558 -67.4992 531.744 -51.1231C585.4 -2.70091 630.272 -0.447298 678.47 64.4191C692.223 82.7532 696.267 111.833 702.068 143.513C716.844 222.428 760.496 293.674 804.64 340.231C807.537 343.416 810.268 346.395 813.069 349.046C857.875 393.522 911.477 417.822 949.024 460.743C957.644 470.626 965.176 481.643 971.38 493.915C992.966 536.497 1008.65 580.039 1026.44 624.545" stroke="url(#paint14_linear_1_54252)" stroke-miterlimit="10"/>
<path d="M419.925 -212.86C470.991 -195.429 491.736 -156.792 514.945 -118.825C526.301 -100.151 540.05 -81.8191 557.994 -65.325C611.065 -17.2021 656.141 -13.0221 701.906 51.3178C715.348 70.0965 718.987 99.0869 724.384 130.676C738.777 210.354 784.121 279.562 830.101 326.338C833.235 329.402 835.965 332.381 838.529 335.152C883.866 379.055 937.075 404.126 975.014 447.128C983.798 457.215 991.161 468.024 997.601 480.174C1019.42 522.631 1035.02 566.494 1053.05 610.874" stroke="url(#paint15_linear_1_54252)" stroke-miterlimit="10"/>
<path d="M446.458 -226.306C497.345 -209.084 517.918 -170.658 541.359 -132.815C552.948 -114.263 566.291 -96.0204 584.231 -79.5282C636.482 -31.5836 681.999 -25.5972 725.334 38.2173C738.465 57.4409 741.463 86.4612 746.858 118.047C760.467 198.403 808.309 265.747 855.891 312.863C859.023 315.927 861.753 318.905 864.553 321.556C910.423 364.886 963.311 390.401 1001.41 433.605C1010.19 443.691 1017.95 454.585 1023.99 466.647C1046.2 509.185 1061.8 553.043 1079.75 597.745" stroke="url(#paint16_linear_1_54252)" stroke-miterlimit="10"/>
<path d="M472.946 -239.759C523.588 -222.417 544.465 -184.442 567.736 -146.808C579.157 -128.465 592.498 -110.222 610.435 -93.7312C661.872 -45.9628 707.597 -38.0507 748.98 25.0007C761.802 44.6698 764.159 73.7216 769.151 105.218C782.212 186.136 832.083 251.86 881.339 298.99C884.471 302.054 887.437 304.912 890.403 307.769C936.644 350.322 989.548 376.695 1027.64 419.895C1036.42 429.981 1044.18 440.874 1050.62 453.022C1073.07 495.437 1088.43 539.411 1106.54 584.316" stroke="url(#paint17_linear_1_54252)" stroke-miterlimit="10"/>
<path d="M499.316 -253.209C549.791 -236.074 570.906 -198.219 594.01 -160.791C605.432 -142.448 619.01 -124.326 636.543 -107.921C687.412 -60.4455 733.352 -50.6071 772.318 11.9266C784.832 32.0427 786.55 61.129 791.375 92.4191C803.892 173.904 855.397 237.927 906.739 285.162C909.871 288.226 912.837 291.083 916.039 293.82C962.825 335.806 1015.35 362.953 1053.68 406.033C1062.69 415.999 1070.22 427.012 1076.66 439.16C1099.51 481.661 1114.87 525.635 1132.75 570.661" stroke="url(#paint18_linear_1_54252)" stroke-miterlimit="10"/>
<path d="M525.911 -266.79C575.987 -249.741 597.339 -212.005 620.515 -174.904C631.771 -156.766 645.349 -138.644 662.884 -122.239C712.948 -74.935 759.273 -62.9632 795.727 -1.47932C808.1 19.2907 809.012 48.2053 813.434 79.4097C825.171 161.584 878.951 223.872 931.978 271.126C935.347 274.07 938.313 276.928 941.279 279.785C988.611 321.205 1041 349.006 1079.49 392.293C1088.68 402.466 1096.2 413.479 1102.88 425.507C1125.89 468.216 1141.26 512.191 1159.54 557.304" stroke="url(#paint19_linear_1_54252)" stroke-miterlimit="10"/>
<defs>
<linearGradient id="paint0_linear_1_54252" x1="327.406" y1="407.567" x2="421.607" y2="331.6" gradientUnits="userSpaceOnUse">
<stop stop-color="white"/>
<stop offset="1"/>
</linearGradient>
<linearGradient id="paint1_linear_1_54252" x1="353.921" y1="394.048" x2="445.86" y2="319.916" gradientUnits="userSpaceOnUse">
<stop stop-color="white"/>
<stop offset="1"/>
</linearGradient>
<linearGradient id="paint2_linear_1_54252" x1="380.407" y1="380.546" x2="470.111" y2="308.227" gradientUnits="userSpaceOnUse">
<stop stop-color="white"/>
<stop offset="1"/>
</linearGradient>
<linearGradient id="paint3_linear_1_54252" x1="406.91" y1="367.03" x2="494.397" y2="296.508" gradientUnits="userSpaceOnUse">
<stop stop-color="white"/>
<stop offset="1"/>
</linearGradient>
<linearGradient id="paint4_linear_1_54252" x1="433.416" y1="353.515" x2="518.701" y2="284.78" gradientUnits="userSpaceOnUse">
<stop stop-color="white"/>
<stop offset="1"/>
</linearGradient>
<linearGradient id="paint5_linear_1_54252" x1="459.901" y1="340.011" x2="543.005" y2="273.042" gradientUnits="userSpaceOnUse">
<stop stop-color="white"/>
<stop offset="1"/>
</linearGradient>
<linearGradient id="paint6_linear_1_54252" x1="486.407" y1="326.495" x2="567.344" y2="261.283" gradientUnits="userSpaceOnUse">
<stop stop-color="white"/>
<stop offset="1"/>
</linearGradient>
<linearGradient id="paint7_linear_1_54252" x1="512.88" y1="312.995" x2="591.673" y2="249.518" gradientUnits="userSpaceOnUse">
<stop stop-color="white"/>
<stop offset="1"/>
</linearGradient>
<linearGradient id="paint8_linear_1_54252" x1="539.386" y1="299.48" x2="616.047" y2="237.731" gradientUnits="userSpaceOnUse">
<stop stop-color="white"/>
<stop offset="1"/>
</linearGradient>
<linearGradient id="paint9_linear_1_54252" x1="565.913" y1="285.954" x2="640.46" y2="225.917" gradientUnits="userSpaceOnUse">
<stop stop-color="white"/>
<stop offset="1"/>
</linearGradient>
<linearGradient id="paint10_linear_1_54252" x1="592.398" y1="272.447" x2="664.849" y2="214.105" gradientUnits="userSpaceOnUse">
<stop stop-color="white"/>
<stop offset="1"/>
</linearGradient>
<linearGradient id="paint11_linear_1_54252" x1="618.905" y1="258.93" x2="689.276" y2="202.273" gradientUnits="userSpaceOnUse">
<stop stop-color="white"/>
<stop offset="1"/>
</linearGradient>
<linearGradient id="paint12_linear_1_54252" x1="645.369" y1="245.435" x2="713.679" y2="190.445" gradientUnits="userSpaceOnUse">
<stop stop-color="white"/>
<stop offset="1"/>
</linearGradient>
<linearGradient id="paint13_linear_1_54252" x1="671.877" y1="231.917" x2="738.168" y2="178.561" gradientUnits="userSpaceOnUse">
<stop stop-color="white"/>
<stop offset="1"/>
</linearGradient>
<linearGradient id="paint14_linear_1_54252" x1="698.388" y1="218.397" x2="762.748" y2="166.602" gradientUnits="userSpaceOnUse">
<stop stop-color="white"/>
<stop offset="1"/>
</linearGradient>
<linearGradient id="paint15_linear_1_54252" x1="724.903" y1="204.875" x2="787.406" y2="154.581" gradientUnits="userSpaceOnUse">
<stop stop-color="white"/>
<stop offset="1"/>
</linearGradient>
<linearGradient id="paint16_linear_1_54252" x1="751.408" y1="191.355" x2="812.122" y2="142.507" gradientUnits="userSpaceOnUse">
<stop stop-color="white"/>
<stop offset="1"/>
</linearGradient>
<linearGradient id="paint17_linear_1_54252" x1="777.089" y1="178.255" x2="836.766" y2="130.246" gradientUnits="userSpaceOnUse">
<stop stop-color="white"/>
<stop offset="1"/>
</linearGradient>
<linearGradient id="paint18_linear_1_54252" x1="801.557" y1="165.771" x2="861.236" y2="117.761" gradientUnits="userSpaceOnUse">
<stop stop-color="white"/>
<stop offset="1"/>
</linearGradient>
<linearGradient id="paint19_linear_1_54252" x1="825.83" y1="153.385" x2="885.73" y2="105.196" gradientUnits="userSpaceOnUse">
<stop stop-color="white"/>
<stop offset="1"/>
</linearGradient>
</defs>
</svg>
