<svg width="46" height="37" viewBox="0 0 46 37" fill="none" xmlns="http://www.w3.org/2000/svg">
<path d="M9.07613 12.2581L8.10903 10.4961C7.09025 11.0555 6.09442 11.6829 5.14844 12.3613L6.32024 13.9943C7.20073 13.3629 8.12772 12.7786 9.07613 12.2581Z" fill="#4A1FB8"/>
<path d="M15.1076 9.83552L14.5886 7.89355C13.4657 8.19369 12.3489 8.56585 11.2695 8.99941L12.0186 10.8646C13.0238 10.4609 14.0627 10.1148 15.1076 9.83552Z" fill="#4A1FB8"/>
<path d="M35.0329 9.98538C33.9944 9.46641 32.9118 9.0049 31.8134 8.61328L31.1387 10.5066C32.1608 10.8707 33.1683 11.3002 34.1345 11.7833L35.0329 9.98538Z" fill="#4A1FB8"/>
<path d="M43.3804 16.2793L41.9004 17.6383C42.6333 18.4363 43.3248 19.2871 43.9562 20.1658L45.5893 18.994C44.9113 18.0494 44.1683 17.1358 43.3804 16.2793Z" fill="#4A1FB8"/>
<path d="M36.9551 13.4135C37.8565 14.0115 38.7322 14.6718 39.556 15.3753L40.861 13.8466C39.9757 13.0903 39.035 12.3808 38.0652 11.7383L36.9551 13.4135Z" fill="#4A1FB8"/>
<path d="M0 17.0874L1.52786 18.3932C2.23131 17.5702 2.9928 16.7816 3.79032 16.0496L2.43129 14.5693C1.57406 15.3555 0.756331 16.203 0 17.0874Z" fill="#4A1FB8"/>
<path d="M16.1518 10.7605L17.1615 10.7611L18.3865 8.90365L22.3239 8.93115L20.5621 15.0041C20.5621 15.1813 20.7062 15.3257 20.8834 15.3257H22.5033L25.887 9.05029L28.9927 9.15348C29.8767 9.15348 30.592 8.47647 30.592 7.64127C30.5926 6.80683 29.8761 6.12982 28.9935 6.12982L25.8647 6.23438L22.5036 0.000304053L20.8829 0C20.7057 0.000303931 20.5617 0.144671 20.5617 0.321862L22.3113 6.3526L18.3647 6.3868L17.1607 4.56519L16.151 4.56549C16.0167 4.56549 15.9082 4.67369 15.9082 4.80773V10.5189C15.909 10.6523 16.0178 10.7613 16.1518 10.7605Z" fill="#47BFA3"/>
<path d="M26.033 18.4236C24.7175 18.1238 23.3732 17.9717 22.0353 17.9717C13.6223 17.9717 6.43895 23.7094 4.56704 31.9242C4.20825 33.4987 4.06859 35.0881 4.13196 36.6596H6.14353V36.6592C6.07894 35.2378 6.20112 33.7987 6.52572 32.3736C7.18358 32.5441 10.1246 33.3601 10.0311 34.3064C9.95238 35.1 9.69708 36.0039 9.90953 36.659H11.7583C12.0123 36.4741 12.2571 36.3859 12.4966 36.6379C12.503 36.6449 12.5113 36.652 12.518 36.659H27.1175C23.6812 34.4703 23.1951 30.6035 23.1951 30.6035C22.9526 30.498 23.6463 27.7514 22.566 27.4215C21.484 27.0919 20.8019 27.3561 19.2697 26.6725C17.7354 25.9888 18.3099 25.0334 18.5618 22.7534C18.6694 21.7805 18.917 20.9096 19.2324 20.2253C20.1439 20.0649 21.0802 19.9811 22.035 19.9811C23.2221 19.9811 24.4175 20.1161 25.5869 20.3825C29.7343 21.3271 33.2655 23.8306 35.53 27.4306C37.237 30.1453 38.0686 33.2383 37.9704 36.3735C37.8391 36.4689 37.6981 36.564 37.5507 36.6596H39.968C40.1274 33.0515 39.1948 29.4832 37.2311 26.3608C34.6815 22.306 30.7045 19.4875 26.033 18.4236Z" fill="url(#paint0_linear_1_50410)"/>
<defs>
<linearGradient id="paint0_linear_1_50410" x1="22.0513" y1="17.9717" x2="22.0513" y2="36.6596" gradientUnits="userSpaceOnUse">
<stop stop-color="#4A1FB8"/>
<stop offset="1" stop-color="#12013D" stop-opacity="0.67"/>
</linearGradient>
</defs>
</svg>
