<svg width="24" height="24" viewBox="0 0 24 24" fill="none" xmlns="http://www.w3.org/2000/svg">
<path d="M7.81926 21.0105C16.3103 21.0105 20.9536 13.976 20.9536 7.87612C20.9536 7.67633 20.9495 7.47737 20.9406 7.2795C21.8418 6.62784 22.6252 5.81464 23.2433 4.88902C22.4162 5.25682 21.5259 5.50408 20.5923 5.61595C21.5453 5.04423 22.2771 4.14021 22.6221 3.06255C21.7302 3.59134 20.7424 3.97551 19.6909 4.18301C18.8485 3.28573 17.6491 2.72461 16.3211 2.72461C13.772 2.72461 11.7046 4.79188 11.7046 7.34018C11.7046 7.70261 11.7452 8.05486 11.8243 8.3928C7.98768 8.19975 4.58544 6.36296 2.30889 3.56973C1.91261 4.2518 1.68392 5.04437 1.68392 5.89004C1.68392 7.4914 2.49891 8.90549 3.73811 9.73245C2.98078 9.7092 2.2694 9.50129 1.64746 9.15523C1.64677 9.17463 1.64677 9.19348 1.64677 9.21412C1.64677 11.4498 3.23795 13.3165 5.35048 13.7394C4.96246 13.845 4.55421 13.9018 4.13316 13.9018C3.83622 13.9018 3.54672 13.8726 3.26547 13.8186C3.85315 15.6527 5.55743 16.9874 7.57791 17.0248C5.99788 18.2632 4.00753 19.0009 1.84436 19.0009C1.47229 19.0009 1.1045 18.9796 0.743164 18.9369C2.78621 20.2464 5.2122 21.0106 7.8194 21.0106" fill="#1D2939"/>
</svg>
