<svg width="19" height="18" viewBox="0 0 19 18" fill="none" xmlns="http://www.w3.org/2000/svg">
<g clip-path="url(#clip0_24_16370)">
<path fill-rule="evenodd" clip-rule="evenodd" d="M1.8125 3.375C1.76277 3.375 1.71508 3.39475 1.67992 3.42992C1.64475 3.46508 1.625 3.51277 1.625 3.5625V14.4375C1.625 14.541 1.709 14.625 1.8125 14.625H17.1875C17.2372 14.625 17.2849 14.6052 17.3201 14.5701C17.3552 14.5349 17.375 14.4872 17.375 14.4375V3.5625C17.375 3.51277 17.3552 3.46508 17.3201 3.42992C17.2849 3.39475 17.2372 3.375 17.1875 3.375H1.8125ZM0.5 3.5625C0.5 2.838 1.088 2.25 1.8125 2.25H17.1875C17.912 2.25 18.5 2.838 18.5 3.5625V14.4375C18.5 14.7856 18.3617 15.1194 18.1156 15.3656C17.8694 15.6117 17.5356 15.75 17.1875 15.75H1.8125C1.4644 15.75 1.13056 15.6117 0.884422 15.3656C0.638281 15.1194 0.5 14.7856 0.5 14.4375V3.5625Z" fill="#475467"/>
<path d="M7.25 11.688V6.312C7.25011 6.24474 7.26831 6.17874 7.3027 6.12093C7.33708 6.06312 7.38638 6.01562 7.44543 5.98341C7.50448 5.9512 7.57111 5.93547 7.63833 5.93786C7.70555 5.94025 7.77089 5.96068 7.8275 5.997L12.0095 8.68425C12.0625 8.71818 12.106 8.76488 12.1362 8.82005C12.1664 8.87523 12.1822 8.93711 12.1822 9C12.1822 9.06289 12.1664 9.12477 12.1362 9.17994C12.106 9.23512 12.0625 9.28182 12.0095 9.31575L7.8275 12.0037C7.77089 12.0401 7.70555 12.0605 7.63833 12.0629C7.57111 12.0653 7.50448 12.0495 7.44543 12.0173C7.38638 11.9851 7.33708 11.9376 7.3027 11.8798C7.26831 11.822 7.25011 11.756 7.25 11.6887V11.688Z" fill="#475467"/>
</g>
<defs>
<clipPath id="clip0_24_16370">
<rect width="18" height="18" fill="white" transform="translate(0.5)"/>
</clipPath>
</defs>
</svg>
